<svg width="370" height="371" viewBox="0 0 370 371" fill="none" xmlns="http://www.w3.org/2000/svg">
<path d="M331.394 142.372C328.723 140.892 327.502 142.128 326.532 140.892C325.563 139.657 329.204 136.519 321.915 133.359C321.915 133.359 321.426 126.558 311.466 126.314C301.506 126.07 304.177 133.115 301.506 134.817C298.834 136.519 298.102 133.848 295.43 135.557C292.759 137.266 293.95 140.656 291.789 141.144C289.791 141.588 287.194 139.412 284.722 140.315C283.898 137.565 282.756 134.92 281.318 132.434C272.298 116.946 252.629 109.805 237.229 105.446C188.219 91.5855 176.364 125.619 145.987 144.363C115.61 163.108 79.9052 145.843 62.5596 159.304C45.214 172.765 39.4272 206.206 47.8928 221.628C56.3584 237.049 75.0804 242.074 77.9738 249.467C80.8672 256.859 79.9644 259.279 79.9644 259.279H307.144C308.92 259.279 313.612 249.77 314.544 247.92C319.784 237.405 320.42 226.97 311.222 218.89C302.342 211.09 286.987 206.184 285.906 191.687C284.826 177.19 288.541 160.71 286.032 146.006H333.318C333.318 146.006 334.066 143.83 331.394 142.372ZM144.433 226.667H82.9614C82.9614 226.667 84.6634 225.453 86.1212 224.447C87.579 223.441 90.0062 224.447 91.2198 224.447C92.4334 224.447 92.4334 222.967 95.1122 221.295C97.791 219.622 100.699 222.264 102.882 221.776C105.065 221.287 103.859 217.891 106.53 216.189C109.202 214.487 109.934 217.158 112.606 215.449C115.277 213.739 112.606 206.694 122.566 206.938C132.527 207.183 133.015 213.991 133.015 213.991C140.304 217.143 136.656 220.303 137.633 221.517C138.609 222.73 139.816 221.517 142.494 222.997C145.173 224.477 144.433 226.667 144.433 226.667ZM244.133 118.455H204.684C204.684 118.455 205.772 117.715 206.712 117.057C207.651 116.398 209.205 117.057 209.982 117.057C210.759 117.057 210.767 116.117 212.476 115.029C214.186 113.941 216.065 115.651 217.471 115.34C218.877 115.029 218.093 112.846 219.81 111.751C221.526 110.656 221.993 112.372 223.709 111.285C225.426 110.197 223.709 105.668 230.103 105.823C236.497 105.979 236.807 110.345 236.807 110.345C241.484 112.372 239.146 114.4 239.767 115.184C240.389 115.969 241.173 115.184 242.89 116.117C244.607 117.049 244.133 118.455 244.133 118.455Z" fill="#3B5FE2"/>
<path d="M171.554 80.6628C168.875 79.1828 167.662 80.4186 166.692 79.1828C165.723 77.947 169.364 74.8094 162.075 71.6496C162.075 71.6496 161.586 64.849 151.626 64.6048C141.666 64.3606 144.337 71.4054 141.666 73.1074C138.994 74.8094 138.262 72.138 135.59 73.8474C132.919 75.5568 134.11 78.946 131.942 79.4344C129.774 79.9228 126.843 77.2144 124.172 78.946C121.501 80.6776 121.493 82.1058 120.28 82.1058C119.066 82.1058 116.639 81.1364 115.181 82.1058C113.723 83.0752 112.021 84.3258 112.021 84.3258H173.493C173.493 84.3258 174.226 82.1428 171.554 80.6628Z" fill="#3B5FE2"/>
<g opacity="0.7">
<path d="M331.394 142.372C328.723 140.892 327.502 142.128 326.532 140.892C325.563 139.657 329.204 136.519 321.915 133.359C321.915 133.359 321.426 126.558 311.466 126.314C301.506 126.07 304.177 133.115 301.506 134.817C298.834 136.519 298.102 133.848 295.43 135.557C292.759 137.266 293.95 140.656 291.789 141.144C289.791 141.588 287.194 139.412 284.722 140.315C283.898 137.565 282.756 134.92 281.318 132.434C272.298 116.946 252.629 109.805 237.229 105.446C188.219 91.5855 176.364 125.619 145.987 144.363C115.61 163.108 79.9052 145.843 62.5596 159.304C45.214 172.765 39.4272 206.206 47.8928 221.628C56.3584 237.049 75.0804 242.074 77.9738 249.467C80.8672 256.859 79.9644 259.279 79.9644 259.279H307.144C308.92 259.279 313.612 249.77 314.544 247.92C319.784 237.405 320.42 226.97 311.222 218.89C302.342 211.09 286.987 206.184 285.906 191.687C284.826 177.19 288.541 160.71 286.032 146.006H333.318C333.318 146.006 334.066 143.83 331.394 142.372ZM144.433 226.667H82.9614C82.9614 226.667 84.6634 225.453 86.1212 224.447C87.579 223.441 90.0062 224.447 91.2198 224.447C92.4334 224.447 92.4334 222.967 95.1122 221.295C97.791 219.622 100.699 222.264 102.882 221.776C105.065 221.287 103.859 217.891 106.53 216.189C109.202 214.487 109.934 217.158 112.606 215.449C115.277 213.739 112.606 206.694 122.566 206.938C132.527 207.183 133.015 213.991 133.015 213.991C140.304 217.143 136.656 220.303 137.633 221.517C138.609 222.73 139.816 221.517 142.494 222.997C145.173 224.477 144.433 226.667 144.433 226.667ZM244.133 118.455H204.684C204.684 118.455 205.772 117.715 206.712 117.057C207.651 116.398 209.205 117.057 209.982 117.057C210.759 117.057 210.767 116.117 212.476 115.029C214.186 113.941 216.065 115.651 217.471 115.34C218.877 115.029 218.093 112.846 219.81 111.751C221.526 110.656 221.993 112.372 223.709 111.285C225.426 110.197 223.709 105.668 230.103 105.823C236.497 105.979 236.807 110.345 236.807 110.345C241.484 112.372 239.146 114.4 239.767 115.184C240.389 115.969 241.173 115.184 242.89 116.117C244.607 117.049 244.133 118.455 244.133 118.455Z" fill="white"/>
<path d="M171.554 80.6628C168.875 79.1828 167.662 80.4186 166.692 79.1828C165.723 77.947 169.364 74.8094 162.075 71.6496C162.075 71.6496 161.586 64.849 151.626 64.6048C141.666 64.3606 144.337 71.4054 141.666 73.1074C138.994 74.8094 138.262 72.138 135.59 73.8474C132.919 75.5568 134.11 78.946 131.942 79.4344C129.774 79.9228 126.843 77.2144 124.172 78.946C121.501 80.6776 121.493 82.1058 120.28 82.1058C119.066 82.1058 116.639 81.1364 115.181 82.1058C113.723 83.0752 112.021 84.3258 112.021 84.3258H173.493C173.493 84.3258 174.226 82.1428 171.554 80.6628Z" fill="white"/>
</g>
<path d="M326.888 211.512L334.11 230.863H329.189L324.268 215.774L326.888 211.512Z" fill="white" stroke="#2E353A" stroke-width="0.887535" stroke-linecap="round" stroke-linejoin="round"/>
<path d="M330.824 259.294H265.771V226.053L326.17 216.825L330.824 229.657V259.294Z" fill="#2E353A"/>
<path d="M274.732 158.697H189.884V259.294H274.732V158.697Z" fill="#2E353A"/>
<path d="M184.66 166.829L181.048 162.152L232.782 122.215L283.568 161.427L279.964 166.104L232.782 129.674L184.66 166.829Z" fill="#2E353A"/>
<path d="M259.207 158.697H174.359V259.294H259.207V158.697Z" fill="white" stroke="#2E353A" stroke-width="0.887535" stroke-linecap="round" stroke-linejoin="round"/>
<path d="M216.783 125.944L174.359 158.696H259.207L216.783 125.944Z" fill="white" stroke="#2E353A" stroke-width="0.887535" stroke-linejoin="round"/>
<g style="mix-blend-mode:multiply">
<path d="M216.783 125.944L174.359 158.696V166.156L184.023 158.696L216.783 133.403L249.55 158.696L259.207 166.156V158.696L216.783 125.944Z" fill="#3B5FE2"/>
</g>
<path d="M324.268 226.053H259.207V259.294H324.268V226.053Z" fill="white" stroke="#2E353A" stroke-width="0.887535" stroke-linecap="round" stroke-linejoin="round"/>
<path d="M317.712 226.053H265.771V259.294H317.712V226.053Z" fill="#3B5FE2" stroke="#2E353A" stroke-width="0.887535" stroke-linecap="round" stroke-linejoin="round"/>
<g style="mix-blend-mode:multiply">
<path d="M324.268 226.053H259.207V233.179H324.268V226.053Z" fill="#3B5FE2"/>
</g>
<path d="M265.771 235.784H317.704" stroke="#2E353A" stroke-width="0.887535" stroke-linecap="round" stroke-linejoin="round"/>
<path d="M265.771 240.705H317.704" stroke="#2E353A" stroke-width="0.887535" stroke-linecap="round" stroke-linejoin="round"/>
<path d="M265.771 245.626H317.704" stroke="#2E353A" stroke-width="0.887535" stroke-linecap="round" stroke-linejoin="round"/>
<path d="M265.771 250.547H317.704" stroke="#2E353A" stroke-width="0.887535" stroke-linecap="round" stroke-linejoin="round"/>
<path d="M265.771 255.468H317.704" stroke="#2E353A" stroke-width="0.887535" stroke-linecap="round" stroke-linejoin="round"/>
<path d="M198.416 222.116H181.359V259.294H198.416V222.116Z" fill="#2E353A"/>
<path d="M224.435 222.116H207.378V247.92H224.435V222.116Z" fill="white" stroke="#2E353A" stroke-width="0.887535" stroke-linecap="round" stroke-linejoin="round"/>
<path d="M224.435 233.927H207.378V236.117H224.435V233.927Z" fill="#2E353A"/>
<path d="M217.005 222.116H214.815V247.92H217.005V222.116Z" fill="#2E353A"/>
<path d="M255.707 222.116H238.65V247.92H255.707V222.116Z" fill="white" stroke="#2E353A" stroke-width="0.887535" stroke-linecap="round" stroke-linejoin="round"/>
<path d="M255.707 233.927H238.65V236.117H255.707V233.927Z" fill="#2E353A"/>
<path d="M248.277 222.116H246.087V247.92H248.277V222.116Z" fill="#2E353A"/>
<path d="M233.729 222.116H230.458V259.294H233.729V222.116Z" fill="white" stroke="#2E353A" stroke-width="0.887535" stroke-linecap="round" stroke-linejoin="round"/>
<path d="M205.135 222.116H201.865V259.294H205.135V222.116Z" fill="white" stroke="#2E353A" stroke-width="0.887535" stroke-linecap="round" stroke-linejoin="round"/>
<path d="M255.707 223.648H178.296V228.458H255.707V223.648Z" fill="#2E353A"/>
<path d="M255.707 221.243H178.296V226.053H255.707V221.243Z" fill="#3B5FE2" stroke="#2E353A" stroke-width="0.887535" stroke-linecap="round" stroke-linejoin="round"/>
<path d="M168.661 166.829L165.05 162.152L216.783 122.215L267.569 161.427L263.965 166.104L216.783 129.674L168.661 166.829Z" fill="white" stroke="#2E353A" stroke-width="0.887535" stroke-linejoin="round"/>
<path d="M324.268 230.863H252.74L259.303 211.512H326.888L324.268 230.863Z" fill="#2E353A"/>
<path d="M267.569 161.427H282.221L232.782 122.215H216.783L267.569 161.427Z" fill="#2E353A"/>
<path d="M263.965 166.105H279.964L283.568 161.428H267.569L263.965 166.105Z" fill="#2E353A"/>
<path d="M190.543 173.571H181.359V188.445H190.543V173.571Z" fill="white" stroke="#2E353A" stroke-width="0.887535" stroke-linecap="round" stroke-linejoin="round"/>
<path d="M190.543 181.009H181.359V188.446H190.543V181.009Z" fill="#2E353A"/>
<path d="M190.543 180.18H181.359V181.837H190.543V180.18Z" fill="white" stroke="#2E353A" stroke-width="0.887535" stroke-linecap="round" stroke-linejoin="round"/>
<path d="M190.543 195.002H181.359V209.876H190.543V195.002Z" fill="white" stroke="#2E353A" stroke-width="0.887535" stroke-linecap="round" stroke-linejoin="round"/>
<path d="M190.543 202.365H181.359V209.869H190.543V202.365Z" fill="#2E353A"/>
<path d="M252.643 173.571H243.46V188.445H252.643V173.571Z" fill="white" stroke="#2E353A" stroke-width="0.887535" stroke-linecap="round" stroke-linejoin="round"/>
<path d="M252.643 181.009H243.46V188.446H252.643V181.009Z" fill="#2E353A"/>
<path d="M252.643 195.002H243.46V209.876H252.643V195.002Z" fill="white" stroke="#2E353A" stroke-width="0.887535" stroke-linecap="round" stroke-linejoin="round"/>
<path d="M252.643 201.536H243.46V209.869H252.643V201.536Z" fill="#2E353A"/>
<path d="M220.498 173.571H211.314V188.445H220.498V173.571Z" fill="white" stroke="#2E353A" stroke-width="0.887535" stroke-linecap="round" stroke-linejoin="round"/>
<path d="M220.498 181.009H211.314V188.446H220.498V181.009Z" fill="#2E353A"/>
<path d="M220.498 195.002H211.314V209.876H220.498V195.002Z" fill="white" stroke="#2E353A" stroke-width="0.887535" stroke-linecap="round" stroke-linejoin="round"/>
<path d="M220.498 201.536H211.314V209.869H220.498V201.536Z" fill="#2E353A"/>
<path d="M220.498 180.18H211.314V181.837H220.498V180.18Z" fill="white" stroke="#2E353A" stroke-width="0.887535" stroke-linecap="round" stroke-linejoin="round"/>
<path d="M252.643 180.18H243.46V181.837H252.643V180.18Z" fill="white" stroke="#2E353A" stroke-width="0.887535" stroke-linecap="round" stroke-linejoin="round"/>
<path d="M190.543 200.708H181.359V202.365H190.543V200.708Z" fill="white" stroke="#2E353A" stroke-width="0.887535" stroke-linecap="round" stroke-linejoin="round"/>
<path d="M220.498 200.708H211.314V202.365H220.498V200.708Z" fill="white" stroke="#2E353A" stroke-width="0.887535" stroke-linecap="round" stroke-linejoin="round"/>
<path d="M252.643 200.708H243.46V202.365H252.643V200.708Z" fill="white" stroke="#2E353A" stroke-width="0.887535" stroke-linecap="round" stroke-linejoin="round"/>
<path d="M181.84 163.182V166.83" stroke="#2E353A" stroke-width="0.887535" stroke-linecap="round" stroke-linejoin="round"/>
<path d="M188.404 163.182V166.83" stroke="#2E353A" stroke-width="0.887535" stroke-linecap="round" stroke-linejoin="round"/>
<path d="M184.66 166.83V170.478" stroke="#2E353A" stroke-width="0.887535" stroke-linecap="round" stroke-linejoin="round"/>
<path d="M192.156 166.83V170.478" stroke="#2E353A" stroke-width="0.887535" stroke-linecap="round" stroke-linejoin="round"/>
<path d="M178.932 166.83H193.924" stroke="#2E353A" stroke-width="0.887535" stroke-linecap="round" stroke-linejoin="round"/>
<path d="M181.84 211.911V215.559" stroke="#2E353A" stroke-width="0.887535" stroke-linecap="round" stroke-linejoin="round"/>
<path d="M188.404 211.911V215.559" stroke="#2E353A" stroke-width="0.887535" stroke-linecap="round" stroke-linejoin="round"/>
<path d="M184.66 215.56V219.208" stroke="#2E353A" stroke-width="0.887535" stroke-linecap="round" stroke-linejoin="round"/>
<path d="M192.156 215.56V219.208" stroke="#2E353A" stroke-width="0.887535" stroke-linecap="round" stroke-linejoin="round"/>
<path d="M178.932 215.56H193.924" stroke="#2E353A" stroke-width="0.887535" stroke-linecap="round" stroke-linejoin="round"/>
<path d="M195.138 177.353V181.008" stroke="#2E353A" stroke-width="0.887535" stroke-linecap="round" stroke-linejoin="round"/>
<path d="M201.702 177.353V181.008" stroke="#2E353A" stroke-width="0.887535" stroke-linecap="round" stroke-linejoin="round"/>
<path d="M197.957 181.009V184.657" stroke="#2E353A" stroke-width="0.887535" stroke-linecap="round" stroke-linejoin="round"/>
<path d="M205.454 181.009V184.657" stroke="#2E353A" stroke-width="0.887535" stroke-linecap="round" stroke-linejoin="round"/>
<path d="M192.23 181.009H207.222" stroke="#2E353A" stroke-width="0.887535" stroke-linecap="round" stroke-linejoin="round"/>
<path d="M195.138 184.657H207.222" stroke="#2E353A" stroke-width="0.887535" stroke-linecap="round" stroke-linejoin="round"/>
<path d="M195.138 184.79V188.438" stroke="#2E353A" stroke-width="0.887535" stroke-linecap="round" stroke-linejoin="round"/>
<path d="M201.702 184.79V188.438" stroke="#2E353A" stroke-width="0.887535" stroke-linecap="round" stroke-linejoin="round"/>
<path d="M197.957 188.438V192.086" stroke="#2E353A" stroke-width="0.887535" stroke-linecap="round" stroke-linejoin="round"/>
<path d="M205.454 188.438V192.086" stroke="#2E353A" stroke-width="0.887535" stroke-linecap="round" stroke-linejoin="round"/>
<path d="M192.23 188.438H207.222" stroke="#2E353A" stroke-width="0.887535" stroke-linecap="round" stroke-linejoin="round"/>
<path d="M227.831 201.699V205.347" stroke="#2E353A" stroke-width="0.887535" stroke-linecap="round" stroke-linejoin="round"/>
<path d="M234.395 201.699V205.347" stroke="#2E353A" stroke-width="0.887535" stroke-linecap="round" stroke-linejoin="round"/>
<path d="M230.651 205.347V208.996" stroke="#2E353A" stroke-width="0.887535" stroke-linecap="round" stroke-linejoin="round"/>
<path d="M238.147 205.347V208.996" stroke="#2E353A" stroke-width="0.887535" stroke-linecap="round" stroke-linejoin="round"/>
<path d="M224.923 205.347H239.915" stroke="#2E353A" stroke-width="0.887535" stroke-linecap="round" stroke-linejoin="round"/>
<path d="M227.831 208.996H239.915" stroke="#2E353A" stroke-width="0.887535" stroke-linecap="round" stroke-linejoin="round"/>
<path d="M227.831 209.136V212.784" stroke="#2E353A" stroke-width="0.887535" stroke-linecap="round" stroke-linejoin="round"/>
<path d="M234.395 209.136V212.784" stroke="#2E353A" stroke-width="0.887535" stroke-linecap="round" stroke-linejoin="round"/>
<path d="M230.651 212.784V216.433" stroke="#2E353A" stroke-width="0.887535" stroke-linecap="round" stroke-linejoin="round"/>
<path d="M238.147 212.784V216.433" stroke="#2E353A" stroke-width="0.887535" stroke-linecap="round" stroke-linejoin="round"/>
<path d="M224.923 212.784H239.915" stroke="#2E353A" stroke-width="0.887535" stroke-linecap="round" stroke-linejoin="round"/>
<path d="M51.8 269.602C66.3484 275.618 103.733 269.106 99.9 276.122C96.0668 283.137 66.785 280.502 58.46 288.087C50.135 295.672 88.0082 295.066 86.6688 297.367C85.3294 299.668 52.0072 301.245 54.1976 304.345H278.728C279.091 301.918 276.508 298.973 272.29 296.945C238.857 295.576 125.563 290.559 137.433 285.712C151.345 280.044 196.766 274.375 205.069 269.935C213.372 265.495 176.594 264.999 170.437 263.031C168.454 262.395 168.217 261.773 168.861 261.233L169.919 261.299V260.626C171.6 260.017 173.334 259.564 175.099 259.272H169.919V257.992L169.179 258.458L167.913 259.272H167.506C168.025 257.669 168.377 256.018 168.557 254.343C168.846 251.45 164.783 257.992 164.783 257.992C164.783 257.992 165.36 255.772 164.783 254.343C164.206 252.915 162.46 256.275 162.46 256.275C162.46 256.275 164.495 248.246 162.46 243.029C160.425 237.812 158.131 256.275 158.131 256.275C158.131 256.275 157.82 249.112 155.208 248.971C153.091 248.853 154.401 253.722 154.978 255.572C154.53 254.534 153.87 253.601 153.039 252.834C151.167 251.043 153.039 256.97 153.039 256.97C153.039 256.97 152.299 255.209 147.408 254.343C142.517 253.478 149.406 258.177 149.406 258.177C147.286 257.568 145.134 257.074 142.961 256.697C141.88 256.519 141.791 256.785 142.147 257.229L141.444 257.681L139.179 259.161C139.921 256.988 140.417 254.739 140.659 252.456C141.029 248.756 135.857 257.104 135.857 257.104C135.857 257.104 136.597 254.299 135.857 252.456C135.117 250.614 132.897 254.913 132.897 254.913C132.897 254.913 135.487 244.694 132.897 238.049C130.307 231.403 127.384 254.913 127.384 254.913C127.384 254.913 126.984 245.804 123.684 245.619C120.997 245.471 122.648 251.62 123.388 253.996C122.818 252.685 121.981 251.508 120.931 250.54C118.541 248.261 120.931 255.801 120.931 255.801C120.931 255.801 119.991 253.581 113.76 252.456C107.529 251.332 116.298 257.34 116.298 257.34C113.599 256.566 110.859 255.939 108.092 255.461C103.948 254.78 111.244 259.287 111.244 259.287H56.24C56.24 259.287 37.2664 263.593 51.8 269.602ZM142.391 257.525C143.133 258.183 143.928 258.779 144.766 259.309H142.391V257.525Z" fill="#3B5FE2"/>
<path d="M231.302 270.498C222.895 274.39 202.02 278.475 202.02 278.475C198.697 278.927 203.197 283.182 226.27 281.073L265.756 259.294H190.091C192.622 260.597 210.648 263.601 220.905 263.601C231.161 263.601 239.708 266.598 231.302 270.498Z" fill="#3B5FE2"/>
<path d="M291.752 259.294H306.671C299.182 259.006 291.752 259.294 291.752 259.294Z" fill="#3B5FE2"/>
<path d="M316.365 260.16L280.926 282.997C285.418 282.826 290.117 282.715 294.668 282.604C314.3 282.131 307.174 273.613 308.506 270.609C309.838 267.605 320.982 268.1 321.87 263.091C322.122 261.67 319.806 260.752 316.365 260.16Z" fill="#3B5FE2"/>
<g opacity="0.3">
<path d="M51.8 269.602C66.3484 275.618 103.733 269.106 99.9 276.122C96.0668 283.137 66.785 280.502 58.46 288.087C50.135 295.672 88.0082 295.066 86.6688 297.367C85.3294 299.668 52.0072 301.245 54.1976 304.345H278.728C279.091 301.918 276.508 298.973 272.29 296.945C238.857 295.576 125.563 290.559 137.433 285.712C151.345 280.044 196.766 274.375 205.069 269.935C213.372 265.495 176.594 264.999 170.437 263.031C168.454 262.395 168.217 261.773 168.861 261.233L169.919 261.299V260.626C171.6 260.017 173.334 259.564 175.099 259.272H169.919V257.992L169.179 258.458L167.913 259.272H167.506C168.025 257.669 168.377 256.018 168.557 254.343C168.846 251.45 164.783 257.992 164.783 257.992C164.783 257.992 165.36 255.772 164.783 254.343C164.206 252.915 162.46 256.275 162.46 256.275C162.46 256.275 164.495 248.246 162.46 243.029C160.425 237.812 158.131 256.275 158.131 256.275C158.131 256.275 157.82 249.112 155.208 248.971C153.091 248.853 154.401 253.722 154.978 255.572C154.53 254.534 153.87 253.601 153.039 252.834C151.167 251.043 153.039 256.97 153.039 256.97C153.039 256.97 152.299 255.209 147.408 254.343C142.517 253.478 149.406 258.177 149.406 258.177C147.286 257.568 145.134 257.074 142.961 256.697C141.88 256.519 141.791 256.785 142.147 257.229L141.444 257.681L139.179 259.161C139.921 256.988 140.417 254.739 140.659 252.456C141.029 248.756 135.857 257.104 135.857 257.104C135.857 257.104 136.597 254.299 135.857 252.456C135.117 250.614 132.897 254.913 132.897 254.913C132.897 254.913 135.487 244.694 132.897 238.049C130.307 231.403 127.384 254.913 127.384 254.913C127.384 254.913 126.984 245.804 123.684 245.619C120.997 245.471 122.648 251.62 123.388 253.996C122.818 252.685 121.981 251.508 120.931 250.54C118.541 248.261 120.931 255.801 120.931 255.801C120.931 255.801 119.991 253.581 113.76 252.456C107.529 251.332 116.298 257.34 116.298 257.34C113.599 256.566 110.859 255.939 108.092 255.461C103.948 254.78 111.244 259.287 111.244 259.287H56.24C56.24 259.287 37.2664 263.593 51.8 269.602ZM142.391 257.525C143.133 258.183 143.928 258.779 144.766 259.309H142.391V257.525Z" fill="white"/>
<path d="M231.302 270.498C222.895 274.39 202.02 278.475 202.02 278.475C198.697 278.927 203.197 283.182 226.27 281.073L265.756 259.294H190.091C192.622 260.597 210.648 263.601 220.905 263.601C231.161 263.601 239.708 266.598 231.302 270.498Z" fill="white"/>
<path d="M291.752 259.294H306.671C299.182 259.006 291.752 259.294 291.752 259.294Z" fill="white"/>
<path d="M316.365 260.16L280.926 282.997C285.418 282.826 290.117 282.715 294.668 282.604C314.3 282.131 307.174 273.613 308.506 270.609C309.838 267.605 320.982 268.1 321.87 263.091C322.122 261.67 319.806 260.752 316.365 260.16Z" fill="white"/>
</g>
<path d="M99.3894 134.832V194.52H186.214V134.832H99.3894ZM107.455 142.165C106.981 142.165 106.518 142.025 106.123 141.761C105.729 141.498 105.422 141.123 105.24 140.685C105.059 140.247 105.011 139.765 105.104 139.3C105.196 138.835 105.425 138.408 105.76 138.072C106.095 137.737 106.523 137.509 106.988 137.416C107.453 137.324 107.935 137.371 108.373 137.552C108.811 137.734 109.185 138.041 109.449 138.436C109.712 138.83 109.853 139.293 109.853 139.768C109.853 140.403 109.6 141.013 109.151 141.463C108.701 141.913 108.091 142.165 107.455 142.165ZM178.066 142.165C177.592 142.165 177.128 142.025 176.734 141.761C176.34 141.498 176.033 141.123 175.851 140.685C175.67 140.247 175.622 139.765 175.715 139.3C175.807 138.835 176.036 138.408 176.371 138.072C176.706 137.737 177.133 137.509 177.598 137.416C178.064 137.324 178.546 137.371 178.984 137.552C179.422 137.734 179.796 138.041 180.06 138.436C180.323 138.83 180.464 139.293 180.464 139.768C180.462 140.403 180.209 141.012 179.759 141.461C179.31 141.91 178.701 142.163 178.066 142.165Z" fill="#3B5FE2" stroke="#2E353A" stroke-miterlimit="10"/>
<path d="M180.464 139.768C180.464 140.242 180.323 140.705 180.06 141.1C179.796 141.494 179.422 141.801 178.984 141.983C178.546 142.164 178.064 142.212 177.598 142.119C177.133 142.027 176.706 141.798 176.371 141.463C176.036 141.128 175.807 140.701 175.715 140.235C175.622 139.77 175.67 139.288 175.851 138.85C176.033 138.412 176.34 138.038 176.734 137.774C177.128 137.511 177.592 137.37 178.066 137.37H107.455C107.93 137.37 108.393 137.511 108.787 137.774C109.182 138.038 109.489 138.412 109.671 138.85C109.852 139.288 109.899 139.77 109.807 140.235C109.714 140.701 109.486 141.128 109.151 141.463C108.815 141.798 108.388 142.027 107.923 142.119C107.458 142.212 106.976 142.164 106.538 141.983C106.1 141.801 105.725 141.494 105.462 141.1C105.198 140.705 105.058 140.242 105.058 139.768C105.058 139.132 105.31 138.522 105.76 138.072C106.21 137.623 106.82 137.37 107.455 137.37H101.891V191.227H182.891V137.37H178.066C178.702 137.37 179.312 137.623 179.762 138.072C180.211 138.522 180.464 139.132 180.464 139.768Z" fill="#2E353A"/>
<path d="M107.455 111.744C106.766 111.745 106.093 111.951 105.521 112.335C104.949 112.719 104.503 113.263 104.241 113.9C103.978 114.537 103.91 115.238 104.045 115.914C104.181 116.589 104.513 117.21 105.001 117.696C105.489 118.183 106.11 118.514 106.786 118.648C107.461 118.782 108.162 118.712 108.798 118.448C109.435 118.184 109.979 117.738 110.361 117.165C110.744 116.592 110.948 115.918 110.948 115.229C110.948 114.771 110.858 114.317 110.682 113.894C110.507 113.47 110.249 113.086 109.925 112.762C109.6 112.438 109.215 112.182 108.791 112.007C108.368 111.832 107.914 111.743 107.455 111.744ZM107.455 117.553C106.996 117.551 106.548 117.414 106.167 117.157C105.785 116.901 105.489 116.538 105.314 116.113C105.139 115.688 105.094 115.221 105.185 114.771C105.275 114.321 105.497 113.908 105.822 113.583C106.148 113.259 106.562 113.039 107.012 112.95C107.463 112.861 107.93 112.907 108.354 113.083C108.778 113.259 109.14 113.557 109.395 113.939C109.65 114.321 109.786 114.77 109.786 115.229C109.788 115.536 109.73 115.841 109.613 116.126C109.497 116.41 109.326 116.669 109.109 116.887C108.892 117.105 108.635 117.278 108.351 117.396C108.067 117.514 107.763 117.575 107.455 117.575V117.553Z" fill="white" stroke="#2E353A" stroke-width="0.916642" stroke-linecap="round" stroke-linejoin="round"/>
<path d="M107.455 120.113C106.764 120.113 106.089 120.318 105.514 120.702C104.94 121.086 104.492 121.632 104.228 122.271C103.964 122.91 103.895 123.612 104.03 124.29C104.166 124.968 104.499 125.59 104.988 126.078C105.478 126.566 106.101 126.898 106.779 127.032C107.457 127.166 108.159 127.096 108.797 126.831C109.435 126.565 109.98 126.116 110.363 125.541C110.746 124.966 110.95 124.29 110.948 123.598C110.948 123.14 110.858 122.686 110.682 122.263C110.507 121.84 110.249 121.455 109.925 121.131C109.6 120.808 109.215 120.551 108.792 120.376C108.368 120.202 107.914 120.112 107.455 120.113ZM107.455 125.929C106.994 125.929 106.544 125.793 106.16 125.537C105.777 125.28 105.478 124.916 105.302 124.49C105.125 124.065 105.079 123.596 105.169 123.144C105.259 122.692 105.481 122.276 105.807 121.95C106.133 121.624 106.549 121.402 107.001 121.312C107.453 121.222 107.922 121.268 108.347 121.445C108.773 121.621 109.137 121.92 109.394 122.303C109.65 122.687 109.786 123.137 109.786 123.598C109.786 124.217 109.541 124.81 109.104 125.247C108.667 125.684 108.074 125.929 107.455 125.929Z" fill="white" stroke="#2E353A" stroke-width="0.916642" stroke-linecap="round" stroke-linejoin="round"/>
<path d="M107.455 127.491C106.766 127.492 106.093 127.698 105.521 128.082C104.949 128.466 104.503 129.011 104.241 129.648C103.978 130.285 103.91 130.985 104.045 131.661C104.181 132.336 104.513 132.957 105.001 133.444C105.489 133.93 106.11 134.261 106.786 134.395C107.461 134.529 108.162 134.46 108.798 134.196C109.435 133.932 109.979 133.485 110.361 132.912C110.744 132.339 110.948 131.665 110.948 130.976C110.948 130.518 110.858 130.064 110.682 129.641C110.507 129.218 110.249 128.833 109.925 128.509C109.6 128.185 109.215 127.929 108.791 127.754C108.368 127.579 107.914 127.49 107.455 127.491ZM107.455 133.3C106.996 133.299 106.548 133.161 106.167 132.905C105.785 132.649 105.489 132.285 105.314 131.86C105.139 131.436 105.094 130.969 105.185 130.519C105.275 130.068 105.497 129.655 105.822 129.331C106.148 129.007 106.562 128.786 107.012 128.697C107.463 128.608 107.93 128.654 108.354 128.83C108.778 129.006 109.14 129.304 109.395 129.686C109.65 130.068 109.786 130.517 109.786 130.976C109.784 131.593 109.538 132.184 109.101 132.62C108.664 133.055 108.072 133.3 107.455 133.3Z" fill="white" stroke="#2E353A" stroke-width="0.916642" stroke-linecap="round" stroke-linejoin="round"/>
<path d="M107.455 123.221C107.293 123.221 107.136 123.156 107.021 123.041C106.906 122.926 106.841 122.77 106.841 122.607V116.857C106.841 116.694 106.906 116.538 107.021 116.423C107.136 116.308 107.293 116.243 107.455 116.243C107.619 116.243 107.776 116.307 107.892 116.422C108.009 116.537 108.075 116.694 108.077 116.857V122.607C108.075 122.77 108.009 122.927 107.892 123.042C107.776 123.157 107.619 123.221 107.455 123.221Z" fill="white" stroke="#2E353A" stroke-width="0.916642" stroke-linecap="round" stroke-linejoin="round"/>
<path d="M107.455 131.132C107.293 131.132 107.136 131.067 107.021 130.952C106.906 130.837 106.841 130.68 106.841 130.518V124.768C106.841 124.605 106.906 124.449 107.021 124.333C107.136 124.218 107.293 124.154 107.455 124.154C107.619 124.154 107.776 124.218 107.892 124.333C108.009 124.448 108.075 124.604 108.077 124.768V130.518C108.075 130.681 108.009 130.837 107.892 130.952C107.776 131.067 107.619 131.132 107.455 131.132Z" fill="white" stroke="#2E353A" stroke-width="0.916642" stroke-linecap="round" stroke-linejoin="round"/>
<path d="M107.455 139.057C107.293 139.057 107.136 138.993 107.021 138.877C106.906 138.762 106.841 138.606 106.841 138.443V132.693C106.841 132.613 106.857 132.533 106.888 132.458C106.919 132.384 106.964 132.316 107.021 132.259C107.078 132.202 107.146 132.157 107.22 132.126C107.295 132.095 107.375 132.079 107.455 132.079C107.619 132.079 107.776 132.144 107.892 132.259C108.009 132.374 108.075 132.53 108.077 132.693V138.443C108.075 138.607 108.009 138.763 107.892 138.878C107.776 138.993 107.619 139.057 107.455 139.057Z" fill="white" stroke="#2E353A" stroke-width="0.916642" stroke-linecap="round" stroke-linejoin="round"/>
<path d="M178.066 111.744C177.377 111.745 176.704 111.951 176.132 112.335C175.56 112.719 175.114 113.263 174.851 113.9C174.589 114.537 174.521 115.238 174.656 115.914C174.791 116.589 175.124 117.21 175.612 117.696C176.099 118.183 176.721 118.514 177.396 118.648C178.072 118.782 178.773 118.712 179.409 118.448C180.046 118.184 180.59 117.738 180.972 117.165C181.355 116.592 181.559 115.918 181.559 115.229C181.559 114.771 181.469 114.317 181.293 113.894C181.117 113.47 180.86 113.086 180.536 112.762C180.211 112.438 179.826 112.182 179.402 112.007C178.979 111.832 178.525 111.743 178.066 111.744ZM178.066 117.553C177.607 117.551 177.158 117.414 176.777 117.157C176.396 116.901 176.1 116.538 175.925 116.113C175.75 115.688 175.705 115.221 175.796 114.771C175.886 114.321 176.108 113.908 176.433 113.583C176.758 113.259 177.173 113.039 177.623 112.95C178.074 112.861 178.54 112.907 178.965 113.083C179.389 113.259 179.751 113.557 180.006 113.939C180.261 114.321 180.397 114.77 180.397 115.229C180.399 115.536 180.34 115.841 180.224 116.126C180.108 116.41 179.936 116.669 179.72 116.887C179.503 117.105 179.246 117.278 178.962 117.396C178.678 117.514 178.374 117.575 178.066 117.575V117.553Z" fill="white" stroke="#2E353A" stroke-width="0.916642" stroke-linecap="round" stroke-linejoin="round"/>
<path d="M178.066 120.113C177.375 120.113 176.7 120.318 176.125 120.702C175.55 121.086 175.103 121.632 174.839 122.271C174.574 122.91 174.506 123.612 174.641 124.29C174.776 124.968 175.11 125.59 175.599 126.078C176.088 126.566 176.711 126.898 177.389 127.032C178.067 127.166 178.77 127.096 179.408 126.831C180.046 126.565 180.591 126.116 180.974 125.541C181.357 124.966 181.56 124.29 181.559 123.598C181.559 123.14 181.469 122.686 181.293 122.263C181.117 121.84 180.86 121.455 180.536 121.131C180.211 120.808 179.826 120.551 179.402 120.376C178.979 120.202 178.525 120.112 178.066 120.113ZM178.066 125.929C177.605 125.929 177.155 125.793 176.771 125.537C176.388 125.28 176.089 124.916 175.913 124.49C175.736 124.065 175.69 123.596 175.78 123.144C175.87 122.692 176.092 122.276 176.418 121.95C176.744 121.624 177.159 121.402 177.611 121.312C178.064 121.222 178.532 121.268 178.958 121.445C179.384 121.621 179.748 121.92 180.004 122.303C180.261 122.687 180.397 123.137 180.397 123.598C180.397 123.905 180.337 124.208 180.22 124.49C180.103 124.773 179.931 125.03 179.714 125.247C179.498 125.463 179.241 125.635 178.958 125.752C178.675 125.869 178.372 125.929 178.066 125.929Z" fill="white" stroke="#2E353A" stroke-width="0.916642" stroke-linecap="round" stroke-linejoin="round"/>
<path d="M178.066 127.491C177.377 127.492 176.704 127.698 176.132 128.082C175.56 128.466 175.114 129.011 174.851 129.648C174.589 130.285 174.521 130.985 174.656 131.661C174.791 132.336 175.124 132.957 175.612 133.444C176.099 133.93 176.721 134.261 177.396 134.395C178.072 134.529 178.773 134.46 179.409 134.196C180.046 133.932 180.59 133.485 180.972 132.912C181.355 132.339 181.559 131.665 181.559 130.976C181.559 130.518 181.469 130.064 181.293 129.641C181.117 129.218 180.86 128.833 180.536 128.509C180.211 128.185 179.826 127.929 179.402 127.754C178.979 127.579 178.525 127.49 178.066 127.491ZM178.066 133.3C177.607 133.299 177.158 133.161 176.777 132.905C176.396 132.649 176.1 132.285 175.925 131.86C175.75 131.436 175.705 130.969 175.796 130.519C175.886 130.068 176.108 129.655 176.433 129.331C176.758 129.007 177.173 128.786 177.623 128.697C178.074 128.608 178.54 128.654 178.965 128.83C179.389 129.006 179.751 129.304 180.006 129.686C180.261 130.068 180.397 130.517 180.397 130.976C180.395 131.593 180.149 132.184 179.712 132.62C179.275 133.055 178.683 133.3 178.066 133.3Z" fill="white" stroke="#2E353A" stroke-width="0.916642" stroke-linecap="round" stroke-linejoin="round"/>
<path d="M178.066 123.221C177.903 123.221 177.747 123.156 177.632 123.041C177.517 122.926 177.452 122.77 177.452 122.607V116.857C177.452 116.694 177.517 116.538 177.632 116.423C177.747 116.308 177.903 116.243 178.066 116.243C178.23 116.243 178.387 116.307 178.503 116.422C178.62 116.537 178.686 116.694 178.688 116.857V122.607C178.686 122.77 178.62 122.927 178.503 123.042C178.387 123.157 178.23 123.221 178.066 123.221Z" fill="white" stroke="#2E353A" stroke-width="0.916642" stroke-linecap="round" stroke-linejoin="round"/>
<path d="M178.066 131.132C177.903 131.132 177.747 131.067 177.632 130.952C177.517 130.837 177.452 130.68 177.452 130.518V124.768C177.452 124.605 177.517 124.449 177.632 124.333C177.747 124.218 177.903 124.154 178.066 124.154C178.23 124.154 178.387 124.218 178.503 124.333C178.62 124.448 178.686 124.604 178.688 124.768V130.518C178.686 130.681 178.62 130.837 178.503 130.952C178.387 131.067 178.23 131.132 178.066 131.132Z" fill="white" stroke="#2E353A" stroke-width="0.916642" stroke-linecap="round" stroke-linejoin="round"/>
<path d="M178.066 139.057C177.903 139.057 177.747 138.993 177.632 138.877C177.517 138.762 177.452 138.606 177.452 138.443V132.693C177.452 132.613 177.468 132.533 177.499 132.458C177.53 132.384 177.575 132.316 177.632 132.259C177.689 132.202 177.757 132.157 177.831 132.126C177.906 132.095 177.986 132.079 178.066 132.079C178.23 132.079 178.387 132.144 178.503 132.259C178.62 132.374 178.686 132.53 178.688 132.693V138.443C178.686 138.607 178.62 138.763 178.503 138.878C178.387 138.993 178.23 139.057 178.066 139.057Z" fill="white" stroke="#2E353A" stroke-width="0.916642" stroke-linecap="round" stroke-linejoin="round"/>
<path d="M196.093 113.586H60.495L56.2326 101.805H205.454L196.093 113.586Z" fill="#2E353A" stroke="#2E353A" stroke-width="0.887535" stroke-linecap="round" stroke-linejoin="round"/>
<path d="M192.637 113.586H57.0392L52.7768 101.805H202.005L192.637 113.586Z" fill="white" stroke="#2E353A" stroke-width="0.887535" stroke-linecap="round" stroke-linejoin="round"/>
<path d="M82.2066 300.72H71.114L74.4662 69.1633H76.4346L82.2066 77.3552V300.72Z" fill="#2E353A" stroke="#2E353A" stroke-width="0.887535" stroke-linecap="round" stroke-linejoin="round"/>
<path d="M80.2308 300.72H69.1382V77.3552L74.4662 69.1633L80.2308 77.3552V300.72Z" fill="white" stroke="#2E353A" stroke-width="0.887535" stroke-linecap="round" stroke-linejoin="round"/>
<path d="M126.254 158.442V147.533H133.477V149.435H128.56V152.034H132.997V153.936H128.56V158.442H126.254ZM145.053 152.988C145.053 154.177 144.827 155.19 144.376 156.024C143.929 156.859 143.318 157.496 142.544 157.936C141.773 158.373 140.907 158.592 139.945 158.592C138.975 158.592 138.105 158.371 137.335 157.931C136.564 157.491 135.955 156.853 135.507 156.019C135.06 155.184 134.836 154.174 134.836 152.988C134.836 151.798 135.06 150.786 135.507 149.952C135.955 149.117 136.564 148.481 137.335 148.045C138.105 147.604 138.975 147.384 139.945 147.384C140.907 147.384 141.773 147.604 142.544 148.045C143.318 148.481 143.929 149.117 144.376 149.952C144.827 150.786 145.053 151.798 145.053 152.988ZM142.714 152.988C142.714 152.217 142.599 151.567 142.368 151.038C142.141 150.509 141.82 150.108 141.404 149.834C140.989 149.561 140.502 149.424 139.945 149.424C139.387 149.424 138.901 149.561 138.485 149.834C138.07 150.108 137.746 150.509 137.516 151.038C137.288 151.567 137.175 152.217 137.175 152.988C137.175 153.758 137.288 154.408 137.516 154.937C137.746 155.467 138.07 155.868 138.485 156.141C138.901 156.415 139.387 156.551 139.945 156.551C140.502 156.551 140.989 156.415 141.404 156.141C141.82 155.868 142.141 155.467 142.368 154.937C142.599 154.408 142.714 153.758 142.714 152.988ZM146.761 158.442V147.533H151.065C151.889 147.533 152.592 147.681 153.175 147.975C153.761 148.267 154.206 148.68 154.512 149.217C154.821 149.749 154.975 150.376 154.975 151.097C154.975 151.821 154.819 152.445 154.506 152.967C154.194 153.485 153.741 153.883 153.148 154.16C152.559 154.437 151.845 154.575 151.007 154.575H148.125V152.722H150.634C151.074 152.722 151.44 152.661 151.731 152.54C152.022 152.42 152.239 152.239 152.381 151.997C152.527 151.756 152.6 151.456 152.6 151.097C152.6 150.735 152.527 150.429 152.381 150.181C152.239 149.932 152.021 149.744 151.726 149.616C151.435 149.485 151.067 149.419 150.623 149.419H149.068V158.442H146.761ZM152.653 153.478L155.364 158.442H152.818L150.165 153.478H152.653Z" fill="white"/>
<path d="M129.089 172.436C129.046 172.006 128.863 171.672 128.54 171.434C128.217 171.197 127.778 171.078 127.224 171.078C126.848 171.078 126.53 171.131 126.271 171.237C126.012 171.34 125.813 171.484 125.674 171.669C125.539 171.853 125.472 172.063 125.472 172.297C125.465 172.493 125.506 172.663 125.594 172.809C125.687 172.954 125.813 173.08 125.973 173.187C126.132 173.29 126.317 173.38 126.527 173.459C126.736 173.533 126.96 173.597 127.198 173.65L128.178 173.885C128.654 173.991 129.09 174.133 129.488 174.311C129.886 174.488 130.23 174.707 130.522 174.966C130.813 175.225 131.038 175.531 131.198 175.882C131.361 176.234 131.445 176.637 131.448 177.091C131.445 177.759 131.274 178.338 130.937 178.828C130.603 179.314 130.12 179.693 129.488 179.962C128.86 180.229 128.101 180.362 127.214 180.362C126.333 180.362 125.566 180.227 124.913 179.957C124.263 179.687 123.755 179.288 123.389 178.759C123.027 178.226 122.837 177.567 122.819 176.782H125.051C125.076 177.148 125.181 177.454 125.365 177.699C125.554 177.94 125.804 178.123 126.116 178.247C126.432 178.368 126.789 178.428 127.187 178.428C127.578 178.428 127.917 178.372 128.204 178.258C128.496 178.144 128.721 177.986 128.881 177.784C129.041 177.581 129.121 177.349 129.121 177.086C129.121 176.841 129.048 176.635 128.902 176.468C128.76 176.301 128.551 176.159 128.274 176.042C128 175.925 127.665 175.818 127.267 175.722L126.079 175.424C125.159 175.2 124.433 174.851 123.9 174.375C123.368 173.899 123.103 173.258 123.107 172.452C123.103 171.791 123.279 171.214 123.634 170.721C123.993 170.227 124.485 169.842 125.11 169.565C125.735 169.288 126.445 169.149 127.24 169.149C128.05 169.149 128.757 169.288 129.36 169.565C129.968 169.842 130.44 170.227 130.777 170.721C131.115 171.214 131.289 171.786 131.299 172.436H129.089ZM134.631 180.208H132.16L135.925 169.298H138.898L142.658 180.208H140.187L137.454 171.791H137.369L134.631 180.208ZM134.477 175.92H140.315V177.72H134.477V175.92ZM143.971 180.208V169.298H146.278V178.306H150.955V180.208H143.971ZM152.482 180.208V169.298H159.833V171.2H154.789V173.799H159.455V175.701H154.789V178.306H159.854V180.208H152.482Z" fill="white"/>
<path d="M71.114 300.72V286.475" stroke="#2E353A" stroke-width="0.887535" stroke-linecap="round" stroke-linejoin="round"/>
<path d="M73.0528 300.719V248.69" stroke="#2E353A" stroke-width="0.887535" stroke-linecap="round" stroke-linejoin="round"/>
<path d="M71.114 284.314V279.134" stroke="#2E353A" stroke-width="0.887535" stroke-linecap="round" stroke-linejoin="round"/>
<path d="M76.6566 209.011V203.831" stroke="#2E353A" stroke-width="0.887535" stroke-linecap="round" stroke-linejoin="round"/>
<path d="M71.114 79.5677V74.3877" stroke="#2E353A" stroke-width="0.887535" stroke-linecap="round" stroke-linejoin="round"/>
<path d="M71.114 86.3904V81.2104" stroke="#2E353A" stroke-width="0.887535" stroke-linecap="round" stroke-linejoin="round"/>
<path d="M76.6566 241.852V214.827" stroke="#2E353A" stroke-width="0.887535" stroke-linecap="round" stroke-linejoin="round"/>
<path d="M53.8646 104.262H57.7496" stroke="#2E353A" stroke-width="0.887535" stroke-linecap="round" stroke-linejoin="round"/>
<path d="M55.5888 106.208H64.8758" stroke="#2E353A" stroke-width="0.887535" stroke-linecap="round" stroke-linejoin="round"/>
<path d="M90.1098 106.208H99.3894" stroke="#2E353A" stroke-width="0.887535" stroke-linecap="round" stroke-linejoin="round"/>
<path d="M94.7496 108.369H98.013" stroke="#2E353A" stroke-width="0.887535" stroke-linecap="round" stroke-linejoin="round"/>
<path d="M111.229 108.369H130.603" stroke="#2E353A" stroke-width="0.887535" stroke-linecap="round" stroke-linejoin="round"/>
<path d="M196.995 108.369H193.754" stroke="#2E353A" stroke-width="0.887535" stroke-linecap="round" stroke-linejoin="round"/>
<path d="M195.478 109.879H184.475" stroke="#2E353A" stroke-width="0.887535" stroke-linecap="round" stroke-linejoin="round"/>
<path d="M46.62 304.146H53.8794C53.8794 304.146 40.7 292.395 46.62 293.594C52.54 294.792 57.72 298.966 57.72 298.966C57.72 298.966 50.7196 292.38 55.5592 293.579C60.3988 294.778 60.199 296.761 60.199 296.761C60.199 296.761 60.5764 282.531 64.8462 286.46C67.325 288.627 68.8553 291.68 69.1086 294.963C69.1086 294.963 78.2328 283.678 80.2086 284.299C82.1844 284.921 82.1844 291.825 82.1844 291.825C82.1844 291.825 97.5098 279.334 94.7274 286.46C91.945 293.586 90.0876 296.265 90.0876 296.265C90.0876 296.265 97.2804 289.908 96.3628 293.579C95.971 295.35 95.4237 297.084 94.7274 298.759C94.7274 298.759 105.546 302.148 103.948 302.141C102.349 302.133 99.3672 304.19 99.3672 304.19C99.3672 304.19 117.638 301.23 114.167 304.19C110.697 307.15 82.1696 306.655 82.1696 306.655C82.1696 306.655 96.1038 310.066 90.1098 310.066C84.1158 310.066 74.6882 307.594 74.6882 307.594C74.6882 307.594 60.6282 310.554 55.5888 310.066C50.5494 309.578 64.8758 307.594 64.8758 307.594C64.8758 307.594 37.6142 307.624 46.62 304.146Z" fill="#2E353A" stroke="#2E353A" stroke-width="0.916642" stroke-linecap="round" stroke-linejoin="round"/>
</svg>
