<svg width="370" height="371" viewBox="0 0 370 371" fill="none" xmlns="http://www.w3.org/2000/svg">
<path d="M287.312 52.9338C287.312 52.9338 239.124 12.6476 178.199 27.0335C117.275 41.4193 74.074 98.0745 37.9324 142.941C1.7908 187.808 1.2654 246.498 35.1278 285.593C68.9902 324.688 105.406 298.233 162.06 316.807C218.714 335.381 231.62 349.678 287.12 331.533C342.62 313.388 371.902 233.763 350.538 159.303C329.174 84.8431 287.312 52.9338 287.312 52.9338Z" fill="#3B5FE2"/>
<path opacity="0.7" d="M287.312 52.9338C287.312 52.9338 239.124 12.6476 178.199 27.0335C117.275 41.4193 74.074 98.0745 37.9324 142.941C1.7908 187.808 1.2654 246.498 35.1278 285.593C68.9902 324.688 105.406 298.233 162.06 316.807C218.714 335.381 231.62 349.678 287.12 331.533C342.62 313.388 371.902 233.763 350.538 159.303C329.174 84.8431 287.312 52.9338 287.312 52.9338Z" fill="white"/>
<path d="M337.033 154.878C335.62 154.138 334.976 154.752 334.465 154.138C333.955 153.523 335.879 151.829 332.031 150.156C332.031 150.156 331.772 146.567 326.51 146.456C321.249 146.345 322.662 150.045 321.256 150.941C319.85 151.836 319.458 150.43 318.045 151.326C316.631 152.221 317.305 154.019 316.121 154.286C314.937 154.552 313.427 153.131 312.014 154.027C310.6 154.922 310.608 155.699 309.964 155.699C309.32 155.699 308.04 155.188 307.27 155.699C306.501 156.21 305.605 156.853 305.605 156.853H338.062C338.166 156.455 338.119 156.032 337.929 155.667C337.738 155.302 337.419 155.02 337.033 154.878Z" stroke="#92989B" stroke-width="0.983633" stroke-linecap="round" stroke-linejoin="round"/>
<path d="M317.83 154.352C317.648 154.457 317.457 154.546 317.26 154.619" stroke="#92989B" stroke-width="0.983633" stroke-linecap="round" stroke-linejoin="round"/>
<path d="M324.779 148.358C324.461 148.501 324.182 148.717 323.963 148.989C323.745 149.26 323.593 149.579 323.521 149.92C323.291 151.096 322.736 151.881 322.115 151.955C321.493 152.029 319.155 151.799 318.748 152.695C318.642 152.946 318.568 153.209 318.526 153.479" stroke="#92989B" stroke-width="0.983633" stroke-linecap="round" stroke-linejoin="round"/>
<path d="M314.581 154.064H316.831" stroke="#92989B" stroke-width="0.983633" stroke-linecap="round" stroke-linejoin="round"/>
<path d="M334.48 154.063H349.65C349.65 154.063 350.871 150.408 346.401 147.973C341.932 145.538 339.897 147.566 338.261 145.531C336.626 143.496 342.701 138.212 330.543 132.951C330.543 132.951 329.729 121.57 313.064 121.163C296.4 120.756 300.869 132.544 296.4 135.393C291.93 138.242 290.709 133.765 286.239 136.614C281.77 139.463 283.797 145.146 280.142 145.96C276.486 146.774 271.58 142.282 267.14 145.124C262.7 147.966 262.7 150.408 260.635 150.408C258.571 150.408 254.538 148.78 252.103 150.408C249.669 152.036 246.82 154.063 246.82 154.063H312.028" stroke="#92989B" stroke-width="0.983633" stroke-linecap="round" stroke-linejoin="round"/>
<path d="M285.551 146.301C284.969 146.631 284.363 146.918 283.738 147.159" stroke="#92989B" stroke-width="0.983633" stroke-linecap="round" stroke-linejoin="round"/>
<path d="M287.756 143.444C287.89 142.591 288.123 141.756 288.452 140.958C289.695 138.227 297.132 138.975 299.115 138.738C301.099 138.501 302.815 136.007 303.555 132.293C303.773 131.209 304.247 130.193 304.937 129.329C305.627 128.466 306.513 127.779 307.522 127.327" stroke="#92989B" stroke-width="0.983633" stroke-linecap="round" stroke-linejoin="round"/>
<path d="M105.998 77.554C104.939 76.9768 104.458 77.4578 104.074 76.9768C103.689 76.4958 105.132 75.2452 102.246 74.0168C102.246 74.0168 102.053 71.3232 98.1092 71.2196C94.165 71.116 95.2232 73.9206 94.165 74.594C93.1068 75.2674 92.8108 74.2092 91.7526 74.8826C90.6944 75.556 91.1754 76.9028 90.3096 77.1026C89.4438 77.3024 88.2894 76.2368 87.2312 76.9102C86.173 77.5836 86.173 78.1608 85.692 78.1608C85.211 78.1608 84.212 77.776 83.6718 78.1608C83.1316 78.5456 82.4212 79.0266 82.4212 79.0266H106.767C106.843 78.7294 106.807 78.4147 106.665 78.1428C106.522 77.871 106.285 77.6613 105.998 77.554Z" stroke="#92989B" stroke-width="0.983633" stroke-linecap="round" stroke-linejoin="round"/>
<path d="M91.5972 77.1545C91.4577 77.2307 91.3144 77.2999 91.168 77.3617" stroke="#92989B" stroke-width="0.983633" stroke-linecap="round" stroke-linejoin="round"/>
<path d="M96.8068 72.6626C96.5673 72.7691 96.357 72.9315 96.1934 73.1363C96.0299 73.3411 95.9179 73.5821 95.867 73.8392C95.6894 74.7198 95.275 75.3192 94.8088 75.3636C94.3426 75.408 92.5888 75.2452 92.2854 75.889C92.2058 76.079 92.1487 76.2777 92.1152 76.481" stroke="#92989B" stroke-width="0.983633" stroke-linecap="round" stroke-linejoin="round"/>
<path d="M89.1552 76.9473H90.8498" stroke="#92989B" stroke-width="0.983633" stroke-linecap="round" stroke-linejoin="round"/>
<path d="M104.074 76.9691H115.44C115.44 76.9691 116.35 74.2237 112.998 72.3959C109.646 70.5681 108.121 72.0851 106.9 70.5681C105.679 69.0511 110.253 65.0773 101.106 61.1109C101.106 61.1109 100.499 52.5787 88.0008 52.2309C75.5022 51.8831 78.8692 60.7853 75.48 62.9091C72.0908 65.0329 71.2176 61.6955 67.858 63.8267C64.4984 65.9579 66.0302 70.2277 63.2848 70.8419C60.5394 71.4561 56.9134 68.0891 53.5612 70.2351C50.209 72.3811 50.209 74.2015 48.6846 74.2015C47.1602 74.2015 44.1114 72.9805 42.2762 74.2015C40.441 75.4225 38.3172 76.9691 38.3172 76.9691H87.2312" stroke="#92989B" stroke-width="0.983633" stroke-linecap="round" stroke-linejoin="round"/>
<path d="M67.3844 71.116C66.9475 71.3647 66.4923 71.5799 66.0228 71.7598" stroke="#92989B" stroke-width="0.983633" stroke-linecap="round" stroke-linejoin="round"/>
<path d="M69.0346 68.9769C69.1322 68.3361 69.3087 67.7097 69.56 67.1121C70.485 65.0623 76.072 65.6322 77.5594 65.4324C79.0468 65.2326 80.3492 63.3899 80.9042 60.6001C81.0711 59.7938 81.4262 59.0383 81.9406 58.3953C82.455 57.7523 83.1141 57.24 83.8642 56.9001" stroke="#92989B" stroke-width="0.983633" stroke-linecap="round" stroke-linejoin="round"/>
<path d="M66.9626 202.119C66.9626 202.119 77.3226 203.148 82.6136 209.586C82.6136 209.586 88.171 202.127 98.1536 202.282C100.595 199.338 102.15 195.761 102.638 191.968C103.125 188.174 102.525 184.32 100.907 180.854C99.2887 177.389 96.7193 174.454 93.4979 172.392C90.2765 170.33 86.5357 169.226 82.7109 169.208C78.8862 169.19 75.1351 170.259 71.8943 172.29C68.6534 174.321 66.0564 177.231 64.4054 180.681C62.7545 184.131 62.1177 187.98 62.5691 191.778C63.0205 195.576 64.5416 199.167 66.9552 202.134L66.9626 202.119Z" fill="#3B5FE2"/>
<path opacity="0.2" d="M66.9626 202.119C66.9626 202.119 77.3226 203.148 82.6136 209.586C82.6136 209.586 88.171 202.127 98.1536 202.282C100.595 199.338 102.15 195.761 102.638 191.968C103.125 188.174 102.525 184.32 100.907 180.854C99.2887 177.389 96.7193 174.454 93.4979 172.392C90.2765 170.33 86.5357 169.226 82.7109 169.208C78.8862 169.19 75.1351 170.259 71.8943 172.29C68.6534 174.321 66.0564 177.231 64.4054 180.681C62.7545 184.131 62.1177 187.98 62.5691 191.778C63.0205 195.576 64.5416 199.167 66.9552 202.134L66.9626 202.119Z" fill="white"/>
<path d="M83.2944 230.21L82.2658 178.277L82.0142 230.743L83.2944 230.21Z" fill="#828282"/>
<path d="M82.7912 207.625C82.7912 207.625 86.2988 201.313 92.611 199.382C92.611 199.382 85.951 200.965 82.621 206.397L82.7912 207.625Z" fill="#828282"/>
<path d="M82.5322 190.095C82.5322 190.095 86.2988 183.435 92.611 181.503C92.611 181.503 85.8844 183.338 82.5544 188.77L82.5322 190.095Z" fill="#828282"/>
<path d="M82.6358 198.908C82.6358 198.908 86.3358 192.374 92.611 190.443C92.611 190.443 85.951 192.026 82.621 197.458L82.6358 198.908Z" fill="#828282"/>
<path d="M82.2732 194.305C82.2732 194.305 78.8914 187.993 72.8012 186.062C72.8012 186.062 79.2318 187.638 82.4212 193.077L82.2732 194.305Z" fill="#828282"/>
<path d="M82.2732 203.067C82.2732 203.067 78.8914 196.755 72.8012 194.831C72.8012 194.831 79.2318 196.407 82.4212 201.839L82.2732 203.067Z" fill="#828282"/>
<path d="M320.99 225.659C320.99 225.659 331.35 226.681 336.633 233.119C336.633 233.119 342.198 225.667 352.173 225.815C354.611 222.87 356.161 219.295 356.645 215.503C357.13 211.712 356.527 207.861 354.908 204.399C353.289 200.937 350.72 198.006 347.5 195.946C344.28 193.887 340.541 192.785 336.719 192.768C332.897 192.751 329.149 193.819 325.91 195.849C322.672 197.879 320.076 200.787 318.426 204.235C316.776 207.682 316.139 211.527 316.589 215.323C317.039 219.118 318.557 222.708 320.968 225.674L320.99 225.659Z" fill="#3B5FE2"/>
<path opacity="0.2" d="M320.99 225.659C320.99 225.659 331.35 226.681 336.633 233.119C336.633 233.119 342.198 225.667 352.173 225.815C354.611 222.87 356.161 219.295 356.645 215.503C357.13 211.712 356.527 207.861 354.908 204.399C353.289 200.937 350.72 198.006 347.5 195.946C344.28 193.887 340.541 192.785 336.719 192.768C332.897 192.751 329.149 193.819 325.91 195.849C322.672 197.879 320.076 200.787 318.426 204.235C316.776 207.682 316.139 211.527 316.589 215.323C317.039 219.118 318.557 222.708 320.968 225.674L320.99 225.659Z" fill="white"/>
<path d="M337.322 253.742L336.293 201.809L336.041 254.275L337.322 253.742Z" fill="#828282"/>
<path d="M336.818 231.158C336.818 231.158 340.326 224.846 346.638 222.922C346.638 222.922 339.978 224.498 336.641 229.929L336.818 231.158Z" fill="#828282"/>
<path d="M336.559 213.627C336.559 213.627 340.326 206.967 346.638 205.043C346.638 205.043 339.912 206.871 336.582 212.302L336.559 213.627Z" fill="#828282"/>
<path d="M336.7 222.448C336.7 222.448 340.363 215.906 346.675 213.982C346.675 213.982 340.015 215.559 336.678 220.99L336.7 222.448Z" fill="#828282"/>
<path d="M336.3 217.838C336.3 217.838 332.919 211.526 326.828 209.602C326.828 209.602 333.252 211.178 336.448 216.609L336.3 217.838Z" fill="#828282"/>
<path d="M336.3 226.599C336.3 226.599 332.919 220.295 326.828 218.363C326.828 218.363 333.252 219.939 336.448 225.378L336.3 226.599Z" fill="#828282"/>
<path d="M77.6186 178.928C77.6186 178.928 98.5754 181 109.194 193.987C109.194 193.987 120.413 178.943 140.563 179.254C145.478 173.315 148.605 166.104 149.581 158.457C150.558 150.811 149.342 143.045 146.077 136.062C142.812 129.08 137.631 123.168 131.137 119.015C124.644 114.862 117.104 112.638 109.396 112.603C101.688 112.567 94.1279 114.722 87.5963 118.815C81.0647 122.908 75.8298 128.772 72.5007 135.725C69.1716 142.677 67.8852 150.432 68.7913 158.087C69.6973 165.742 72.7585 172.982 77.6186 178.965V178.928Z" fill="#3B5FE2"/>
<path opacity="0.4" d="M77.6186 178.928C77.6186 178.928 98.5754 181 109.194 193.987C109.194 193.987 120.413 178.943 140.563 179.254C145.478 173.315 148.605 166.104 149.581 158.457C150.558 150.811 149.342 143.045 146.077 136.062C142.812 129.08 137.631 123.168 131.137 119.015C124.644 114.862 117.104 112.638 109.396 112.603C101.688 112.567 94.1279 114.722 87.5963 118.815C81.0647 122.908 75.8298 128.772 72.5007 135.725C69.1716 142.677 67.8852 150.432 68.7913 158.087C69.6973 165.742 72.7585 172.982 77.6186 178.965V178.928Z" fill="white"/>
<path d="M110.571 235.598L108.499 130.82L107.988 236.679L110.571 235.598Z" fill="#828282"/>
<path d="M109.564 190.028C109.564 190.028 116.631 177.3 129.367 173.407C129.367 173.407 115.928 176.589 109.209 187.556L109.564 190.028Z" fill="#828282"/>
<path d="M109.032 154.67C109.032 154.67 116.631 141.232 129.367 137.347C129.367 137.347 115.803 141.047 109.083 151.999L109.032 154.67Z" fill="#828282"/>
<path d="M109.239 172.43C109.239 172.43 116.639 159.251 129.367 155.359C129.367 155.359 115.928 158.541 109.209 169.507L109.239 172.43Z" fill="#828282"/>
<path d="M108.514 163.151C108.514 163.151 101.691 150.423 89.4068 146.53C89.4068 146.53 102.372 149.712 108.854 160.679L108.514 163.151Z" fill="#828282"/>
<path d="M108.514 180.837C108.514 180.837 101.691 168.102 89.4068 164.217C89.4068 164.217 102.372 167.399 108.854 178.358L108.514 180.837Z" fill="#828282"/>
<path d="M130.906 180.053H129.263V219.465H130.906V180.053Z" fill="white" stroke="#636363" stroke-width="0.983633" stroke-miterlimit="10"/>
<path d="M329.626 195.926H327.983V235.338H329.626V195.926Z" fill="white" stroke="#636363" stroke-width="0.983633" stroke-miterlimit="10"/>
<path d="M326.34 198.116H199.334V249.576H326.34V198.116Z" fill="white" stroke="#636363" stroke-width="0.983633" stroke-miterlimit="10"/>
<path d="M326.34 198.116H199.334V203.045H326.34V198.116Z" fill="#636363" stroke="#636363" stroke-width="0.983633" stroke-miterlimit="10"/>
<path d="M331.816 193.735H199.881V161.442H311.562L331.816 193.735Z" fill="#636363" stroke="#636363" stroke-width="0.983633" stroke-miterlimit="10"/>
<path d="M331.809 193.736H198.786V199.759H331.809V193.736Z" fill="white" stroke="#636363" stroke-width="0.983633" stroke-miterlimit="10"/>
<path d="M221.882 181.17H132.874V224.224H221.882V181.17Z" fill="white" stroke="#636363" stroke-width="0.983633" stroke-miterlimit="10"/>
<path d="M221.882 181.17H132.874V185.529H221.882V181.17Z" fill="#636363" stroke="#636363" stroke-width="0.983633" stroke-miterlimit="10"/>
<path d="M176.349 137.288L127.909 173.718H224.782L176.349 137.288Z" fill="white" stroke="#636363" stroke-width="0.983633" stroke-miterlimit="10"/>
<path d="M176.349 142.253L137.818 171.232H214.874L176.349 142.253Z" fill="#636363" stroke="#636363" stroke-width="0.983633" stroke-miterlimit="10"/>
<path d="M67.8802 241.614H62.086V308.932H67.8802V241.614Z" fill="white" stroke="#636363" stroke-width="0.983633" stroke-miterlimit="10"/>
<path d="M344.426 241.614H76.1608V308.732H344.426V241.614Z" fill="white" stroke="#636363" stroke-width="0.983633" stroke-miterlimit="10"/>
<path d="M344.426 241.614H76.1608V249.029H344.426V241.614Z" fill="#636363" stroke="#636363" stroke-width="0.983633" stroke-miterlimit="10"/>
<path d="M236.378 239.542H54.6342L69.9522 219.673H236.378V239.542Z" fill="#636363" stroke="#636363" stroke-width="0.983633" stroke-miterlimit="10"/>
<path d="M202.427 239.542H54.6342V243.679H202.427V239.542Z" fill="white" stroke="#636363" stroke-width="0.983633" stroke-miterlimit="10"/>
<path d="M344.426 239.542H194.561V308.732H344.426V239.542Z" fill="white" stroke="#636363" stroke-width="0.983633" stroke-miterlimit="10"/>
<path d="M340.578 243.553H198.416V308.732H340.578V243.553Z" fill="#636363" stroke="#636363" stroke-width="0.983633" stroke-miterlimit="10"/>
<path d="M328.693 252.789H210.293V308.733H328.693V252.789Z" fill="white" stroke="#636363" stroke-width="0.983633" stroke-miterlimit="10"/>
<path d="M240.115 270.342H213.379V280.887H240.115V270.342Z" stroke="#A6A6A6" stroke-width="0.983633" stroke-linecap="round" stroke-linejoin="round"/>
<path d="M268.657 270.342H241.921V280.887H268.657V270.342Z" stroke="#A6A6A6" stroke-width="0.983633" stroke-linecap="round" stroke-linejoin="round"/>
<path d="M240.115 282.937H213.379V293.482H240.115V282.937Z" stroke="#A6A6A6" stroke-width="0.983633" stroke-linecap="round" stroke-linejoin="round"/>
<path d="M268.657 282.937H241.921V293.482H268.657V282.937Z" stroke="#A6A6A6" stroke-width="0.983633" stroke-linecap="round" stroke-linejoin="round"/>
<path d="M240.115 295.539H213.379V306.084H240.115V295.539Z" stroke="#A6A6A6" stroke-width="0.983633" stroke-linecap="round" stroke-linejoin="round"/>
<path d="M268.657 295.539H241.921V306.084H268.657V295.539Z" stroke="#A6A6A6" stroke-width="0.983633" stroke-linecap="round" stroke-linejoin="round"/>
<path d="M297.199 270.342H270.463V280.887H297.199V270.342Z" stroke="#A6A6A6" stroke-width="0.983633" stroke-linecap="round" stroke-linejoin="round"/>
<path d="M325.741 270.342H299.004V280.887H325.741V270.342Z" stroke="#A6A6A6" stroke-width="0.983633" stroke-linecap="round" stroke-linejoin="round"/>
<path d="M297.199 282.937H270.463V293.482H297.199V282.937Z" stroke="#A6A6A6" stroke-width="0.983633" stroke-linecap="round" stroke-linejoin="round"/>
<path d="M325.741 282.937H299.004V293.482H325.741V282.937Z" stroke="#A6A6A6" stroke-width="0.983633" stroke-linecap="round" stroke-linejoin="round"/>
<path d="M297.199 295.539H270.463V306.084H297.199V295.539Z" stroke="#A6A6A6" stroke-width="0.983633" stroke-linecap="round" stroke-linejoin="round"/>
<path d="M325.741 295.539H299.004V306.084H325.741V295.539Z" stroke="#A6A6A6" stroke-width="0.983633" stroke-linecap="round" stroke-linejoin="round"/>
<path d="M267.836 172.86L188.767 240.37H346.912L267.836 172.86Z" fill="white" stroke="#636363" stroke-width="0.983633" stroke-miterlimit="10"/>
<path d="M267.836 182.066L204.943 235.767H330.736L267.836 182.066Z" fill="#636363" stroke="#636363" stroke-width="0.983633" stroke-miterlimit="10"/>
<path d="M226.026 173.718H127.909V181.584H226.026V173.718Z" fill="white" stroke="#636363" stroke-width="0.983633" stroke-miterlimit="10"/>
<path d="M206.149 183.657H148.192V217.186H206.149V183.657Z" fill="#636363" stroke="#636363" stroke-width="0.983633" stroke-miterlimit="10"/>
<path d="M197.869 183.657H156.473V217.186H197.869V183.657Z" fill="white" stroke="#636363" stroke-width="0.983633" stroke-miterlimit="10"/>
<path d="M178.836 183.657H175.521V217.186H178.836V183.657Z" fill="#636363" stroke="#636363" stroke-width="0.983633" stroke-miterlimit="10"/>
<path d="M197.669 201.868V198.968H156.688V201.868H197.669Z" fill="#636363" stroke="#636363" stroke-width="0.983633" stroke-miterlimit="10"/>
<path d="M146.535 256.518H88.578V297.914H146.535V256.518Z" fill="#636363" stroke="#636363" stroke-width="0.983633" stroke-miterlimit="10"/>
<path d="M138.254 256.518H96.8586V297.914H138.254V256.518Z" fill="white" stroke="#636363" stroke-width="0.983633" stroke-miterlimit="10"/>
<path d="M119.221 256.518H115.906V297.914H119.221V256.518Z" fill="#636363" stroke="#636363" stroke-width="0.983633" stroke-miterlimit="10"/>
<path d="M138.18 279.007V275.433H97.0658V279.007H138.18Z" fill="#636363" stroke="#636363" stroke-width="0.983633" stroke-miterlimit="10"/>
<path d="M187.523 257.347H165.168V308.266H187.523V257.347Z" fill="#636363" stroke="#636363" stroke-width="0.983633" stroke-miterlimit="10"/>
<path d="M183.801 260.522H168.898V299.979H183.801V260.522Z" fill="white"/>
<path d="M216.975 258.59H213.076V260.788H216.975V258.59Z" fill="#636363"/>
<path d="M222.599 258.59H218.7V260.788H222.599V258.59Z" fill="#636363"/>
<path d="M216.975 261.987H213.076V264.74H216.975V261.987Z" fill="#636363"/>
<path d="M222.599 261.987H218.7V264.74H222.599V261.987Z" fill="#636363"/>
<path d="M231.664 258.59H227.765V260.788H231.664V258.59Z" fill="#636363"/>
<path d="M237.288 258.59H233.389V260.788H237.288V258.59Z" fill="#636363"/>
<path d="M231.664 261.987H227.765V264.74H231.664V261.987Z" fill="#636363"/>
<path d="M237.288 261.987H233.389V264.74H237.288V261.987Z" fill="#636363"/>
<path d="M246.353 258.59H242.454V260.788H246.353V258.59Z" fill="#636363"/>
<path d="M251.97 258.59H248.07V260.788H251.97V258.59Z" fill="#636363"/>
<path d="M246.353 261.987H242.454V264.74H246.353V261.987Z" fill="#636363"/>
<path d="M251.97 261.987H248.07V264.74H251.97V261.987Z" fill="#636363"/>
<path d="M261.035 258.59H257.135V260.788H261.035V258.59Z" fill="#636363"/>
<path d="M266.659 258.59H262.759V260.788H266.659V258.59Z" fill="#636363"/>
<path d="M261.035 261.987H257.135V264.74H261.035V261.987Z" fill="#636363"/>
<path d="M266.659 261.987H262.759V264.74H266.659V261.987Z" fill="#636363"/>
<path d="M275.724 258.59H271.824V260.788H275.724V258.59Z" fill="#636363"/>
<path d="M281.348 258.59H277.448V260.788H281.348V258.59Z" fill="#636363"/>
<path d="M275.724 261.987H271.824V264.74H275.724V261.987Z" fill="#636363"/>
<path d="M281.348 261.987H277.448V264.74H281.348V261.987Z" fill="#636363"/>
<path d="M290.413 258.59H286.513V260.788H290.413V258.59Z" fill="#636363"/>
<path d="M296.037 258.59H292.137V260.788H296.037V258.59Z" fill="#636363"/>
<path d="M290.413 261.987H286.513V264.74H290.413V261.987Z" fill="#636363"/>
<path d="M296.037 261.987H292.137V264.74H296.037V261.987Z" fill="#636363"/>
<path d="M305.102 258.59H301.202V260.788H305.102V258.59Z" fill="#636363"/>
<path d="M310.719 258.59H306.819V260.788H310.719V258.59Z" fill="#636363"/>
<path d="M305.102 261.987H301.202V264.74H305.102V261.987Z" fill="#636363"/>
<path d="M310.719 261.987H306.819V264.74H310.719V261.987Z" fill="#636363"/>
<path d="M319.784 258.59H315.884V260.788H319.784V258.59Z" fill="#636363"/>
<path d="M325.408 258.59H321.508V260.788H325.408V258.59Z" fill="#636363"/>
<path d="M319.784 261.987H315.884V264.74H319.784V261.987Z" fill="#636363"/>
<path d="M325.408 261.987H321.508V264.74H325.408V261.987Z" fill="#636363"/>
<path d="M283.235 18.7971H110.593C104.36 18.7971 99.308 23.8497 99.308 30.0823V115.968C99.308 122.201 104.36 127.253 110.593 127.253H283.235C289.468 127.253 294.52 122.201 294.52 115.968V30.0823C294.52 23.8497 289.468 18.7971 283.235 18.7971Z" fill="white" stroke="#263238" stroke-miterlimit="10"/>
<path d="M111.118 68.089C111.118 68.089 118.126 68.7846 121.671 73.1284C122.947 71.5822 124.55 70.3382 126.364 69.486C128.178 68.6338 130.159 68.1946 132.164 68.2C133.81 66.2147 134.859 63.8027 135.188 61.2447C135.517 58.6867 135.112 56.0879 134.022 53.7508C132.931 51.4136 131.199 49.4343 129.028 48.0431C126.856 46.6519 124.334 45.9061 121.755 45.8925C119.176 45.8789 116.646 46.5981 114.46 47.9663C112.273 49.3345 110.521 51.2955 109.406 53.621C108.29 55.9465 107.859 58.5409 108.161 61.1022C108.463 63.6636 109.486 66.0865 111.111 68.089H111.118Z" fill="#3B5FE2"/>
<path opacity="0.2" d="M111.118 68.089C111.118 68.089 118.126 68.7846 121.671 73.1284C122.947 71.5822 124.55 70.3382 126.364 69.486C128.178 68.6338 130.159 68.1946 132.164 68.2C133.81 66.2147 134.859 63.8027 135.188 61.2447C135.517 58.6867 135.112 56.0879 134.022 53.7508C132.931 51.4136 131.199 49.4343 129.028 48.0431C126.856 46.6519 124.334 45.9061 121.755 45.8925C119.176 45.8789 116.646 46.5981 114.46 47.9663C112.273 49.3345 110.521 51.2955 109.406 53.621C108.29 55.9465 107.859 58.5409 108.161 61.1022C108.463 63.6636 109.486 66.0865 111.111 68.089H111.118Z" fill="white"/>
<path d="M122.137 87.0329L121.441 51.9939L121.271 87.3955L122.137 87.0329Z" fill="#828282"/>
<path d="M121.797 71.7891C121.797 71.7891 124.165 67.5267 128.42 66.2317C128.42 66.2317 123.928 67.2899 121.678 70.9603L121.797 71.7891Z" fill="#828282"/>
<path d="M121.619 59.949C121.619 59.949 124.165 55.4498 128.42 54.1548C128.42 54.1548 123.883 55.3832 121.634 59.0536L121.619 59.949Z" fill="#828282"/>
<path d="M121.693 65.9134C121.693 65.9134 124.165 61.4734 128.42 60.208C128.42 60.208 123.928 61.2662 121.678 64.9366L121.693 65.9134Z" fill="#828282"/>
<path d="M121.449 62.8054C121.449 62.8054 119.162 58.5504 115.055 57.248C115.055 57.248 119.392 58.3136 121.56 61.9766L121.449 62.8054Z" fill="#828282"/>
<path d="M121.449 68.718C121.449 68.718 119.162 64.463 115.055 63.1606C115.055 63.1606 119.392 64.2262 121.56 67.8892L121.449 68.718Z" fill="#828282"/>
<path d="M263.973 54.2505C263.973 54.2505 270.981 54.9461 274.533 59.2899C275.807 57.7442 277.409 56.5006 279.222 55.6483C281.035 54.7961 283.015 54.3566 285.018 54.3615C286.665 52.3754 287.713 49.9626 288.041 47.404C288.369 44.8453 287.963 42.2462 286.871 39.9091C285.779 37.572 284.046 35.5932 281.873 34.203C279.7 32.8129 277.177 32.0686 274.597 32.0568C272.018 32.045 269.488 32.7662 267.302 34.1364C265.117 35.5067 263.366 37.4696 262.252 39.7966C261.139 42.1235 260.71 44.7189 261.014 47.2804C261.319 49.8419 262.345 52.2642 263.973 54.2653V54.2505Z" fill="#3B5FE2"/>
<path opacity="0.2" d="M263.973 54.2505C263.973 54.2505 270.981 54.9461 274.533 59.2899C275.807 57.7442 277.409 56.5006 279.222 55.6483C281.035 54.7961 283.015 54.3566 285.018 54.3615C286.665 52.3754 287.713 49.9626 288.041 47.404C288.369 44.8453 287.963 42.2462 286.871 39.9091C285.779 37.572 284.046 35.5932 281.873 34.203C279.7 32.8129 277.177 32.0686 274.597 32.0568C272.018 32.045 269.488 32.7662 267.302 34.1364C265.117 35.5067 263.366 37.4696 262.252 39.7966C261.139 42.1235 260.71 44.7189 261.014 47.2804C261.319 49.8419 262.345 52.2642 263.973 54.2653V54.2505Z" fill="white"/>
<path d="M274.991 73.2021L274.296 38.1631L274.126 73.5647L274.991 73.2021Z" fill="#828282"/>
<path d="M274.651 57.9658C274.651 57.9658 277.019 53.7108 281.311 52.4084C281.311 52.4084 276.819 53.474 274.57 57.137L274.651 57.9658Z" fill="#828282"/>
<path d="M274.473 46.1404C274.473 46.1404 277.019 41.6412 281.274 40.3462C281.274 40.3462 276.738 41.5746 274.496 45.245L274.473 46.1404Z" fill="#828282"/>
<path d="M274.54 52.0826C274.54 52.0826 277.012 47.6426 281.267 46.3772C281.267 46.3772 276.775 47.4428 274.525 51.1058L274.54 52.0826Z" fill="#828282"/>
<path d="M274.303 48.9746C274.303 48.9746 272.024 44.7196 267.91 43.4172C267.91 43.4172 272.246 44.4828 274.414 48.1458L274.303 48.9746Z" fill="#828282"/>
<path d="M274.303 54.8875C274.303 54.8875 272.024 50.6325 267.91 49.3301C267.91 49.3301 272.246 50.3957 274.414 54.0661L274.303 54.8875Z" fill="#828282"/>
<path d="M118.977 52.075C118.977 52.075 128.538 53.0222 133.385 58.9496C135.126 56.8394 137.313 55.1416 139.789 53.9785C142.265 52.8153 144.968 52.2158 147.704 52.223C149.949 49.5119 151.378 46.219 151.824 42.7276C152.27 39.2361 151.715 35.6898 150.224 32.5013C148.733 29.3128 146.367 26.6134 143.402 24.7173C140.436 22.8212 136.993 21.8064 133.474 21.7909C129.954 21.7755 126.502 22.7602 123.52 24.6302C120.538 26.5003 118.149 29.1789 116.63 32.3542C115.111 35.5295 114.525 39.0708 114.941 42.566C115.356 46.0613 116.756 49.3666 118.977 52.0972V52.075Z" fill="#3B5FE2"/>
<path opacity="0.4" d="M118.977 52.075C118.977 52.075 128.538 53.0222 133.385 58.9496C135.126 56.8394 137.313 55.1416 139.789 53.9785C142.265 52.8153 144.968 52.2158 147.704 52.223C149.949 49.5119 151.378 46.219 151.824 42.7276C152.27 39.2361 151.715 35.6898 150.224 32.5013C148.733 29.3128 146.367 26.6134 143.402 24.7173C140.436 22.8212 136.993 21.8064 133.474 21.7909C129.954 21.7755 126.502 22.7602 123.52 24.6302C120.538 26.5003 118.149 29.1789 116.63 32.3542C115.111 35.5295 114.525 39.0708 114.941 42.566C115.356 46.0613 116.756 49.3666 118.977 52.0972V52.075Z" fill="white"/>
<path d="M134.014 77.9379L133.074 30.1265L132.837 78.4263L134.014 77.9379Z" fill="#828282"/>
<path d="M133.555 57.1443C133.555 57.1443 136.782 51.3353 142.591 49.5593C142.591 49.5593 136.463 51.0393 133.392 56.0121L133.555 57.1443Z" fill="#828282"/>
<path d="M133.311 41.0045C133.311 41.0045 136.782 34.8773 142.591 33.1013C142.591 33.1013 136.404 34.7811 133.333 39.7613L133.311 41.0045Z" fill="#828282"/>
<path d="M133.407 49.1225C133.407 49.1225 136.782 43.1063 142.591 41.3303C142.591 41.3303 136.463 42.8103 133.392 47.7831L133.407 49.1225Z" fill="#828282"/>
<path d="M133.074 44.8824C133.074 44.8824 129.959 39.0734 124.357 37.2974C124.357 37.2974 130.277 38.7774 133.237 43.7502L133.074 44.8824Z" fill="#828282"/>
<path d="M133.074 52.9485C133.074 52.9485 129.959 47.1395 124.357 45.3635C124.357 45.3635 130.277 46.8435 133.237 51.8163L133.074 52.9485Z" fill="#828282"/>
<path d="M109.069 111.358H289.288" stroke="#263238" stroke-width="0.983633" stroke-miterlimit="10"/>
<path d="M193.695 85.4795H120.028V111.32H193.695V85.4795Z" fill="#3B5FE2" stroke="#263238" stroke-width="0.983633" stroke-miterlimit="10"/>
<path d="M189.536 85.4795H124.179V111.32H189.536V85.4795Z" fill="white" stroke="#263238" stroke-width="0.983633" stroke-miterlimit="10"/>
<path d="M137.063 89.6975V111.283" stroke="#263238" stroke-width="0.983633" stroke-miterlimit="10"/>
<path d="M162.844 89.6975V111.283" stroke="#263238" stroke-width="0.983633" stroke-miterlimit="10"/>
<path d="M172.509 89.6975V111.283" stroke="#263238" stroke-width="0.983633" stroke-miterlimit="10"/>
<path d="M182.181 89.6975V111.283" stroke="#263238" stroke-width="0.983633" stroke-miterlimit="10"/>
<path d="M124.172 94.7295H189.618" stroke="#263238" stroke-width="0.983633" stroke-miterlimit="10"/>
<path d="M124.172 100.435H189.618" stroke="#263238" stroke-width="0.983633" stroke-miterlimit="10"/>
<path d="M124.172 106.377H189.618" stroke="#263238" stroke-width="0.983633" stroke-miterlimit="10"/>
<path d="M154.556 85.4795H149.961V111.32H154.556V85.4795Z" fill="#3B5FE2" stroke="#263238" stroke-width="0.983633" stroke-miterlimit="10"/>
<path d="M112.665 89.3125H196.448V69.7617H130.159L112.665 89.3125Z" fill="#263238" stroke="#263238" stroke-width="0.983633" stroke-miterlimit="10"/>
<path d="M139.364 68.9918H196.877V52.0532H153.173L139.364 68.9918Z" fill="white" stroke="#263238" stroke-width="0.983633" stroke-miterlimit="10"/>
<path d="M164.221 59.4089H139.823V73.2099H164.221V59.4089Z" fill="#3B5FE2" stroke="#263238" stroke-width="0.983633" stroke-miterlimit="10"/>
<path d="M149.473 65.1587H141.666V71.2933H149.473V65.1587Z" fill="white" stroke="#263238" stroke-width="0.983633" stroke-miterlimit="10"/>
<path d="M159.618 65.1587H151.811V71.2933H159.618V65.1587Z" fill="white" stroke="#263238" stroke-width="0.983633" stroke-miterlimit="10"/>
<path d="M133.836 63.6268H197.365V46.6882H149.095L133.836 63.6268Z" fill="#263238" stroke="#263238" stroke-width="0.983633" stroke-miterlimit="10"/>
<path d="M251.696 73.2102H276.094V59.4092H251.696V73.2102Z" fill="#3B5FE2" stroke="#263238" stroke-width="0.983633" stroke-miterlimit="10"/>
<path d="M266.444 71.2935H274.251V65.1589H266.444V71.2935Z" fill="white" stroke="#263238" stroke-width="0.983633" stroke-miterlimit="10"/>
<path d="M256.292 71.2935H264.099V65.1589H256.292V71.2935Z" fill="white" stroke="#263238" stroke-width="0.983633" stroke-miterlimit="10"/>
<path d="M282.073 63.6268H218.544V46.6882H266.822L282.073 63.6268Z" fill="#263238" stroke="#263238" stroke-width="0.983633" stroke-miterlimit="10"/>
<path d="M195.53 55.1909L161.002 68.9919V80.4989H195.064L195.53 55.1909Z" fill="#263238" stroke="#263238" stroke-width="0.983633" stroke-miterlimit="10"/>
<path d="M211.529 49.552L158.212 71.604L156.236 68.2962L209.553 46.2368L211.529 49.552Z" fill="#525252" stroke="#263238" stroke-width="0.983633" stroke-miterlimit="10"/>
<path d="M279.735 73.2097L205.535 53.9697V111.32H279.735V73.2097Z" fill="#3B5FE2" stroke="#263238" stroke-width="0.983633" stroke-miterlimit="10"/>
<path d="M261.516 111.32H279.735V73.21L261.516 68.4814V111.32Z" fill="#263238" stroke="#263238" stroke-width="0.983633" stroke-miterlimit="10"/>
<path d="M284.648 75.6741L239.723 63.9155L241.055 60.3857L285.98 72.1443L284.648 75.6741Z" fill="#525252" stroke="#263238" stroke-width="0.983633" stroke-miterlimit="10"/>
<path d="M193.695 111.32H242.757V31.0293L193.695 50.6396V111.32Z" fill="white" stroke="#263238" stroke-width="0.983633" stroke-miterlimit="10"/>
<path d="M198.29 84.3315H242.757V31.0293L198.29 48.8041V84.3315Z" fill="#263238" stroke="#263238" stroke-width="0.983633" stroke-miterlimit="10"/>
<path d="M193.695 84.3099H221.09V58.0399L193.695 50.6399V84.3099Z" fill="white" stroke="#263238" stroke-width="0.983633" stroke-miterlimit="10"/>
<path d="M211.314 84.3097H221.09V58.0397L211.314 55.3979V84.3097Z" fill="#3B5FE2" stroke="#263238" stroke-width="0.983633" stroke-miterlimit="10"/>
<path d="M221.09 85.4202H211.314V111.246H221.09V85.4202Z" fill="#3B5FE2" stroke="#263238" stroke-width="0.983633" stroke-miterlimit="10"/>
<path d="M247.745 82.4602H188.212V86.1602H247.745V82.4602Z" fill="#525252" stroke="#263238" stroke-width="0.983633" stroke-miterlimit="10"/>
<path d="M250.201 30.0007L196.877 52.0527L194.901 48.7375L248.226 26.6855L250.201 30.0007Z" fill="#525252" stroke="#263238" stroke-width="0.983633" stroke-miterlimit="10"/>
<path d="M225.115 60.134L189.07 50.2254L190.402 46.6956L226.447 56.6042L225.115 60.134Z" fill="#525252" stroke="#263238" stroke-width="0.983633" stroke-miterlimit="10"/>
<path d="M238.857 45.0896H228.638V61.9986H238.857V45.0896Z" fill="white" stroke="#263238" stroke-width="0.983633" stroke-miterlimit="10"/>
<path d="M238.857 64.071H228.638V80.98H238.857V64.071Z" fill="white" stroke="#263238" stroke-width="0.983633" stroke-miterlimit="10"/>
<path d="M208.65 60.26H198.875V79.5H208.65V60.26Z" fill="white" stroke="#263238" stroke-width="0.983633" stroke-miterlimit="10"/>
<path d="M208.65 87.8623H198.875V102.122H208.65V87.8623Z" fill="white" stroke="#263238" stroke-width="0.983633" stroke-miterlimit="10"/>
<path d="M275.176 80.8767H265.046V106.562H275.176V80.8767Z" fill="white" stroke="#263238" stroke-width="0.983633" stroke-miterlimit="10"/>
<path d="M230.495 88.1658H222.688V109.256H230.495V88.1658Z" fill="white" stroke="#263238" stroke-width="0.983633" stroke-miterlimit="10"/>
<path d="M240.641 88.1658H232.834V109.256H240.641V88.1658Z" fill="#263238" stroke="#263238" stroke-width="0.983633" stroke-miterlimit="10"/>
<path d="M191.838 70.5239H164.68V73.5875H191.838V70.5239Z" fill="white" stroke="#263238" stroke-width="0.983633" stroke-miterlimit="10"/>
<path d="M239.723 88.9204H233.788V93.0644H239.723V88.9204Z" fill="white" stroke="#263238" stroke-width="0.983633" stroke-miterlimit="10"/>
<path d="M239.723 93.7009H233.788V97.8449H239.723V93.7009Z" fill="white" stroke="#263238" stroke-width="0.983633" stroke-miterlimit="10"/>
<path d="M239.723 98.4888H233.788V102.633H239.723V98.4888Z" fill="white" stroke="#263238" stroke-width="0.983633" stroke-miterlimit="10"/>
<path d="M239.723 103.269H233.788V107.413H239.723V103.269Z" fill="white" stroke="#263238" stroke-width="0.983633" stroke-miterlimit="10"/>
<path d="M135.131 140.669C140.559 140.669 144.959 138.224 144.959 135.208C144.959 132.192 140.559 129.747 135.131 129.747C129.704 129.747 125.304 132.192 125.304 135.208C125.304 138.224 129.704 140.669 135.131 140.669Z" fill="white" stroke="#263238" stroke-miterlimit="10"/>
<path d="M127.857 149.402C130.469 149.402 132.586 148.1 132.586 146.493C132.586 144.887 130.469 143.585 127.857 143.585C125.246 143.585 123.129 144.887 123.129 146.493C123.129 148.1 125.246 149.402 127.857 149.402Z" fill="white" stroke="#263238" stroke-miterlimit="10"/>
<path d="M13.0758 308.933H362.6" stroke="#263238" stroke-width="0.983633" stroke-miterlimit="10"/>
<path d="M6.808 321.913H155.792L140.504 345.933" stroke="#263238" stroke-width="0.983633" stroke-miterlimit="10"/>
<path d="M20.276 311.612H163.281L157.975 318.819H10.4784" fill="#3B5FE2"/>
<path d="M346.039 312.374L361.964 328.299" stroke="#263238" stroke-width="0.983633" stroke-miterlimit="10"/>
<path d="M72.8086 358.306C104.968 358.306 131.039 355.212 131.039 351.395C131.039 347.578 104.968 344.483 72.8086 344.483C40.6487 344.483 14.578 347.578 14.578 351.395C14.578 355.212 40.6487 358.306 72.8086 358.306Z" fill="#263238"/>
<path d="M113.782 171.964C113.782 171.964 115.026 163.89 114.078 161.604C113.131 159.317 109.712 158.163 108.01 157.586C106.308 157.008 102.157 157.023 101.35 156.305C100.544 155.588 102.616 154.626 103.829 154.492C105.043 154.359 108.151 154.492 108.847 154.33C109.542 154.167 110.874 150.955 111.474 148.558C112.073 146.16 113.605 137.754 115.033 136.429C116.461 135.104 116.513 137.865 116.306 139.389C116.099 140.913 115.729 145.583 115.729 145.583C115.729 145.583 117.142 144.776 117.815 145.146C118.413 145.519 118.978 145.942 119.503 146.412C120.484 146.287 121.477 146.267 122.463 146.352C122.973 146.537 124.557 145.738 125.363 147.144C126.17 148.55 124.705 151.096 123.765 153.131C122.825 155.166 121.264 160.124 121.219 161.33C121.175 162.536 122.84 172.289 122.84 172.289L113.782 171.964Z" fill="white" stroke="#263238" stroke-width="0.983633" stroke-miterlimit="10"/>
<path d="M80.66 159.243C80.66 159.243 86.0546 155.943 87.9786 155.543C89.9257 155.184 91.9275 155.249 93.8468 155.736C94.8606 156.143 96.5626 156.594 95.7708 155.336C94.9718 154.103 93.8297 153.131 92.4852 152.539C91.6342 152.309 89.244 151.799 87.949 150.319C86.654 148.839 86.6762 145.746 87.061 145.08C87.4458 144.414 91.1976 136.858 91.3086 135.134C91.4196 133.41 89.873 133.151 89.281 134.32C88.689 135.489 86.5208 139.855 85.9584 140.514C85.396 141.172 83.1834 140.691 82.6654 140.662C82.1474 140.632 80.0606 140.847 80.0606 140.847C79.6589 140.68 79.2195 140.626 78.7893 140.69C78.3592 140.754 77.9545 140.933 77.6186 141.209C76.3458 142.171 75.702 144.169 75.6206 145.583C75.5392 146.996 75.6206 154.404 75.6206 154.404L69.9004 163.039L76.6196 166.221L80.66 159.243Z" fill="white" stroke="#263238" stroke-width="0.983633" stroke-miterlimit="10"/>
<path d="M69.3602 344.239C69.3602 344.239 68.3094 350.351 68.7312 350.98C69.153 351.609 82.8504 353.94 86.2248 353.94C89.5992 353.94 95.9188 354.784 96.5848 353.519C97.2508 352.253 97.6356 351.831 96.792 351.41C95.9484 350.988 88.7852 347.828 87.3126 346.563C85.8154 345.104 84.4068 343.557 83.0946 341.93L69.3602 344.239Z" fill="#3B5FE2" stroke="#263238" stroke-width="0.983633" stroke-miterlimit="10"/>
<path d="M96.5478 353.511L96.7106 353.193C94.7126 353.112 91.7156 352.993 88.3264 352.882C83.4498 352.712 72.7864 350.122 68.6942 349.086C68.5692 349.711 68.5692 350.355 68.6942 350.98C69.116 351.617 82.8134 353.94 86.1878 353.94C89.5622 353.94 95.9188 354.777 96.5478 353.511Z" fill="white" stroke="#263238" stroke-width="0.983633" stroke-miterlimit="10"/>
<path d="M28.9044 342.766C29.8005 344.436 30.7887 346.054 31.8644 347.613C32.5008 348.242 34.3952 349.293 34.3952 350.137V352.039H17.1014C17.2255 349.114 17.6495 346.211 18.3668 343.373C19.6248 337.919 28.9044 342.766 28.9044 342.766Z" fill="#3B5FE2" stroke="#263238" stroke-width="0.983633" stroke-miterlimit="10"/>
<path d="M34.3804 350.137C34.3725 349.986 34.3239 349.84 34.2398 349.715H17.2642C17.1014 351.195 17.1014 352.039 17.1014 352.039H34.3804V350.137Z" fill="white" stroke="#263238" stroke-width="0.983633" stroke-miterlimit="10"/>
<path d="M28.6898 240.763C28.6898 240.763 28.9044 248.985 28.9044 256.992V292.394C28.9044 292.394 23.2138 307.571 22.3702 314.735C21.5266 321.898 18.1522 344.661 18.1522 344.661C19.8292 345.442 21.6001 346.005 23.421 346.333C25.53 346.54 28.4826 344.646 28.4826 344.646C28.4826 344.646 30.1624 339.162 31.2206 336.846C32.2788 334.53 46.3906 296.146 47.2342 292.801C48.0778 289.456 48.1 280.176 48.1 280.176L49.7872 257.199H52.318L74 293.874C74 293.874 71.891 306.728 71.891 313.262C71.891 319.796 69.153 346.133 69.153 346.133C69.153 346.133 74.629 346.977 77.7888 346.77C80.9486 346.562 84.323 343.61 84.323 343.61V340.021C84.323 338.763 83.9012 337.919 83.9012 337.061C83.9012 336.202 92.3298 294.703 91.4936 290.906C90.6574 287.11 75.48 248.563 75.48 248.563L73.7928 243.716L28.6898 240.763Z" fill="#263238" stroke="#263238" stroke-width="0.983633" stroke-miterlimit="10"/>
<path d="M62.16 163.173L58.8818 169.271L73.2674 178.151C73.2674 178.151 75.3394 172.645 76.3532 171.209C76.9681 170.329 77.747 169.575 78.6472 168.989C78.6472 168.989 75.2728 162.581 71.0104 160.687C66.748 158.792 62.16 163.173 62.16 163.173Z" fill="white" stroke="#263238" stroke-width="0.983633" stroke-miterlimit="10"/>
<path d="M83.1538 146.619C83.1538 146.619 84.73 150.718 84.3082 151.666C83.8864 152.613 83.028 154.115 83.361 154.626C83.694 155.136 86.1138 155.662 86.0028 156.749C85.8918 157.837 84.1306 159.709 84.1306 159.709C84.1306 159.709 83.9382 167.368 82.1474 168.841C80.3566 170.314 78.5214 170.632 77.071 169.226C75.6206 167.82 72.1426 164.579 72.1426 164.579C72.1426 164.579 68.1466 166.799 64.9424 165.911C61.7382 165.023 57.831 160.671 55.7442 155.551C54.7857 153.064 54.6167 150.343 55.2602 147.757C55.9037 145.171 57.3285 142.846 59.3406 141.098C63.2848 137.754 73.2156 137.073 77.2116 138.279C81.2076 139.485 84.7448 142.601 83.1538 146.619Z" fill="white" stroke="#263238" stroke-width="0.983633" stroke-miterlimit="10"/>
<path d="M83.2722 159.51C80.8524 159.006 79.735 161.53 79.6758 163.772C79.6166 166.014 78.7138 166.362 77.1746 164.734C75.6354 163.106 75.7538 159.006 76.0498 157.06C76.3458 155.114 78.773 153.923 79.6092 152.028C80.4454 150.134 76.5308 147.07 76.5308 147.07C73.408 144.739 67.9246 148.158 64.5798 151.007C62.2414 153.005 57.5128 151.91 54.8636 151.066C54.8629 152.614 55.1619 154.147 55.7442 155.58C57.831 160.664 61.7382 165.045 64.9424 165.94C68.1466 166.836 72.1426 164.608 72.1426 164.608C72.1426 164.608 75.6132 167.857 77.071 169.255C78.5288 170.654 80.364 170.343 82.1474 168.871C83.7162 167.583 84.0566 161.545 84.1158 160.072C83.9046 159.796 83.6079 159.599 83.2722 159.51Z" fill="#6E6E6E" stroke="#263238" stroke-width="0.983633" stroke-miterlimit="10"/>
<path d="M73.6892 164.505C73.63 165.045 70.4258 165.889 69.005 163.558C67.5842 161.227 67.9394 157.038 70.2556 156.935C72.5718 156.831 74.1406 160.931 74.1406 160.931C74.1406 160.931 73.8446 162.877 73.6892 164.505Z" fill="white" stroke="#263238" stroke-width="0.983633" stroke-miterlimit="10"/>
<path d="M77.2116 138.309C73.2156 137.103 63.2848 137.783 59.3406 141.128C57.7525 142.511 56.5202 144.255 55.7474 146.214C54.9747 148.173 54.6843 150.289 54.9006 152.384C55.9662 154.966 58.0382 156.298 62.1526 156.372C67.0292 156.461 69.708 150.852 74.1406 148.106C76.8292 146.472 80.0459 145.942 83.1168 146.626C84.7448 142.601 81.2076 139.522 77.2116 138.309Z" fill="#263238" stroke="#263238" stroke-width="0.983633" stroke-miterlimit="10"/>
<path d="M55.4112 153.36C54.2115 151.367 52.5775 149.669 50.6308 148.395C47.5302 146.449 46.842 148.395 46.6718 151.355C46.5016 154.315 47.582 156.106 49.7206 155.543C51.6628 154.94 53.5637 154.21 55.4112 153.36Z" fill="#263238" stroke="#263238" stroke-width="0.983633" stroke-miterlimit="10"/>
<path d="M55.4112 153.361C55.4112 153.361 50.9268 156.654 49.4912 159.036" stroke="#263238" stroke-width="0.983633" stroke-miterlimit="10"/>
<path d="M50.9564 170.211C50.9564 170.211 43.623 171.691 40.071 174.858C36.519 178.025 35.6976 184.271 35.52 186.994C35.3424 189.717 28.6528 220.184 27.6464 226.496C26.64 232.808 23.6356 241.518 23.6356 241.518C23.6356 241.518 36.1046 248.378 50.0092 249.843C63.9138 251.308 82.5692 247.009 82.5692 247.009C82.5692 247.009 76.6492 227.473 76.923 218.149C77.2389 212.031 78.5875 206.011 80.9116 200.344C80.9116 200.344 113.057 204.044 118.082 202.527C123.106 201.01 124.202 196.17 123.809 193.084C123.417 189.999 123.728 173.548 123.728 173.548C123.728 173.548 117.068 171.639 114.848 172.209L112.569 172.779L107.677 187.971C107.677 187.971 91.76 181.747 85.396 179.683C81.5917 178.436 77.7078 177.447 73.7706 176.723L50.9564 170.211Z" fill="#3B5FE2" stroke="#263238" stroke-width="0.983633" stroke-miterlimit="10"/>
<path d="M80.9116 200.329L68.5314 199.027L76.6196 201.498L70.3444 210.016L80.9116 200.329Z" fill="#263238" stroke="#263238" stroke-width="0.983633" stroke-miterlimit="10"/>
<path d="M76.886 212.954C76.886 212.954 71.2102 213.753 68.4426 213.464" stroke="#263238" stroke-width="0.983633" stroke-miterlimit="10"/>
<path d="M68.154 216.232L69.0124 243.582" stroke="#263238" stroke-width="0.983633" stroke-miterlimit="10"/>
<path d="M73.0898 215.817L75.6354 242.642" stroke="#263238" stroke-width="0.983633" stroke-miterlimit="10"/>
<path d="M79.6462 242.132C79.6462 242.132 64.158 245.403 51.4596 244.3C38.7612 243.198 27.0026 237.552 27.0026 237.552" stroke="#263238" stroke-width="0.983633" stroke-miterlimit="10"/>
<path d="M107.677 188L115.299 190.672" stroke="#263238" stroke-width="0.983633" stroke-miterlimit="10"/>
<path d="M77.1894 177.204C77.1894 177.204 73.5856 172.897 70.2556 171.757C66.9256 170.618 57.9272 168.901 54.5232 168.279C53.5962 168.084 52.6305 168.21 51.7838 168.634C50.9371 169.059 50.2594 169.758 49.8612 170.618C53.5216 172.733 57.4922 174.259 61.6272 175.139C66.7724 176.115 71.9678 176.804 77.1894 177.204Z" fill="#DBDBDB" stroke="#263238" stroke-width="0.983633" stroke-miterlimit="10"/>
<path d="M110.748 170.596C110.748 170.596 109.409 176.227 109.897 176.775C110.386 177.322 110.867 178.033 111.252 177.359C111.636 176.686 113.472 175.235 117.401 175.443C119.784 175.589 122.019 176.649 123.639 178.403C123.771 178.487 123.924 178.532 124.081 178.533C124.238 178.533 124.391 178.489 124.523 178.405C124.656 178.321 124.761 178.201 124.827 178.059C124.894 177.917 124.918 177.759 124.897 177.603C124.964 176.227 125.053 171.395 124.749 170.514C124.446 169.634 120.354 168.723 116.38 168.686C112.406 168.649 111.303 169.937 110.748 170.596Z" fill="#DBDBDB" stroke="#263238" stroke-width="0.983633" stroke-miterlimit="10"/>
</svg>
