<svg width="370" height="371" viewBox="0 0 370 371" fill="none" xmlns="http://www.w3.org/2000/svg">
<path d="M334.687 87.8983C333.459 85.8558 332.181 83.8529 330.854 81.8894C313.094 55.7966 283.494 37.9328 254.797 29.8444C242.276 26.3507 229.383 24.3633 216.391 23.9244C131.772 20.8903 100.692 90.6585 73.4302 108.641C46.1686 126.623 4.32901 157.356 9.62001 221.899C13.6012 270.977 41.5214 317.901 92.5 339.25C98.2589 341.667 104.169 343.707 110.193 345.355C122.395 348.667 134.931 350.595 147.563 351.105C186.11 352.822 217.412 343.527 248.026 320.128C255.145 314.689 262.226 308.555 271.462 307.881C278.173 307.393 284.537 309.805 277.522 316.295C269.271 323.917 278.788 338.917 299.722 328.498C334.687 311.093 349.073 273.545 355.851 235.368C364.139 188.503 360.106 130.256 334.687 87.8983Z" fill="#3B5FE2"/>
<path opacity="0.7" d="M334.687 87.8983C333.459 85.8558 332.181 83.8529 330.854 81.8894C313.094 55.7966 283.494 37.9328 254.797 29.8444C242.276 26.3507 229.383 24.3633 216.391 23.9244C131.772 20.8903 100.692 90.6585 73.4302 108.641C46.1686 126.623 4.32901 157.356 9.62001 221.899C13.6012 270.977 41.5214 317.901 92.5 339.25C98.2589 341.667 104.169 343.707 110.193 345.355C122.395 348.667 134.931 350.595 147.563 351.105C186.11 352.822 217.412 343.527 248.026 320.128C255.145 314.689 262.226 308.555 271.462 307.881C278.173 307.393 284.537 309.805 277.522 316.295C269.271 323.917 278.788 338.917 299.722 328.498C334.687 311.093 349.073 273.545 355.851 235.368C364.139 188.503 360.106 130.256 334.687 87.8983Z" fill="white"/>
<path d="M344.196 109.913H212.802C212.735 109.913 212.67 109.894 212.613 109.861C212.556 109.827 212.509 109.779 212.476 109.721C212.444 109.665 212.427 109.601 212.427 109.536C212.427 109.471 212.444 109.407 212.476 109.351C212.639 109.084 216.487 102.735 221.105 101.418C223.458 100.745 226.003 102.276 228.46 103.749C230.917 105.222 233.1 106.576 234.58 105.37C235.32 104.77 236.134 103.971 236.985 103.15C239.864 100.301 243.445 96.756 249.017 96.2528C252.651 95.9124 255.108 97.5182 257.268 98.9316C259.429 100.345 260.968 101.374 263.107 100.182C264.187 99.5606 265.238 97.829 266.57 95.6386C270.359 89.3856 276.701 78.9294 293.758 81.364C314.722 84.324 319.85 98.5542 320.524 100.774C321.721 100.643 322.889 100.316 323.979 99.8048C326.34 98.8576 329.011 97.7846 333.333 99.5088C339.838 102.114 344.322 109.07 344.507 109.366C344.542 109.422 344.56 109.488 344.56 109.554C344.56 109.621 344.542 109.686 344.507 109.743C344.473 109.795 344.427 109.837 344.373 109.867C344.319 109.896 344.258 109.912 344.196 109.913ZM213.475 109.173H343.493C342.272 107.449 338.313 102.269 333.052 100.175C329.011 98.5616 326.592 99.531 324.253 100.471C322.999 101.072 321.639 101.421 320.25 101.499C320.166 101.5 320.084 101.471 320.018 101.419C319.952 101.366 319.906 101.293 319.887 101.211C319.887 101.055 315.78 85.2342 293.654 82.0744C277.071 79.7064 271.136 89.4744 267.199 95.9938C265.815 98.2804 264.72 100.086 263.499 100.804C261.013 102.225 259.007 100.915 256.891 99.531C254.775 98.1472 252.51 96.6524 249.114 96.9632C243.808 97.4442 240.33 100.885 237.54 103.623C236.667 104.482 235.845 105.296 235.068 105.917C233.196 107.397 230.732 105.917 228.112 104.356C225.789 102.957 223.384 101.514 221.349 102.136C217.752 103.15 214.533 107.59 213.475 109.173Z" fill="#263238"/>
<path d="M119.273 156.157H25.0934C25.0279 156.156 24.9636 156.139 24.9066 156.106C24.8496 156.074 24.8019 156.028 24.7678 155.972C24.7354 155.914 24.7184 155.849 24.7184 155.783C24.7184 155.717 24.7354 155.652 24.7678 155.594C24.8862 155.402 27.6612 150.821 31.0134 149.867C32.745 149.371 34.5876 150.473 36.371 151.546C38.1544 152.619 39.6344 153.515 40.626 152.716C41.1588 152.286 41.736 151.717 42.3502 151.117C44.4222 149.06 47.0048 146.507 51.0304 146.137C53.6796 145.9 55.5296 147.106 57.017 148.076C58.5044 149.045 59.644 149.8 61.087 148.971C61.827 148.542 62.6262 147.247 63.5364 145.752C66.267 141.246 70.8328 133.712 83.1316 135.474C97.9834 137.59 101.794 147.536 102.372 149.378C103.189 149.273 103.985 149.044 104.732 148.697C106.442 148.009 108.38 147.217 111.511 148.483C116.21 150.362 119.436 155.38 119.577 155.587C119.609 155.644 119.626 155.709 119.626 155.775C119.626 155.842 119.609 155.907 119.577 155.964C119.547 156.02 119.504 156.067 119.45 156.101C119.397 156.134 119.336 156.154 119.273 156.157ZM25.7742 155.417H118.57C117.579 154.055 114.818 150.599 111.252 149.171C108.395 148.024 106.678 148.72 105.021 149.378C104.11 149.815 103.122 150.067 102.113 150.118C102.029 150.119 101.948 150.092 101.882 150.041C101.817 149.99 101.77 149.918 101.75 149.837C101.75 149.719 98.79 138.448 83.0354 136.199C71.1954 134.504 66.9774 141.497 64.1728 146.13C63.1738 147.78 62.382 149.09 61.4644 149.608C59.6292 150.658 58.164 149.704 56.6174 148.69C55.0708 147.676 53.502 146.648 51.1044 146.87C47.3452 147.21 44.8662 149.667 42.8756 151.635C42.254 152.249 41.662 152.834 41.0996 153.285C39.701 154.403 37.9028 153.285 35.9936 152.175C34.3508 151.184 32.6488 150.163 31.228 150.57C28.8156 151.228 26.64 154.144 25.7742 155.417Z" fill="#263238"/>
<path d="M155.333 55.8927H95.6598C95.5939 55.8944 95.5287 55.8781 95.4713 55.8455C95.4139 55.8129 95.3665 55.7653 95.3342 55.7077C95.2994 55.6523 95.2809 55.5882 95.2809 55.5227C95.2809 55.4573 95.2994 55.3932 95.3342 55.3377C95.4082 55.2119 97.199 52.2593 99.3672 51.6377C100.522 51.3121 101.765 52.0595 102.867 52.7255C103.97 53.3915 104.858 53.9169 105.413 53.4655C105.79 53.1491 106.151 52.8132 106.493 52.4591C107.825 51.1419 109.453 49.4991 112.08 49.2697C113.482 49.2027 114.86 49.6472 115.958 50.5203C117.001 51.2085 117.586 51.5415 118.393 51.0827C119.011 50.5192 119.514 49.8406 119.873 49.0847C121.619 46.2061 124.542 41.3887 132.453 42.5135C141.673 43.8307 144.241 49.9135 144.722 51.3121C145.187 51.2347 145.64 51.0954 146.069 50.8977C146.747 50.5544 147.492 50.3645 148.252 50.3415C149.011 50.3185 149.767 50.4629 150.464 50.7645C153.483 51.9707 155.555 55.2045 155.644 55.3155C155.68 55.3714 155.7 55.4359 155.703 55.5022C155.705 55.5685 155.689 55.6342 155.658 55.6925C155.626 55.7508 155.579 55.7994 155.522 55.8333C155.465 55.8673 155.4 55.8852 155.333 55.8853V55.8927ZM96.348 55.1527H154.66C153.518 53.5629 151.99 52.2896 150.22 51.4527C149.61 51.1847 148.947 51.0575 148.281 51.0805C147.615 51.1036 146.962 51.2763 146.372 51.5859C145.778 51.8693 145.135 52.0327 144.478 52.0669C144.395 52.0673 144.315 52.0397 144.251 51.9886C144.186 51.9375 144.141 51.866 144.122 51.7857C144.048 51.4897 142.272 44.6595 132.371 43.2461C124.971 42.1805 122.315 46.5687 120.531 49.4695C120.111 50.3302 119.508 51.0881 118.763 51.6895C117.527 52.4295 116.543 51.7339 115.551 51.1049C114.593 50.3234 113.382 49.9205 112.147 49.9727C109.809 50.1799 108.262 51.7191 107.011 52.9327C106.612 53.3249 106.271 53.6727 105.879 53.9909C104.917 54.7309 103.659 53.9909 102.49 53.2953C101.469 52.6885 100.418 52.0521 99.5744 52.2963C98.2128 52.7403 96.94 54.3017 96.348 55.1527Z" fill="#263238"/>
<path d="M228.993 67.2218C225.554 67.2232 222.193 66.2048 219.333 64.2953C216.473 62.3859 214.244 59.6712 212.928 56.4946C211.611 53.318 211.266 49.8224 211.937 46.4498C212.607 43.0772 214.263 39.9792 216.694 37.5478C219.126 35.1164 222.224 33.4607 225.596 32.7902C228.969 32.1197 232.465 32.4646 235.641 33.7811C238.818 35.0977 241.532 37.3268 243.442 40.1865C245.351 43.0462 246.37 46.408 246.368 49.8465C246.362 54.4529 244.53 58.869 241.273 62.1262C238.015 65.3834 233.599 67.2159 228.993 67.2218ZM228.993 33.1817C225.701 33.1803 222.483 34.1551 219.745 35.9829C217.007 37.8108 214.873 40.4095 213.612 43.4504C212.351 46.4913 212.021 49.8378 212.662 53.0666C213.303 56.2955 214.888 59.2616 217.215 61.5898C219.542 63.9181 222.508 65.5039 225.736 66.1466C228.965 66.7894 232.311 66.4602 235.353 65.2008C238.394 63.9414 240.994 61.8083 242.823 59.0713C244.652 56.3342 245.628 53.1163 245.628 49.8243C245.616 45.4174 243.86 41.1945 240.742 38.0797C237.624 34.9649 233.4 33.2118 228.993 33.2039V33.1817Z" fill="#263238"/>
<path d="M228.993 28.5938C228.895 28.5938 228.801 28.5548 228.731 28.4854C228.662 28.4161 228.623 28.3219 228.623 28.2238V21.3048C228.623 21.2067 228.662 21.1126 228.731 21.0432C228.801 20.9738 228.895 20.9348 228.993 20.9348C229.091 20.9348 229.185 20.9738 229.255 21.0432C229.324 21.1126 229.363 21.2067 229.363 21.3048V28.2238C229.363 28.3219 229.324 28.4161 229.255 28.4854C229.185 28.5548 229.091 28.5938 228.993 28.5938Z" fill="#263238"/>
<path d="M228.993 79.9358C228.895 79.9358 228.801 79.8969 228.731 79.8275C228.662 79.7581 228.623 79.664 228.623 79.5658V72.6246C228.623 72.5265 228.662 72.4324 228.731 72.363C228.801 72.2936 228.895 72.2546 228.993 72.2546C229.091 72.2546 229.185 72.2936 229.255 72.363C229.324 72.4324 229.363 72.5265 229.363 72.6246V79.5362C229.367 79.5873 229.361 79.6386 229.344 79.6869C229.327 79.7353 229.3 79.7797 229.266 79.8172C229.231 79.8548 229.189 79.8847 229.142 79.9051C229.095 79.9255 229.044 79.936 228.993 79.9358Z" fill="#263238"/>
<path d="M244.688 35.0984C244.588 35.0982 244.493 35.0582 244.422 34.9874C244.354 34.917 244.316 34.8228 244.316 34.7247C244.316 34.6266 244.354 34.5324 244.422 34.462L249.321 29.5706C249.39 29.5028 249.483 29.4648 249.58 29.4648C249.677 29.4648 249.77 29.5028 249.839 29.5706C249.874 29.605 249.901 29.6459 249.92 29.691C249.939 29.7361 249.948 29.7845 249.948 29.8333C249.948 29.8822 249.939 29.9305 249.92 29.9756C249.901 30.0207 249.874 30.0616 249.839 30.096L244.94 34.9874C244.874 35.056 244.784 35.0959 244.688 35.0984Z" fill="#263238"/>
<path d="M208.399 71.3812C208.301 71.3798 208.208 71.3399 208.14 71.2702C208.104 71.2369 208.076 71.1968 208.057 71.1523C208.038 71.1077 208.028 71.0597 208.028 71.0112C208.028 70.9626 208.038 70.9146 208.057 70.87C208.076 70.8255 208.104 70.7854 208.14 70.7522L213.031 65.8756C213.066 65.8409 213.107 65.8134 213.152 65.7946C213.197 65.7758 213.245 65.7661 213.294 65.7661C213.343 65.7661 213.391 65.7758 213.436 65.7946C213.481 65.8134 213.522 65.8409 213.557 65.8756C213.624 65.9447 213.662 66.0377 213.662 66.1346C213.662 66.2314 213.624 66.3244 213.557 66.3936L208.68 71.2702C208.643 71.307 208.599 71.3359 208.551 71.355C208.503 71.3741 208.451 71.383 208.399 71.3812Z" fill="#263238"/>
<path d="M258.105 50.7942H251.186C251.088 50.7923 250.995 50.7527 250.926 50.6837C250.857 50.6147 250.818 50.5217 250.816 50.4242C250.816 50.3261 250.855 50.232 250.924 50.1626C250.993 50.0932 251.087 50.0542 251.186 50.0542H258.105C258.203 50.0542 258.297 50.0932 258.366 50.1626C258.436 50.232 258.475 50.3261 258.475 50.4242C258.475 50.5223 258.436 50.6164 258.366 50.6858C258.297 50.7552 258.203 50.7942 258.105 50.7942Z" fill="#263238"/>
<path d="M206.793 50.7942H199.874C199.776 50.7942 199.682 50.7552 199.612 50.6858C199.543 50.6164 199.504 50.5223 199.504 50.4242C199.504 50.3261 199.543 50.232 199.612 50.1626C199.682 50.0932 199.776 50.0542 199.874 50.0542H206.793C206.891 50.0542 206.985 50.0932 207.055 50.1626C207.124 50.232 207.163 50.3261 207.163 50.4242C207.163 50.4728 207.153 50.5209 207.135 50.5658C207.116 50.6107 207.089 50.6515 207.055 50.6858C207.02 50.7202 206.979 50.7474 206.935 50.766C206.89 50.7846 206.842 50.7942 206.793 50.7942Z" fill="#263238"/>
<path d="M249.58 71.3813C249.531 71.3819 249.483 71.3723 249.439 71.3532C249.394 71.3341 249.354 71.3059 249.321 71.2703L244.422 66.3789C244.354 66.3097 244.316 66.2168 244.316 66.1199C244.316 66.0231 244.354 65.9301 244.422 65.8609C244.456 65.8262 244.497 65.7987 244.542 65.7799C244.588 65.7611 244.636 65.7515 244.685 65.7515C244.734 65.7515 244.782 65.7611 244.827 65.7799C244.872 65.7987 244.913 65.8262 244.947 65.8609L249.839 70.7523C249.89 70.804 249.924 70.8695 249.938 70.9406C249.952 71.0117 249.944 71.0853 249.917 71.1522C249.889 71.2192 249.843 71.2766 249.783 71.3173C249.723 71.358 249.652 71.3803 249.58 71.3813Z" fill="#263238"/>
<path d="M213.29 35.0984C213.193 35.097 213.1 35.0571 213.031 34.9874L208.14 30.096C208.105 30.0616 208.078 30.0206 208.059 29.9755C208.04 29.9305 208.03 29.8821 208.03 29.8333C208.03 29.7844 208.04 29.736 208.059 29.691C208.078 29.6459 208.105 29.6049 208.14 29.5706C208.21 29.5023 208.304 29.4641 208.403 29.4641C208.501 29.4641 208.595 29.5023 208.665 29.5706L213.557 34.462C213.625 34.5324 213.663 34.6266 213.663 34.7247C213.663 34.8227 213.625 34.9169 213.557 34.9874C213.486 35.0582 213.39 35.0981 213.29 35.0984Z" fill="#263238"/>
<path d="M270.004 144.479C270.004 144.479 273.415 143.628 274.444 143.969C275.472 144.309 273.763 145.523 273.763 145.523C274.375 145.937 274.849 146.524 275.125 147.21C275.635 148.409 273.423 147.891 273.423 147.891C273.606 148.105 273.707 148.378 273.707 148.66C273.707 148.943 273.606 149.215 273.423 149.43C272.742 150.118 269.671 146.699 269.671 146.699C269.671 146.699 267.451 148.068 265.394 147.898C263.336 147.728 262.152 147.21 260.783 145.16C260.082 144.066 259.282 143.038 258.393 142.089L257.024 141.579L259.074 140.38C259.074 140.38 260.783 138.841 262.493 139.011C263.335 139.037 264.156 139.273 264.883 139.699C264.883 139.699 265.912 136.961 267.443 135.94C268.975 134.919 273.763 133.55 275.302 132.691C276.841 131.833 276.501 133.209 275.99 134.06C275.48 134.911 273.941 135.599 273.252 135.94C272.564 136.28 276.841 136.45 276.161 137.309C275.48 138.167 272.912 138.5 272.912 138.5C272.912 138.5 275.302 139.359 274.792 140.039C274.281 140.72 272.231 140.72 272.231 140.72C272.231 140.72 272.912 142.43 271.891 142.43H270.84C270.84 142.43 271.365 144.82 270.004 144.479Z" fill="#3B5FE2"/>
<path d="M273.178 149.896C272.202 149.896 270.315 147.935 269.612 147.165C268.325 147.906 266.863 148.284 265.379 148.261C263.307 148.09 261.975 147.595 260.495 145.367C259.812 144.32 259.045 143.33 258.201 142.407L256.913 141.919C256.847 141.897 256.789 141.855 256.747 141.8C256.705 141.744 256.68 141.678 256.676 141.608C256.67 141.538 256.683 141.468 256.715 141.405C256.746 141.342 256.794 141.29 256.854 141.253L258.874 140.076C259.126 139.862 260.806 138.478 262.574 138.648C263.321 138.704 264.053 138.881 264.742 139.173C265.098 138.352 266.015 136.48 267.288 135.629C268.74 134.851 270.261 134.209 271.832 133.712C272.969 133.331 274.084 132.884 275.169 132.373C275.421 132.232 276.19 131.803 276.649 132.254C277.108 132.706 276.516 134.016 276.368 134.252C275.782 134.991 275.018 135.569 274.148 135.932L274.34 135.969C275.591 136.221 276.42 136.421 276.605 136.931C276.64 137.034 276.648 137.144 276.627 137.251C276.607 137.357 276.558 137.456 276.486 137.538C275.838 138.119 275.037 138.502 274.177 138.641C274.637 138.838 275.013 139.188 275.243 139.632C275.272 139.739 275.276 139.851 275.255 139.96C275.235 140.069 275.19 140.172 275.125 140.261C274.673 140.861 273.482 141.001 272.764 141.075C272.916 141.52 272.887 142.006 272.683 142.429C272.601 142.549 272.49 142.646 272.361 142.71C272.231 142.775 272.087 142.806 271.943 142.799H271.351C271.395 143.138 271.395 143.482 271.351 143.821C272.42 143.542 273.533 143.472 274.629 143.613C274.773 143.645 274.904 143.719 275.005 143.826C275.107 143.933 275.174 144.068 275.199 144.213C275.273 144.679 274.829 145.175 274.459 145.515C274.937 145.945 275.313 146.476 275.561 147.069C275.647 147.215 275.687 147.384 275.675 147.553C275.664 147.722 275.6 147.884 275.495 148.016C275.311 148.172 275.094 148.284 274.861 148.345C274.628 148.405 274.384 148.411 274.148 148.364C274.21 148.599 274.208 148.846 274.143 149.08C274.078 149.314 273.952 149.527 273.778 149.696C273.699 149.772 273.604 149.829 273.501 149.863C273.397 149.898 273.287 149.909 273.178 149.896ZM269.663 146.329C269.715 146.33 269.766 146.342 269.813 146.364C269.861 146.385 269.903 146.416 269.937 146.455C271.291 147.935 272.808 149.237 273.186 149.156C273.6 148.727 273.149 148.15 273.134 148.12C273.091 148.058 273.068 147.985 273.068 147.909C273.068 147.834 273.091 147.76 273.134 147.698C273.174 147.633 273.233 147.583 273.304 147.553C273.374 147.524 273.452 147.518 273.526 147.535C273.961 147.667 274.424 147.667 274.858 147.535C274.856 147.471 274.838 147.407 274.806 147.35C274.561 146.738 274.142 146.21 273.6 145.833C273.547 145.802 273.502 145.758 273.47 145.705C273.437 145.652 273.419 145.592 273.415 145.53C273.414 145.468 273.427 145.407 273.454 145.352C273.481 145.297 273.521 145.249 273.571 145.212C273.915 144.987 274.206 144.689 274.422 144.339H274.348C273.8 144.161 272.179 144.405 270.907 144.679C270.773 144.789 270.615 144.863 270.446 144.895C270.276 144.928 270.101 144.917 269.937 144.864C269.856 144.844 269.785 144.797 269.734 144.732C269.683 144.666 269.655 144.585 269.656 144.501C269.654 144.419 269.681 144.338 269.733 144.273C269.784 144.208 269.856 144.163 269.937 144.146C270.011 144.146 270.218 144.072 270.5 144.013C270.625 143.528 270.625 143.018 270.5 142.533C270.489 142.479 270.49 142.424 270.503 142.37C270.516 142.317 270.541 142.268 270.576 142.225C270.61 142.183 270.654 142.148 270.704 142.125C270.753 142.101 270.807 142.089 270.862 142.089H271.891C272.002 142.089 272.024 142.089 272.031 142.045C272.106 141.654 272.055 141.249 271.883 140.89C271.862 140.833 271.854 140.772 271.86 140.712C271.867 140.651 271.887 140.593 271.92 140.542C271.955 140.492 272.002 140.451 272.056 140.423C272.11 140.394 272.17 140.38 272.231 140.38C272.971 140.38 274.222 140.217 274.496 139.847C274.01 139.393 273.425 139.061 272.786 138.877C272.688 138.868 272.598 138.819 272.535 138.743C272.473 138.667 272.443 138.569 272.453 138.47C272.463 138.372 272.511 138.282 272.588 138.22C272.664 138.157 272.762 138.128 272.86 138.137C273.756 138.012 275.295 137.642 275.82 137.146C275.289 136.934 274.735 136.782 274.17 136.694C273.23 136.502 272.875 136.435 272.831 136.065C272.818 135.969 272.838 135.872 272.887 135.788C272.937 135.705 273.014 135.641 273.104 135.607L273.341 135.488C274.022 135.163 275.28 134.541 275.687 133.868C275.908 133.542 276.038 133.164 276.064 132.772C275.869 132.833 275.68 132.915 275.502 133.017C274.382 133.548 273.23 134.01 272.054 134.4C270.542 134.891 269.074 135.507 267.665 136.243C266.245 137.198 265.253 139.802 265.246 139.825C265.225 139.879 265.193 139.928 265.15 139.968C265.108 140.008 265.057 140.037 265.001 140.054C264.946 140.069 264.888 140.071 264.832 140.06C264.776 140.05 264.723 140.028 264.676 139.995C263.997 139.613 263.235 139.402 262.456 139.381C260.931 139.225 259.34 140.639 259.326 140.653C259.311 140.668 259.289 140.653 259.266 140.698L257.89 141.504L258.526 141.741C258.573 141.761 258.615 141.789 258.652 141.823C259.559 142.793 260.377 143.843 261.094 144.96C262.419 146.943 263.544 147.373 265.431 147.528C266.856 147.513 268.251 147.117 269.471 146.381C269.531 146.35 269.596 146.333 269.663 146.329Z" fill="#263238"/>
<path d="M264.876 139.699C264.876 139.699 263.514 136.961 264.195 135.259C264.876 133.557 271.195 129.109 271.025 130.819C270.919 131.381 270.697 131.914 270.373 132.386C270.05 132.857 269.631 133.256 269.145 133.557C269.145 133.557 271.713 132.698 271.713 133.387V134.067C271.713 134.067 268.805 134.748 267.436 135.947C266.384 137.05 265.519 138.317 264.876 139.699Z" fill="#263238"/>
<path d="M264.876 140.069C264.807 140.069 264.741 140.049 264.683 140.012C264.625 139.976 264.579 139.923 264.55 139.862C264.491 139.743 263.114 136.961 263.847 135.118C264.476 133.542 269.515 129.753 270.899 130.086C271.059 130.127 271.197 130.225 271.289 130.361C271.381 130.498 271.418 130.663 271.395 130.826C271.307 131.548 271.008 132.227 270.537 132.78C270.969 132.662 271.429 132.696 271.839 132.876C271.914 132.931 271.975 133.004 272.017 133.087C272.058 133.171 272.078 133.264 272.076 133.357V134.038C272.077 134.121 272.049 134.202 271.998 134.268C271.947 134.334 271.875 134.381 271.795 134.4C271.795 134.4 268.96 135.074 267.68 136.199C266.661 137.28 265.828 138.523 265.216 139.876C265.184 139.938 265.136 139.99 265.078 140.028C265.02 140.066 264.952 140.087 264.883 140.091L264.876 140.069ZM270.633 130.789C269.641 130.789 265.098 133.993 264.535 135.392C264.121 136.428 264.535 137.945 264.905 138.826C265.495 137.654 266.269 136.584 267.199 135.658C268.442 134.766 269.847 134.125 271.336 133.771V133.483C270.627 133.507 269.927 133.647 269.264 133.897C269.179 133.922 269.087 133.915 269.007 133.878C268.926 133.84 268.862 133.776 268.825 133.695C268.788 133.614 268.782 133.523 268.807 133.438C268.832 133.353 268.886 133.28 268.96 133.231C269.394 132.962 269.767 132.607 270.059 132.189C270.35 131.77 270.553 131.296 270.655 130.797L270.633 130.789Z" fill="#263238"/>
<path d="M260.88 141.542C261.162 141.542 261.39 141.313 261.39 141.031C261.39 140.749 261.162 140.521 260.88 140.521C260.598 140.521 260.369 140.749 260.369 141.031C260.369 141.313 260.598 141.542 260.88 141.542Z" fill="#263238"/>
<path d="M267.739 146.248C267.436 147.284 265.801 147.728 264.106 147.21C262.411 146.692 261.272 145.456 261.575 144.42C261.879 143.384 263.514 142.94 265.216 143.458C266.918 143.976 268.05 145.212 267.739 146.248Z" fill="white"/>
<path d="M265.505 147.602C265.003 147.604 264.505 147.531 264.025 147.388C263.226 147.169 262.502 146.737 261.93 146.137C261.671 145.931 261.479 145.652 261.379 145.336C261.279 145.02 261.276 144.681 261.37 144.363C261.464 144.045 261.65 143.762 261.906 143.551C262.161 143.34 262.474 143.21 262.804 143.177C263.613 143.005 264.453 143.038 265.246 143.274C266.04 143.509 266.762 143.939 267.347 144.524C267.607 144.731 267.799 145.01 267.898 145.327C267.998 145.644 268 145.983 267.906 146.301C267.811 146.619 267.624 146.902 267.367 147.113C267.111 147.323 266.797 147.453 266.467 147.484C266.152 147.564 265.829 147.604 265.505 147.602ZM263.81 143.429C263.51 143.427 263.212 143.464 262.922 143.54C262.663 143.581 262.419 143.689 262.215 143.852C262.01 144.015 261.851 144.229 261.753 144.472C261.7 144.729 261.715 144.995 261.799 145.243C261.882 145.491 262.029 145.713 262.226 145.886C262.765 146.421 263.429 146.815 264.157 147.032C264.885 147.249 265.656 147.282 266.4 147.129C266.659 147.09 266.903 146.983 267.107 146.819C267.311 146.656 267.468 146.441 267.562 146.196C267.617 145.94 267.603 145.673 267.521 145.423C267.439 145.173 267.292 144.95 267.096 144.776C266.563 144.233 265.897 143.84 265.164 143.636C264.725 143.504 264.269 143.434 263.81 143.429Z" fill="#263238"/>
<path d="M100.1 100.7C100.1 100.7 96.6884 99.8418 95.6598 100.19C94.6312 100.537 96.3406 101.736 96.3406 101.736C95.7307 102.156 95.2572 102.745 94.979 103.431C94.461 104.63 96.681 104.112 96.681 104.112C96.4976 104.326 96.3968 104.599 96.3968 104.881C96.3968 105.163 96.4976 105.436 96.681 105.651C97.3618 106.339 100.433 102.92 100.433 102.92C100.433 102.92 102.653 104.289 104.703 104.112C106.752 103.934 107.951 103.431 109.32 101.381C110.022 100.287 110.822 99.2586 111.71 98.31L113.079 97.792L111.03 96.6006C111.03 96.6006 109.32 95.0614 107.611 95.2316C106.77 95.2579 105.949 95.4918 105.221 95.9124C105.221 95.9124 104.192 93.1818 102.653 92.1606C101.114 91.1394 96.3332 89.7704 94.8014 88.912C93.2696 88.0536 93.6026 89.4226 94.1132 90.281C94.6238 91.1394 96.163 91.8202 96.8512 92.1606C97.5394 92.501 93.2622 92.6712 93.943 93.5222C94.6238 94.3732 97.1916 94.721 97.1916 94.721C97.1916 94.721 94.8014 95.572 95.312 96.2602C95.8226 96.9484 97.8724 96.941 97.8724 96.941C97.8724 96.941 97.1916 98.6504 98.2128 98.6504H99.2414C99.2414 98.6504 98.7382 101.041 100.1 100.7Z" fill="#3B5FE2"/>
<path d="M96.94 106.11C96.7541 106.111 96.5744 106.042 96.4368 105.917C96.2625 105.748 96.1364 105.535 96.0713 105.301C96.0063 105.067 96.0048 104.82 96.0668 104.585C95.8306 104.63 95.5873 104.623 95.3544 104.562C95.1215 104.502 94.9049 104.391 94.72 104.237C94.6145 104.103 94.5517 103.941 94.5398 103.77C94.5279 103.6 94.5675 103.43 94.6534 103.283C94.9017 102.694 95.2754 102.166 95.7486 101.736C95.3564 101.396 94.9124 100.9 95.0086 100.434C95.0331 100.289 95.1005 100.154 95.202 100.047C95.3035 99.9403 95.4346 99.8662 95.5784 99.8344C96.674 99.694 97.7862 99.7617 98.8566 100.034C98.8123 99.6977 98.8123 99.3569 98.8566 99.0204H98.2646C98.12 99.0268 97.9761 98.9961 97.8466 98.9314C97.7171 98.8666 97.6063 98.7699 97.5246 98.6504C97.4218 98.4414 97.3616 98.214 97.3477 97.9815C97.3337 97.749 97.3662 97.516 97.4432 97.2962C96.7032 97.2444 95.534 97.0816 95.0826 96.4822C95.0159 96.392 94.9706 96.2879 94.9501 96.1776C94.9296 96.0674 94.9344 95.9539 94.9642 95.8458C95.1949 95.4044 95.5715 95.0566 96.0298 94.8616C95.1714 94.7201 94.3707 94.3377 93.721 93.759C93.6494 93.6759 93.6008 93.5754 93.58 93.4677C93.5593 93.3599 93.5671 93.2486 93.6026 93.1448C93.7876 92.6416 94.6164 92.4418 95.867 92.1902L96.0594 92.1458C95.1879 91.785 94.4235 91.2066 93.8394 90.466C93.6988 90.2366 93.0254 89.0304 93.5582 88.4754C94.091 87.9204 94.7718 88.4754 95.0382 88.5864C96.1208 89.1039 97.2356 89.5513 98.3756 89.9258C99.9453 90.4283 101.466 91.0723 102.919 91.8498C104.192 92.7008 105.139 94.573 105.465 95.3944C106.153 95.0987 106.886 94.9187 107.633 94.8616C109.372 94.6914 111.052 96.0752 111.333 96.2972L113.353 97.4738C113.413 97.5107 113.461 97.5634 113.493 97.6262C113.524 97.6889 113.537 97.7591 113.531 97.829C113.525 97.898 113.5 97.964 113.458 98.019C113.416 98.0741 113.359 98.116 113.294 98.1398L112.006 98.6282C111.16 99.5487 110.393 100.539 109.712 101.588C108.232 103.808 106.9 104.311 104.828 104.482C103.344 104.509 101.88 104.131 100.596 103.386C99.8556 104.126 98.0056 106.087 97.0288 106.11H96.94ZM96.6958 103.742C96.7577 103.742 96.8186 103.757 96.8729 103.787C96.9272 103.817 96.9732 103.86 97.0066 103.912C97.0502 103.975 97.0736 104.05 97.0736 104.126C97.0736 104.203 97.0502 104.278 97.0066 104.341C96.9622 104.4 96.5552 104.963 97.0066 105.392C97.3544 105.451 98.864 104.186 100.226 102.669C100.286 102.607 100.365 102.567 100.451 102.555C100.537 102.543 100.624 102.559 100.699 102.602C101.92 103.336 103.315 103.732 104.74 103.749C106.619 103.586 107.751 103.164 109.076 101.174C109.794 100.061 110.609 99.0137 111.511 98.0436C111.55 98.0086 111.595 97.981 111.644 97.9622L112.28 97.7254L110.845 96.9558L110.785 96.9114C110.785 96.9114 109.172 95.4832 107.655 95.6386C106.877 95.664 106.116 95.8745 105.435 96.2528C105.389 96.2866 105.335 96.3088 105.279 96.3179C105.222 96.3269 105.164 96.3223 105.11 96.3046C105.055 96.2902 105.004 96.2624 104.963 96.2237C104.922 96.1849 104.891 96.1364 104.873 96.0826C104.873 96.0826 103.866 93.4482 102.453 92.501C101.046 91.7623 99.5776 91.1458 98.0648 90.6584C96.8881 90.2682 95.7365 89.806 94.6164 89.2746C94.165 89.023 94.017 89.0526 94.0096 89.0526C94.0845 89.4327 94.2274 89.7962 94.4314 90.1256C94.8384 90.799 96.1038 91.4206 96.7772 91.7462L97.014 91.8646C97.1048 91.8989 97.1813 91.9629 97.231 92.0462C97.2807 92.1295 97.3008 92.2272 97.2878 92.3234C97.2434 92.6934 96.8882 92.76 95.9484 92.9524C95.3836 93.0389 94.8301 93.1878 94.2982 93.3964C94.8162 93.907 96.348 94.2696 97.2582 94.388C97.3414 94.4003 97.4183 94.4395 97.4771 94.4997C97.5359 94.5598 97.5734 94.6376 97.5838 94.721C97.5906 94.803 97.5704 94.885 97.5264 94.9544C97.4823 95.0239 97.4167 95.0771 97.3396 95.1058C96.6932 95.2819 96.104 95.6237 95.6302 96.0974C95.904 96.4378 97.1102 96.608 97.8946 96.608C97.9557 96.608 98.0159 96.6227 98.0701 96.6511C98.1242 96.6795 98.1707 96.7205 98.2054 96.7708C98.2386 96.8217 98.2593 96.8798 98.2657 96.9403C98.2721 97.0007 98.2642 97.0618 98.2424 97.1186C98.067 97.4765 98.015 97.8824 98.0944 98.273C98.0944 98.273 98.0944 98.3174 98.235 98.3174H99.2636C99.3183 98.3182 99.3723 98.3305 99.422 98.3535C99.4717 98.3764 99.5161 98.4095 99.5522 98.4506C99.5857 98.4943 99.6095 98.5446 99.6223 98.5981C99.635 98.6517 99.6364 98.7073 99.6262 98.7614C99.5009 99.2468 99.5009 99.756 99.6262 100.241L100.189 100.375C100.269 100.395 100.341 100.441 100.392 100.507C100.443 100.573 100.471 100.654 100.47 100.737C100.472 100.82 100.445 100.901 100.393 100.965C100.342 101.03 100.27 101.075 100.189 101.092C100.025 101.148 99.8505 101.16 99.6809 101.129C99.5112 101.098 99.3524 101.024 99.2192 100.915C97.9464 100.641 96.3258 100.389 95.7782 100.574C95.7433 100.582 95.7104 100.597 95.682 100.619C95.9189 100.955 96.2148 101.246 96.5552 101.477C96.6067 101.512 96.6481 101.56 96.6754 101.616C96.7027 101.671 96.7148 101.733 96.7106 101.795C96.7071 101.857 96.6883 101.917 96.6561 101.97C96.6238 102.023 96.579 102.067 96.5256 102.099C95.9895 102.466 95.5706 102.98 95.3194 103.579C95.2861 103.635 95.2706 103.699 95.275 103.764C95.7031 103.903 96.1642 103.903 96.5922 103.764L96.6958 103.742Z" fill="#263238"/>
<path d="M105.228 95.9125C105.228 95.9125 106.59 93.1819 105.909 91.4725C105.228 89.7631 98.9084 85.3231 99.0786 87.0325C99.1849 87.5943 99.4069 88.1278 99.7305 88.5992C100.054 89.0705 100.472 89.4694 100.958 89.7705C100.958 89.7705 98.3904 88.9121 98.3904 89.5929V90.2959C98.3904 90.2959 101.299 90.9767 102.66 92.1755C103.715 93.2724 104.582 94.5348 105.228 95.9125Z" fill="#263238"/>
<path d="M105.228 96.2825C105.159 96.2826 105.091 96.2633 105.032 96.2266C104.973 96.19 104.926 96.1375 104.895 96.0753C104.277 94.7356 103.445 93.5058 102.431 92.4345C101.143 91.3171 98.346 90.6437 98.3164 90.6363C98.2348 90.6193 98.1615 90.5747 98.109 90.51C98.0564 90.4453 98.0277 90.3644 98.0278 90.2811V89.5929C98.0268 89.5 98.0486 89.4083 98.0911 89.3258C98.1337 89.2432 98.1958 89.1723 98.272 89.1193C98.6815 88.9357 99.1424 88.9017 99.5744 89.0231C99.1026 88.4703 98.8041 87.7908 98.716 87.0695C98.6927 86.9067 98.7305 86.741 98.822 86.6044C98.9135 86.4678 99.0524 86.3698 99.2118 86.3295C100.603 85.9817 105.628 89.7853 106.257 91.3615C106.997 93.2041 105.62 95.9865 105.561 96.1049C105.528 96.1628 105.479 96.2102 105.42 96.2416C105.361 96.273 105.295 96.2871 105.228 96.2825ZM98.7604 89.9925C100.251 90.3458 101.659 90.9868 102.904 91.8795C103.832 92.804 104.607 93.8707 105.198 95.0393C105.531 94.1587 105.983 92.6491 105.568 91.6131C104.999 90.1997 100.388 86.9733 99.4486 87.0103C99.5546 87.5095 99.7591 87.9826 100.05 88.4019C100.341 88.8212 100.713 89.1782 101.143 89.4523C101.222 89.4975 101.28 89.5704 101.308 89.6567C101.335 89.7429 101.329 89.8363 101.291 89.9185C101.255 90.0026 101.188 90.07 101.105 90.107C101.021 90.1441 100.926 90.1481 100.84 90.1183C100.174 89.8684 99.4714 89.7284 98.7604 89.7039V89.9925Z" fill="#263238"/>
<path d="M108.713 97.2445C108.713 97.3799 108.767 97.5098 108.863 97.6055C108.959 97.7013 109.089 97.7551 109.224 97.7551C109.359 97.7551 109.489 97.7013 109.585 97.6055C109.681 97.5098 109.735 97.3799 109.735 97.2445C109.735 97.1091 109.681 96.9792 109.585 96.8834C109.489 96.7877 109.359 96.7339 109.224 96.7339C109.089 96.7339 108.959 96.7877 108.863 96.8834C108.767 96.9792 108.713 97.1091 108.713 97.2445Z" fill="#263238"/>
<path d="M102.364 102.469C102.668 103.505 104.296 103.949 105.998 103.431C107.7 102.913 108.832 101.677 108.528 100.641C108.225 99.6052 106.59 99.1612 104.888 99.6792C103.186 100.197 102.053 101.433 102.364 102.469Z" fill="white"/>
<path d="M104.614 103.823C103.408 103.823 102.394 103.342 102.187 102.521C101.846 101.389 103.038 100.034 104.836 99.5015C106.634 98.9687 108.366 99.4571 108.706 100.582C108.776 100.901 108.762 101.232 108.665 101.544C108.567 101.855 108.39 102.136 108.151 102.358C107.574 102.954 106.849 103.386 106.049 103.609C105.583 103.746 105.1 103.818 104.614 103.823ZM102.542 102.417C102.816 103.35 104.347 103.727 105.946 103.253C106.681 103.052 107.348 102.655 107.877 102.106C108.074 101.934 108.222 101.712 108.305 101.464C108.388 101.215 108.404 100.949 108.351 100.693C108.07 99.7531 106.538 99.3757 104.939 99.8567C103.341 100.338 102.261 101.477 102.542 102.417Z" fill="#263238"/>
<path d="M90.9312 227.938C86.0582 220.804 79.5437 214.944 71.9354 210.851C59.6958 204.502 54.4714 198.234 60.8354 198.604C68.5388 199.063 85.9954 205.183 93.9282 226.724C97.3544 236.011 90.9682 227.945 90.9682 227.945" fill="#3B5FE2"/>
<path d="M94.5572 231.527C93.499 231.527 91.686 229.462 90.6352 228.145C90.5686 228.041 83.7902 217.415 71.7874 211.191C62.9074 206.596 57.1724 201.764 57.8088 199.44C58.053 198.545 59.089 198.153 60.8724 198.256C69.0124 198.73 86.432 205.271 94.2908 226.606C95.6894 230.409 95.4156 231.194 94.905 231.482C94.7949 231.527 94.675 231.542 94.5572 231.527ZM91.2272 227.701C92.5962 229.418 94.1428 230.89 94.535 230.794C94.535 230.794 94.8384 230.254 93.573 226.82C85.8474 205.849 68.7608 199.44 60.8058 198.952C59.4516 198.878 58.6376 199.107 58.5044 199.596C58.0604 201.216 63.1294 205.841 72.1056 210.496C84.0566 216.697 90.9016 227.198 91.2272 227.701Z" fill="#263238"/>
<path d="M90.5242 225.473C90.4556 225.474 90.3882 225.456 90.3294 225.421C90.2706 225.385 90.2228 225.335 90.1912 225.274C90.132 225.148 83.99 213.071 72.6754 207.299C72.6316 207.278 72.5924 207.248 72.5604 207.211C72.5283 207.175 72.5039 207.132 72.4887 207.086C72.4735 207.039 72.4678 206.991 72.4719 206.942C72.476 206.893 72.4899 206.846 72.5126 206.803C72.557 206.716 72.634 206.65 72.7269 206.62C72.8198 206.589 72.921 206.597 73.0084 206.64C84.545 212.523 90.7684 224.815 90.8498 224.941C90.8726 224.984 90.8864 225.031 90.8905 225.079C90.8946 225.128 90.8889 225.177 90.8737 225.223C90.8585 225.269 90.8341 225.312 90.8021 225.349C90.77 225.385 90.7309 225.415 90.687 225.436C90.6369 225.463 90.5808 225.475 90.5242 225.473Z" fill="#263238"/>
<path d="M98.2868 235.338C95.9426 227.892 95.4173 219.992 96.755 212.301C99.0786 200.054 97.5394 192.847 94.2612 197.568C90.28 203.296 84.878 219.124 95.7412 236.788C100.433 244.41 98.2794 235.308 98.2794 235.308" fill="#3B5FE2"/>
<path d="M98.3386 240.207C97.8354 240.207 97.0584 239.615 95.4378 236.98C84.656 219.464 89.7546 203.406 93.9578 197.353C94.8902 196.014 95.7634 195.503 96.5478 195.829C98.5754 196.68 98.8048 203.48 97.1176 212.368C95.7943 219.992 96.3015 227.822 98.5976 235.212C98.6008 235.226 98.6008 235.241 98.5976 235.256C99.0786 237.284 99.4634 239.777 98.5532 240.155C98.4847 240.183 98.4123 240.2 98.3386 240.207ZM96.1186 196.48C95.719 196.48 95.1788 196.939 94.5942 197.782C90.4872 203.702 85.5144 219.405 96.0742 236.588C97.7688 239.348 98.2942 239.459 98.3608 239.467C98.5606 239.222 98.3608 237.335 97.939 235.441C95.596 227.934 95.0684 219.978 96.3998 212.227C98.2794 202.333 97.4358 197.005 96.2666 196.517C96.2118 196.489 96.1505 196.476 96.089 196.48H96.1186Z" fill="#263238"/>
<path d="M96.5256 233.858C96.4552 233.858 96.386 233.839 96.3258 233.803C96.2657 233.766 96.217 233.713 96.1852 233.651C96.1334 233.532 90.8794 222.218 93.1438 210.711C93.1625 210.612 93.2193 210.526 93.3019 210.47C93.3845 210.413 93.486 210.392 93.5841 210.411C93.6822 210.43 93.7689 210.486 93.8252 210.569C93.8814 210.652 93.9025 210.753 93.8838 210.851C91.6638 222.107 96.8438 233.207 96.8438 233.318C96.865 233.362 96.8773 233.41 96.8798 233.459C96.8824 233.508 96.8752 233.557 96.8586 233.603C96.8421 233.649 96.8166 233.691 96.7836 233.727C96.7505 233.764 96.7107 233.793 96.6662 233.813C96.6227 233.837 96.5749 233.852 96.5256 233.858Z" fill="#263238"/>
<path d="M91.427 222.513C89.0816 215.065 88.5563 207.162 89.8952 199.469C92.2188 187.23 90.6796 180.022 87.4014 184.743C83.4202 190.471 78.0182 206.292 88.8814 223.963C93.573 231.585 91.4196 222.52 91.4196 222.52" fill="#3B5FE2"/>
<path d="M91.4788 227.382C90.9756 227.382 90.1986 226.79 88.578 224.156C77.7962 206.64 82.8948 190.575 87.098 184.529C88.0304 183.189 88.9036 182.679 89.688 183.004C91.7082 183.855 91.908 190.656 90.2578 199.543C88.9345 207.168 89.4417 214.997 91.7378 222.387V222.424C92.2188 224.452 92.6036 226.953 91.6934 227.33C91.6249 227.358 91.5525 227.376 91.4788 227.382ZM89.2588 183.656C88.8592 183.656 88.319 184.114 87.7344 184.951C83.6274 190.871 78.6546 206.573 89.2144 223.764C90.909 226.516 91.4344 226.635 91.501 226.635C91.7008 226.391 91.501 224.504 91.0792 222.617C88.7362 215.109 88.2086 207.153 89.54 199.403C91.4196 189.509 90.5686 184.174 89.4068 183.685C89.3503 183.663 89.2898 183.653 89.2292 183.656H89.2588Z" fill="#263238"/>
<path d="M90.5242 225.473C90.4502 225.474 90.3777 225.452 90.3158 225.411C90.254 225.37 90.2055 225.312 90.1764 225.244C90.1172 225.081 84.027 209.371 86.284 197.864C86.3037 197.767 86.3605 197.682 86.442 197.627C86.5236 197.572 86.6236 197.551 86.7206 197.568C86.7683 197.578 86.8135 197.597 86.8538 197.624C86.8941 197.651 86.9286 197.686 86.9554 197.726C86.9822 197.767 87.0007 197.812 87.01 197.86C87.0192 197.908 87.019 197.957 87.0092 198.005C84.7892 209.275 90.8054 224.785 90.8646 224.941C90.8827 224.986 90.8916 225.034 90.8909 225.083C90.8903 225.131 90.88 225.179 90.8608 225.224C90.8415 225.269 90.8137 225.309 90.7788 225.343C90.7439 225.377 90.7027 225.404 90.6574 225.422C90.6163 225.446 90.5713 225.464 90.5242 225.473Z" fill="#263238"/>
<path d="M245.088 214.536C249.961 207.404 256.472 201.545 264.076 197.449C276.323 191.1 281.54 184.832 275.176 185.21C267.473 185.661 250.016 191.781 242.084 213.33C238.665 222.624 245.081 214.551 245.081 214.551" fill="#3B5FE2"/>
<path d="M241.455 218.147C241.341 218.151 241.228 218.123 241.129 218.065C240.618 217.784 240.345 216.992 241.743 213.189C249.602 191.855 267.044 185.313 275.162 184.839C276.945 184.736 277.981 185.128 278.225 186.023C278.862 188.347 273.119 193.179 264.247 197.775C252.244 204.005 245.465 214.624 245.399 214.735C244.326 216.097 242.513 218.147 241.455 218.147ZM275.709 185.587C275.554 185.587 275.384 185.587 275.206 185.587C267.251 186.053 250.164 192.476 242.439 213.455C241.173 216.881 241.469 217.392 241.506 217.444C241.869 217.525 243.416 216.045 244.785 214.328C245.11 213.818 251.955 203.325 263.906 197.131C272.882 192.476 277.966 187.844 277.507 186.223C277.396 185.757 276.76 185.565 275.709 185.565V185.587Z" fill="#263238"/>
<path d="M245.495 212.101C245.435 212.102 245.377 212.086 245.325 212.057C245.238 212.013 245.172 211.936 245.141 211.843C245.111 211.75 245.118 211.649 245.162 211.561C245.221 211.443 251.467 199.144 263.003 193.268C263.046 193.245 263.093 193.231 263.141 193.227C263.189 193.222 263.238 193.227 263.284 193.241C263.33 193.256 263.373 193.28 263.41 193.311C263.447 193.342 263.477 193.381 263.499 193.424C263.544 193.511 263.553 193.613 263.524 193.707C263.495 193.801 263.43 193.88 263.344 193.927C252.029 199.692 245.887 211.776 245.821 211.894C245.792 211.956 245.746 212.009 245.688 212.046C245.631 212.083 245.564 212.102 245.495 212.101Z" fill="#263238"/>
<path d="M237.725 221.965C240.073 214.517 240.598 206.615 239.257 198.922C236.933 186.675 238.472 179.467 241.751 184.188C245.739 189.923 251.134 205.744 240.271 223.408C235.579 231.03 237.732 221.965 237.732 221.965" fill="#3B5FE2"/>
<path d="M237.673 226.835C237.581 226.834 237.49 226.814 237.407 226.775C236.497 226.398 236.881 223.904 237.362 221.877C237.362 221.877 237.362 221.877 237.362 221.84C239.669 214.45 240.189 206.618 238.879 198.988C237.192 190.108 237.399 183.3 239.449 182.457C240.243 182.126 241.109 182.634 242.047 183.981C246.242 190.027 251.341 206.085 240.567 223.601C238.953 226.243 238.176 226.835 237.673 226.835ZM238.08 222.069C237.636 223.956 237.466 225.843 237.718 226.109C237.718 226.109 238.25 225.969 239.938 223.216C250.52 206.026 245.547 190.308 241.418 184.403C240.737 183.426 240.123 182.967 239.716 183.138C238.554 183.626 237.703 188.954 239.582 198.848C240.925 206.598 240.41 214.556 238.08 222.069Z" fill="#263238"/>
<path d="M239.494 220.478C239.437 220.478 239.382 220.465 239.331 220.441C239.242 220.398 239.174 220.322 239.141 220.23C239.108 220.137 239.112 220.035 239.153 219.946C239.205 219.835 244.333 208.735 242.113 197.487C242.102 197.439 242.101 197.389 242.11 197.341C242.119 197.293 242.137 197.248 242.164 197.207C242.191 197.166 242.226 197.131 242.267 197.104C242.308 197.077 242.354 197.059 242.402 197.05C242.449 197.04 242.499 197.04 242.546 197.049C242.594 197.058 242.639 197.077 242.68 197.104C242.72 197.131 242.755 197.165 242.783 197.205C242.81 197.246 242.829 197.291 242.838 197.339C245.103 208.838 239.878 220.153 239.797 220.279C239.767 220.335 239.724 220.382 239.671 220.417C239.618 220.452 239.557 220.473 239.494 220.478Z" fill="#263238"/>
<path d="M244.585 209.134C246.933 201.688 247.459 193.788 246.117 186.097C243.793 173.85 245.332 166.643 248.618 171.364C252.599 177.092 257.994 192.92 247.138 210.584C242.446 218.206 244.6 209.104 244.6 209.104" fill="#3B5FE2"/>
<path d="M244.533 214.003C244.442 214.005 244.351 213.987 244.267 213.951C243.364 213.574 243.741 211.08 244.222 209.052C244.222 209.052 244.222 209.052 244.222 209.008C246.531 201.621 247.051 193.791 245.739 186.164C244.052 177.284 244.259 170.476 246.309 169.625C247.093 169.3 247.967 169.81 248.906 171.157C253.102 177.203 258.201 193.261 247.426 210.777C245.813 213.411 245.036 214.003 244.533 214.003ZM244.94 209.237C244.496 211.132 244.326 213.011 244.577 213.285C244.577 213.285 245.11 213.145 246.797 210.392C257.379 193.202 252.407 177.484 248.277 171.579C247.597 170.602 246.982 170.143 246.575 170.313C245.414 170.802 244.563 176.13 246.442 186.024C247.786 193.771 247.271 201.727 244.94 209.237Z" fill="#263238"/>
<path d="M245.495 212.101C245.449 212.111 245.401 212.111 245.354 212.101C245.265 212.065 245.193 211.995 245.154 211.906C245.116 211.818 245.113 211.718 245.147 211.627C245.206 211.472 251.223 195.954 249.003 184.684C248.992 184.637 248.991 184.588 249 184.54C249.009 184.493 249.027 184.447 249.054 184.407C249.081 184.367 249.116 184.333 249.157 184.306C249.198 184.28 249.243 184.263 249.291 184.255C249.339 184.245 249.388 184.245 249.436 184.254C249.483 184.263 249.529 184.282 249.569 184.309C249.61 184.335 249.645 184.37 249.672 184.41C249.699 184.451 249.718 184.496 249.728 184.543C251.992 196.021 245.895 211.738 245.835 211.923C245.801 211.982 245.751 212.03 245.691 212.061C245.631 212.092 245.563 212.106 245.495 212.101Z" fill="#263238"/>
<path d="M248.166 176.24H177.822L138.469 113.665H208.813L248.166 176.24Z" fill="#263238"/>
<path d="M248.166 176.61H177.822C177.76 176.611 177.698 176.596 177.644 176.566C177.589 176.536 177.544 176.493 177.511 176.439L138.158 113.858C138.123 113.801 138.105 113.736 138.105 113.669C138.105 113.602 138.123 113.537 138.158 113.48C138.192 113.424 138.24 113.378 138.297 113.345C138.354 113.313 138.418 113.296 138.484 113.295H208.828C208.89 113.294 208.952 113.309 209.006 113.339C209.061 113.369 209.106 113.412 209.139 113.465L248.492 176.047C248.527 176.104 248.545 176.169 248.545 176.236C248.545 176.303 248.527 176.368 248.492 176.425C248.458 176.481 248.41 176.527 248.353 176.559C248.296 176.592 248.232 176.609 248.166 176.61ZM178.029 175.87H247.5L208.606 114.035H139.12L178.029 175.87Z" fill="#263238"/>
<path d="M168.032 174.095H95.9336V237.779H168.032V174.095Z" fill="#C7C7C7"/>
<path d="M168.032 238.149H95.9336C95.8355 238.149 95.7414 238.11 95.672 238.041C95.6026 237.971 95.5636 237.877 95.5636 237.779V174.095C95.5636 173.996 95.6026 173.902 95.672 173.833C95.7414 173.764 95.8355 173.725 95.9336 173.725H168.032C168.13 173.725 168.224 173.764 168.293 173.833C168.363 173.902 168.402 173.996 168.402 174.095V237.779C168.402 237.877 168.363 237.971 168.293 238.041C168.224 238.11 168.13 238.149 168.032 238.149ZM96.3036 237.409H167.662V174.465H96.3036V237.409Z" fill="#263238"/>
<path d="M240.13 237.78H168.032V174.095L204.684 115.811L240.13 174.095V237.78Z" fill="white"/>
<path d="M240.13 238.15H168.032C167.934 238.15 167.84 238.111 167.77 238.041C167.701 237.972 167.662 237.878 167.662 237.78V174.094C167.662 174.024 167.683 173.954 167.721 173.895L204.373 115.619C204.405 115.565 204.451 115.52 204.505 115.489C204.56 115.458 204.621 115.441 204.684 115.441C204.747 115.441 204.808 115.458 204.863 115.489C204.917 115.52 204.963 115.565 204.995 115.619L240.448 173.917C240.483 173.975 240.501 174.041 240.5 174.109V237.78C240.5 237.878 240.461 237.972 240.392 238.041C240.322 238.111 240.228 238.15 240.13 238.15ZM168.402 237.41H239.76V174.198L204.677 116.514L168.417 174.198L168.402 237.41Z" fill="#263238"/>
<path d="M183.653 185.506H176.446V207.136H183.653V185.506Z" fill="#C7C7C7"/>
<path d="M183.653 207.506H176.446C176.347 207.506 176.253 207.467 176.184 207.397C176.115 207.328 176.076 207.234 176.076 207.136V185.505C176.076 185.407 176.115 185.313 176.184 185.244C176.253 185.174 176.347 185.135 176.446 185.135H183.653C183.751 185.135 183.845 185.174 183.915 185.244C183.984 185.313 184.023 185.407 184.023 185.505V207.136C184.023 207.234 183.984 207.328 183.915 207.397C183.845 207.467 183.751 207.506 183.653 207.506ZM176.816 206.766H183.283V185.875H176.816V206.766Z" fill="#263238"/>
<path d="M190.861 185.506H183.653V207.136H190.861V185.506Z" fill="#263238"/>
<path d="M190.868 207.506H183.653C183.555 207.506 183.461 207.467 183.392 207.397C183.322 207.328 183.283 207.234 183.283 207.136V185.505C183.285 185.408 183.325 185.315 183.394 185.246C183.463 185.177 183.556 185.137 183.653 185.135H190.868C190.966 185.137 191.059 185.177 191.128 185.246C191.197 185.315 191.236 185.408 191.238 185.505V207.136C191.238 207.234 191.199 207.328 191.13 207.397C191.06 207.467 190.966 207.506 190.868 207.506ZM184.023 206.766H190.498V185.875H184.023V206.766Z" fill="#263238"/>
<path d="M198.076 185.506H190.868V207.136H198.076V185.506Z" fill="#C7C7C7"/>
<path d="M198.076 207.506H190.868C190.77 207.506 190.676 207.467 190.607 207.397C190.537 207.328 190.498 207.234 190.498 207.136V185.505C190.498 185.407 190.537 185.313 190.607 185.244C190.676 185.174 190.77 185.135 190.868 185.135H198.076C198.174 185.135 198.268 185.174 198.337 185.244C198.407 185.313 198.446 185.407 198.446 185.505V207.136C198.446 207.234 198.407 207.328 198.337 207.397C198.268 207.467 198.174 207.506 198.076 207.506ZM191.238 206.766H197.706V185.875H191.238V206.766Z" fill="#263238"/>
<path d="M150.612 185.506H144.603V207.136H150.612V185.506Z" fill="#919191"/>
<path d="M150.612 207.506H144.603C144.505 207.506 144.411 207.467 144.342 207.397C144.272 207.328 144.233 207.234 144.233 207.136V185.505C144.233 185.407 144.272 185.313 144.342 185.244C144.411 185.174 144.505 185.135 144.603 185.135H150.612C150.71 185.135 150.804 185.174 150.874 185.244C150.943 185.313 150.982 185.407 150.982 185.505V207.136C150.982 207.234 150.943 207.328 150.874 207.397C150.804 207.467 150.71 207.506 150.612 207.506ZM144.973 206.766H150.22V185.875H144.951L144.973 206.766Z" fill="#263238"/>
<path d="M156.621 185.506H150.612V207.136H156.621V185.506Z" fill="#263238"/>
<path d="M156.621 207.506H150.612C150.514 207.506 150.42 207.467 150.351 207.397C150.281 207.328 150.242 207.234 150.242 207.136V185.505C150.242 185.407 150.281 185.313 150.351 185.244C150.42 185.174 150.514 185.135 150.612 185.135H156.621C156.719 185.137 156.812 185.177 156.881 185.246C156.95 185.315 156.989 185.408 156.991 185.505V207.136C156.991 207.234 156.952 207.328 156.883 207.397C156.813 207.467 156.719 207.506 156.621 207.506ZM150.982 206.766H156.251V185.875H150.96L150.982 206.766Z" fill="#263238"/>
<path d="M162.63 185.506H156.621V207.136H162.63V185.506Z" fill="#919191"/>
<path d="M162.63 207.506H156.621C156.523 207.506 156.429 207.467 156.359 207.397C156.29 207.328 156.251 207.234 156.251 207.136V185.505C156.251 185.407 156.29 185.313 156.359 185.244C156.429 185.174 156.523 185.135 156.621 185.135H162.63C162.727 185.137 162.82 185.177 162.889 185.246C162.958 185.315 162.998 185.408 163 185.505V207.136C163 207.234 162.961 207.328 162.891 207.397C162.822 207.467 162.728 207.506 162.63 207.506ZM156.991 206.766H162.26V185.875H156.991V206.766Z" fill="#263238"/>
<path d="M106.153 185.506H100.144V207.136H106.153V185.506Z" fill="#919191"/>
<path d="M106.153 207.506H100.144C100.046 207.506 99.9519 207.467 99.8825 207.397C99.8131 207.328 99.7742 207.234 99.7742 207.136V185.505C99.7742 185.407 99.8131 185.313 99.8825 185.244C99.9519 185.174 100.046 185.135 100.144 185.135H106.153C106.251 185.137 106.344 185.177 106.413 185.246C106.481 185.315 106.521 185.408 106.523 185.505V207.136C106.523 207.234 106.484 207.328 106.415 207.397C106.345 207.467 106.251 207.506 106.153 207.506ZM100.514 206.766H105.82V185.875H100.551L100.514 206.766Z" fill="#263238"/>
<path d="M112.162 185.506H106.153V207.136H112.162V185.506Z" fill="#263238"/>
<path d="M112.162 207.506H106.153C106.055 207.506 105.961 207.467 105.891 207.397C105.822 207.328 105.783 207.234 105.783 207.136V185.505C105.783 185.407 105.822 185.313 105.891 185.244C105.961 185.174 106.055 185.135 106.153 185.135H112.162C112.259 185.137 112.352 185.177 112.421 185.246C112.49 185.315 112.53 185.408 112.532 185.505V207.136C112.532 207.234 112.493 207.328 112.423 207.397C112.354 207.467 112.26 207.506 112.162 207.506ZM106.523 206.766H111.792V185.875H106.56L106.523 206.766Z" fill="#263238"/>
<path d="M118.171 185.506H112.162V207.136H118.171V185.506Z" fill="#919191"/>
<path d="M118.171 207.506H112.162C112.064 207.506 111.97 207.467 111.9 207.397C111.831 207.328 111.792 207.234 111.792 207.136V185.505C111.792 185.407 111.831 185.313 111.9 185.244C111.97 185.174 112.064 185.135 112.162 185.135H118.171C118.268 185.137 118.361 185.177 118.43 185.246C118.499 185.315 118.539 185.408 118.541 185.505V207.136C118.541 207.234 118.502 207.328 118.432 207.397C118.363 207.467 118.269 207.506 118.171 207.506ZM112.532 206.766H117.801V185.875H112.532V206.766Z" fill="#263238"/>
<path d="M220.305 185.506H213.098V207.136H220.305V185.506Z" fill="#C7C7C7"/>
<path d="M220.305 207.506H213.12C213.022 207.506 212.928 207.467 212.858 207.397C212.789 207.328 212.75 207.234 212.75 207.136V185.505C212.75 185.407 212.789 185.313 212.858 185.244C212.928 185.174 213.022 185.135 213.12 185.135H220.328C220.426 185.135 220.52 185.174 220.589 185.244C220.659 185.313 220.698 185.407 220.698 185.505V207.136C220.698 207.186 220.687 207.236 220.667 207.283C220.648 207.329 220.618 207.371 220.581 207.406C220.545 207.44 220.501 207.467 220.454 207.484C220.406 207.501 220.356 207.509 220.305 207.506ZM213.468 206.766H219.935V185.875H213.468V206.766Z" fill="#263238"/>
<path d="M227.513 185.506H220.305V207.136H227.513V185.506Z" fill="#263238"/>
<path d="M227.513 207.506H220.305C220.207 207.506 220.113 207.467 220.044 207.397C219.974 207.328 219.935 207.234 219.935 207.136V185.505C219.935 185.407 219.974 185.313 220.044 185.244C220.113 185.174 220.207 185.135 220.305 185.135H227.513C227.611 185.135 227.705 185.174 227.775 185.244C227.844 185.313 227.883 185.407 227.883 185.505V207.136C227.883 207.234 227.844 207.328 227.775 207.397C227.705 207.467 227.611 207.506 227.513 207.506ZM220.675 206.766H227.18V185.875H220.712L220.675 206.766Z" fill="#263238"/>
<path d="M234.721 185.506H227.513V207.136H234.721V185.506Z" fill="#C7C7C7"/>
<path d="M234.728 207.506H227.513C227.415 207.506 227.321 207.467 227.251 207.397C227.182 207.328 227.143 207.234 227.143 207.136V185.505C227.145 185.408 227.184 185.315 227.253 185.246C227.322 185.177 227.415 185.137 227.513 185.135H234.728C234.826 185.137 234.919 185.177 234.988 185.246C235.057 185.315 235.096 185.408 235.098 185.505V207.136C235.098 207.234 235.059 207.328 234.99 207.397C234.92 207.467 234.826 207.506 234.728 207.506ZM227.883 206.766H234.358V185.875H227.92L227.883 206.766Z" fill="#263238"/>
<path d="M203.485 150.059H198.675V163.275H203.485V150.059Z" fill="#C7C7C7"/>
<path d="M203.5 163.645H198.69C198.592 163.645 198.498 163.606 198.428 163.537C198.359 163.468 198.32 163.373 198.32 163.275V150.059C198.32 149.961 198.359 149.867 198.428 149.797C198.498 149.728 198.592 149.689 198.69 149.689H203.5C203.598 149.689 203.692 149.728 203.762 149.797C203.831 149.867 203.87 149.961 203.87 150.059V163.275C203.87 163.373 203.831 163.468 203.762 163.537C203.692 163.606 203.598 163.645 203.5 163.645ZM199.06 162.905H203.13V150.429H199.06V162.905Z" fill="#263238"/>
<path d="M208.295 150.059H203.485V163.275H208.295V150.059Z" fill="#263238"/>
<path d="M208.288 163.645H203.5C203.402 163.645 203.308 163.606 203.238 163.537C203.169 163.468 203.13 163.373 203.13 163.275V150.059C203.13 149.961 203.169 149.867 203.238 149.797C203.308 149.728 203.402 149.689 203.5 149.689H208.303C208.401 149.689 208.495 149.728 208.564 149.797C208.634 149.867 208.673 149.961 208.673 150.059V163.275C208.673 163.325 208.663 163.375 208.643 163.42C208.624 163.466 208.595 163.508 208.559 163.542C208.523 163.577 208.481 163.604 208.434 163.622C208.387 163.639 208.338 163.647 208.288 163.645ZM203.848 162.905H207.94V150.429H203.877L203.848 162.905Z" fill="#263238"/>
<path d="M213.098 150.059H208.288V163.275H213.098V150.059Z" fill="#C7C7C7"/>
<path d="M213.12 163.645H208.31C208.212 163.645 208.118 163.606 208.048 163.537C207.979 163.468 207.94 163.373 207.94 163.275V150.059C207.94 149.961 207.979 149.867 208.048 149.797C208.118 149.728 208.212 149.689 208.31 149.689H213.12C213.218 149.689 213.312 149.728 213.382 149.797C213.451 149.867 213.49 149.961 213.49 150.059V163.275C213.49 163.373 213.451 163.468 213.382 163.537C213.312 163.606 213.218 163.645 213.12 163.645ZM208.68 162.905H212.75V150.429H208.68V162.905Z" fill="#263238"/>
<path d="M91.9228 176.24H169.342L208.695 113.665H131.276L91.9228 176.24Z" fill="#3B5FE2"/>
<path d="M169.342 176.61H91.9228C91.8572 176.609 91.7929 176.592 91.736 176.559C91.679 176.527 91.6312 176.481 91.5972 176.425C91.5648 176.367 91.5477 176.302 91.5477 176.236C91.5477 176.17 91.5648 176.105 91.5972 176.047L130.98 113.465C131.012 113.412 131.058 113.369 131.113 113.339C131.167 113.309 131.229 113.294 131.291 113.295H208.68C208.746 113.295 208.81 113.312 208.867 113.345C208.924 113.377 208.972 113.424 209.006 113.48C209.038 113.538 209.055 113.603 209.055 113.669C209.055 113.735 209.038 113.8 209.006 113.858L169.652 176.439C169.618 176.491 169.572 176.534 169.518 176.563C169.464 176.593 169.403 176.609 169.342 176.61ZM92.5962 175.87H169.142L208.029 114.035H131.483L92.5962 175.87Z" fill="#263238"/>
<path d="M152.366 141.926H121.797V162.158H152.366V141.926Z" fill="#C7C7C7"/>
<path d="M152.373 162.535H121.797C121.699 162.533 121.606 162.494 121.537 162.425C121.468 162.356 121.428 162.263 121.427 162.165V141.926C121.428 141.829 121.468 141.736 121.537 141.667C121.606 141.598 121.699 141.558 121.797 141.556H152.373C152.471 141.558 152.564 141.598 152.633 141.667C152.702 141.736 152.741 141.829 152.743 141.926V162.165C152.741 162.263 152.702 162.356 152.633 162.425C152.564 162.494 152.471 162.533 152.373 162.535ZM122.167 161.795H152.003V142.296H122.167V161.795Z" fill="#263238"/>
<path d="M152.373 141.934L173.5 127.422L152.373 162.165V141.934Z" fill="white"/>
<path d="M152.373 162.535H152.27C152.193 162.513 152.125 162.466 152.077 162.402C152.029 162.338 152.003 162.26 152.003 162.18V141.926C152.004 141.867 152.019 141.809 152.046 141.756C152.073 141.704 152.111 141.658 152.159 141.623L173.286 127.119C173.352 127.065 173.434 127.036 173.519 127.036C173.604 127.036 173.686 127.065 173.752 127.119C173.812 127.179 173.85 127.257 173.861 127.342C173.872 127.426 173.854 127.512 173.811 127.585L152.684 162.328C152.656 162.387 152.612 162.438 152.557 162.475C152.503 162.511 152.439 162.532 152.373 162.535ZM152.743 142.126V160.841L172.287 128.702L152.743 142.126Z" fill="#263238"/>
<path d="M119.347 142.614H151.367L173.5 127.422H141.481L119.347 142.614Z" fill="#3B5FE2"/>
<path d="M151.367 142.984H119.347C119.268 142.985 119.191 142.96 119.127 142.913C119.063 142.867 119.016 142.801 118.992 142.725C118.97 142.65 118.973 142.569 118.999 142.494C119.026 142.42 119.075 142.356 119.14 142.311L141.273 127.119C141.334 127.075 141.406 127.052 141.481 127.052H173.5C173.579 127.053 173.655 127.079 173.717 127.126C173.78 127.173 173.826 127.239 173.849 127.313C173.873 127.388 173.871 127.469 173.846 127.543C173.82 127.617 173.772 127.681 173.708 127.726L151.582 142.925C151.516 142.963 151.442 142.983 151.367 142.984ZM120.539 142.244H151.256L172.302 127.792H141.599L120.539 142.244Z" fill="#263238"/>
<path d="M134.095 146.226H129.285V159.442H134.095V146.226Z" fill="#919191"/>
<path d="M134.088 159.812H129.285C129.187 159.812 129.093 159.773 129.024 159.704C128.954 159.634 128.915 159.54 128.915 159.442V146.226C128.915 146.128 128.954 146.033 129.024 145.964C129.093 145.895 129.187 145.856 129.285 145.856H134.088C134.186 145.856 134.28 145.895 134.35 145.964C134.419 146.033 134.458 146.128 134.458 146.226V159.442C134.458 159.54 134.419 159.634 134.35 159.704C134.28 159.773 134.186 159.812 134.088 159.812ZM129.648 159.072H133.711V146.596H129.648V159.072Z" fill="#263238"/>
<path d="M138.898 146.226H134.088V159.442H138.898V146.226Z" fill="#263238"/>
<path d="M138.898 159.812H134.088C133.99 159.812 133.896 159.773 133.826 159.704C133.757 159.634 133.718 159.54 133.718 159.442V146.226C133.718 146.128 133.757 146.033 133.826 145.964C133.896 145.895 133.99 145.856 134.088 145.856H138.898C138.996 145.856 139.09 145.895 139.16 145.964C139.229 146.033 139.268 146.128 139.268 146.226V159.442C139.268 159.54 139.229 159.634 139.16 159.704C139.09 159.773 138.996 159.812 138.898 159.812ZM134.458 159.072H138.528V146.596H134.458V159.072Z" fill="#263238"/>
<path d="M143.708 146.226H138.898V159.442H143.708V146.226Z" fill="#919191"/>
<path d="M143.701 159.812H138.898C138.8 159.812 138.706 159.773 138.636 159.704C138.567 159.634 138.528 159.54 138.528 159.442V146.226C138.528 146.128 138.567 146.033 138.636 145.964C138.706 145.895 138.8 145.856 138.898 145.856H143.701C143.799 145.856 143.893 145.895 143.962 145.964C144.032 146.033 144.071 146.128 144.071 146.226V159.442C144.071 159.54 144.032 159.634 143.962 159.704C143.893 159.773 143.799 159.812 143.701 159.812ZM139.261 159.072H143.323V146.596H139.268L139.261 159.072Z" fill="#263238"/>
<path d="M190.062 104.171H187.368V123.803L190.062 119.467V104.171Z" fill="white"/>
<path d="M187.368 124.173H187.272C187.193 124.151 187.124 124.103 187.074 124.038C187.025 123.972 186.998 123.893 186.998 123.811V104.171C186.998 104.073 187.037 103.979 187.106 103.909C187.176 103.84 187.27 103.801 187.368 103.801H190.062C190.16 103.801 190.254 103.84 190.323 103.909C190.393 103.979 190.432 104.073 190.432 104.171V119.467C190.43 119.535 190.41 119.602 190.372 119.659L187.686 124.003C187.652 124.056 187.605 124.1 187.549 124.13C187.494 124.159 187.431 124.174 187.368 124.173ZM187.738 104.541V122.508L189.692 119.363V104.563L187.738 104.541Z" fill="#263238"/>
<path d="M187.494 104.171H179.546V123.803H187.494V104.171Z" fill="#C7C7C7"/>
<path d="M187.494 124.173H179.546C179.448 124.173 179.354 124.134 179.285 124.065C179.215 123.995 179.176 123.901 179.176 123.803V104.171C179.176 104.073 179.215 103.979 179.285 103.909C179.354 103.84 179.448 103.801 179.546 103.801H187.494C187.592 103.801 187.686 103.84 187.755 103.909C187.825 103.979 187.864 104.073 187.864 104.171V123.803C187.864 123.901 187.825 123.995 187.755 124.065C187.686 124.134 187.592 124.173 187.494 124.173ZM179.916 123.433H187.124V104.541H179.916V123.433Z" fill="#263238"/>
<path d="M141.244 189.146H122.736V237.779H141.244V189.146Z" fill="#263238"/>
<path d="M141.236 238.149H122.736C122.638 238.149 122.544 238.11 122.475 238.041C122.405 237.971 122.366 237.877 122.366 237.779V189.146C122.366 189.048 122.405 188.954 122.475 188.885C122.544 188.815 122.638 188.776 122.736 188.776H141.236C141.335 188.776 141.429 188.815 141.498 188.885C141.567 188.954 141.606 189.048 141.606 189.146V237.779C141.606 237.877 141.567 237.971 141.498 238.041C141.429 238.11 141.335 238.149 141.236 238.149ZM123.106 237.409H140.866V189.516H123.106V237.409Z" fill="#263238"/>
<path d="M140.26 213.404C140.26 213.08 140.164 212.764 139.984 212.495C139.804 212.226 139.549 212.017 139.25 211.893C138.951 211.769 138.622 211.737 138.305 211.8C137.988 211.863 137.696 212.019 137.468 212.248C137.239 212.476 137.083 212.768 137.02 213.085C136.957 213.402 136.989 213.731 137.113 214.03C137.237 214.329 137.447 214.584 137.716 214.764C137.985 214.943 138.301 215.039 138.624 215.039C139.058 215.039 139.474 214.867 139.781 214.56C140.087 214.254 140.26 213.838 140.26 213.404Z" fill="white"/>
<path d="M138.624 215.409C138.225 215.411 137.835 215.294 137.503 215.073C137.171 214.853 136.912 214.538 136.759 214.17C136.605 213.802 136.565 213.397 136.642 213.006C136.72 212.615 136.912 212.255 137.194 211.973C137.475 211.691 137.835 211.5 138.226 211.422C138.617 211.345 139.022 211.385 139.39 211.538C139.759 211.692 140.073 211.951 140.293 212.283C140.514 212.615 140.631 213.005 140.63 213.404C140.63 213.667 140.578 213.928 140.477 214.171C140.376 214.415 140.228 214.636 140.042 214.822C139.856 215.008 139.635 215.156 139.392 215.257C139.148 215.358 138.888 215.409 138.624 215.409ZM138.624 212.131C138.372 212.13 138.125 212.203 137.915 212.342C137.705 212.481 137.54 212.679 137.443 212.912C137.346 213.144 137.319 213.4 137.368 213.648C137.416 213.895 137.536 214.123 137.714 214.301C137.892 214.48 138.119 214.602 138.366 214.652C138.613 214.701 138.869 214.677 139.102 214.581C139.335 214.484 139.534 214.321 139.675 214.112C139.815 213.902 139.89 213.656 139.89 213.404C139.891 213.237 139.859 213.072 139.795 212.917C139.732 212.763 139.639 212.623 139.522 212.504C139.404 212.386 139.264 212.292 139.11 212.228C138.956 212.164 138.791 212.131 138.624 212.131Z" fill="#263238"/>
<path d="M92.1226 227.604C92.1226 227.604 76.6196 219.124 62.16 217.577C47.7004 216.031 39.3088 222.757 39.3828 225.673C39.4568 228.589 49.4986 228.825 51.4078 229.314C53.317 229.802 64.9498 226.583 82.1252 230.668C99.3006 234.753 101.506 235.589 101.506 235.589L92.1226 227.604Z" fill="white"/>
<path d="M101.498 235.93C101.454 235.937 101.409 235.937 101.365 235.93C101.269 235.93 98.8936 235.027 82.0364 231.016C73.0907 228.914 63.8435 228.413 54.723 229.536C53.5947 229.733 52.4458 229.785 51.3042 229.691C50.5064 229.539 49.7012 229.428 48.8918 229.358C44.9846 228.929 39.072 228.271 39.0054 225.71C39.0054 224.733 39.6936 223.542 41.0034 222.336C44.4814 219.058 51.8814 216.098 62.16 217.185C76.5382 218.747 92.1152 227.198 92.2706 227.279L92.3298 227.323L101.706 235.278C101.763 235.327 101.804 235.393 101.823 235.465C101.842 235.538 101.839 235.615 101.813 235.686C101.787 235.757 101.74 235.818 101.679 235.862C101.617 235.905 101.544 235.929 101.469 235.93H101.498ZM64.38 228.174C70.3862 228.178 76.3714 228.884 82.214 230.276C92.8108 232.799 97.7096 234.08 99.9148 234.716L91.908 227.938C91.1088 227.501 76.0276 219.457 62.1082 217.94C52.0442 216.845 44.8662 219.761 41.4992 222.846C40.3818 223.875 39.7306 224.926 39.7454 225.658C39.7898 227.575 45.769 228.241 48.9732 228.618C49.8173 228.691 50.6571 228.807 51.4892 228.966C52.5458 229.024 53.6055 228.964 54.649 228.789C57.8794 228.411 61.1277 228.206 64.38 228.174Z" fill="#263238"/>
<path d="M85.6402 227.412C85.6402 227.412 69.4638 220.301 54.9154 219.975C40.367 219.65 32.597 227.087 32.9226 230.002C33.2482 232.918 43.2826 232.267 45.214 232.585C47.1454 232.903 58.46 228.678 75.9388 231.297C93.4176 233.917 95.6672 234.531 95.6672 234.531L85.6402 227.412Z" fill="white"/>
<path d="M95.6598 234.901H95.5636C95.4674 234.901 93.0254 234.213 75.8796 231.675C66.7869 230.341 57.5299 230.626 48.5366 232.518C47.4305 232.811 46.2917 232.963 45.1474 232.97C44.7182 232.896 43.7932 232.873 42.7128 232.844C38.7834 232.748 32.8338 232.6 32.5526 230.054C32.449 229.092 33.0484 227.834 34.2472 226.524C37.444 223.039 44.548 219.376 54.9228 219.62C69.3824 219.938 85.6254 227.02 85.7882 227.087L85.8548 227.124L95.8744 234.242C95.946 234.292 95.9978 234.365 96.0208 234.449C96.0438 234.533 96.0365 234.622 96.0002 234.701C95.9668 234.762 95.9175 234.813 95.8576 234.848C95.7977 234.883 95.7293 234.902 95.6598 234.901ZM64.5798 230.084C68.3983 230.073 72.2123 230.346 75.9906 230.898C86.765 232.496 91.7526 233.354 94.0096 233.776L85.4552 227.708C84.619 227.346 68.9014 220.626 54.908 220.308C44.7848 220.064 37.888 223.601 34.7948 226.968C33.7736 228.086 33.2112 229.188 33.3148 229.928C33.522 231.83 39.5308 231.985 42.7572 232.059C43.6051 232.059 44.4523 232.103 45.2954 232.193C46.3516 232.155 47.4008 232.006 48.4256 231.749C53.751 230.654 59.1727 230.096 64.6094 230.084H64.5798Z" fill="#263238"/>
<path d="M292.352 221.426L269.893 215.358C269.893 215.358 253.99 202.733 234.809 204.132C215.629 205.53 198.32 213.012 192.703 217.23C187.087 221.448 180.072 225.651 178.643 226.591C177.215 227.531 158.057 222.381 147.763 226.591C137.47 230.802 129.522 239.223 129.522 239.223C129.522 239.223 86.0103 226.118 75.2507 224.253C64.4911 222.388 51.8593 223.313 42.9719 229.862C34.0845 236.411 35.9863 240.607 40.7001 241.547C45.4139 242.487 46.3167 237.802 72.0465 244.818C97.7763 251.833 129.078 270.119 141.71 277.097C154.342 284.075 175.38 293.94 189.44 289.729C203.5 285.518 241.832 271.014 250.719 271.014C259.607 271.014 288.149 272.886 288.149 272.886L292.352 221.426Z" fill="white"/>
<path d="M181.892 291.113C169.157 291.113 153.432 284.031 141.532 277.422L137.973 275.432C124.165 267.691 95.4601 251.618 71.9133 245.173C53.4873 240.148 47.8115 241.155 44.4149 241.754C43.1627 242.061 41.8619 242.113 40.5891 241.909C38.3173 241.451 36.8151 240.274 36.4599 238.676C36.0677 236.929 36.8521 233.925 42.7869 229.551C50.6975 223.72 62.5671 221.648 75.3469 223.868C85.6181 225.659 126.103 237.788 129.441 238.787C130.625 237.58 138.202 230.099 147.652 226.206C154.852 223.246 166.278 224.83 173.101 225.762C175.55 226.103 178.081 226.443 178.466 226.243C178.851 226.044 179.361 225.666 180.146 225.178C182.935 223.424 188.115 220.175 192.481 216.897C198.483 212.398 216.08 205.094 234.78 203.725C253.28 202.378 268.953 214.129 270.063 214.988L292.448 221.048C292.531 221.071 292.603 221.122 292.652 221.192C292.7 221.263 292.723 221.348 292.714 221.433L288.504 272.894C288.501 272.942 288.489 272.989 288.467 273.033C288.446 273.076 288.416 273.115 288.38 273.147C288.343 273.178 288.3 273.202 288.254 273.217C288.208 273.232 288.16 273.238 288.112 273.234C287.83 273.234 259.488 271.362 250.712 271.362C244.622 271.362 224.22 278.355 207.829 283.942C200.333 286.517 193.858 288.737 189.536 290.032C187.054 290.762 184.479 291.126 181.892 291.113ZM49.7207 240.518C53.8943 240.518 60.5025 241.31 72.1057 244.477C95.7191 250.915 124.498 267.048 138.336 274.818C139.638 275.558 140.829 276.216 141.895 276.801C156.199 284.756 176.039 293.392 189.322 289.381C193.628 288.093 200.103 285.873 207.592 283.306C224.035 277.667 244.496 270.651 250.712 270.651C258.97 270.651 284.449 272.287 287.801 272.501L291.952 221.714L269.797 215.713C269.748 215.7 269.703 215.677 269.663 215.646C269.508 215.521 253.657 203.111 234.832 204.494C216.287 205.849 198.86 213.071 192.925 217.519C188.537 220.812 183.305 224.075 180.538 225.829C179.761 226.317 179.184 226.68 178.873 226.887C178.347 227.242 176.786 227.05 173.005 226.525C166.248 225.6 154.949 224.053 147.933 226.924C137.832 231.053 129.9 239.386 129.818 239.467C129.771 239.518 129.71 239.553 129.644 239.57C129.577 239.587 129.506 239.585 129.441 239.564C129.004 239.438 85.8327 226.451 75.2211 224.608C62.6411 222.388 50.9787 224.438 43.2235 230.151C37.3035 234.509 36.9039 237.269 37.1777 238.52C37.4515 239.771 38.7687 240.792 40.7371 241.192C41.92 241.376 43.1279 241.32 44.2891 241.029C46.0788 240.683 47.8979 240.512 49.7207 240.518Z" fill="#263238"/>
<path d="M280.134 252.373L260.835 270.903L288.141 272.886L280.134 252.373Z" fill="#263238"/>
<path d="M288.141 273.256L260.843 271.273C260.771 271.267 260.702 271.242 260.644 271.198C260.586 271.155 260.542 271.096 260.517 271.029C260.495 270.961 260.493 270.888 260.509 270.819C260.526 270.75 260.562 270.686 260.613 270.636L279.912 252.136C279.957 252.096 280.011 252.067 280.069 252.052C280.127 252.037 280.188 252.036 280.246 252.049C280.305 252.062 280.36 252.089 280.406 252.127C280.452 252.165 280.488 252.214 280.512 252.27L288.511 272.782C288.534 272.841 288.542 272.904 288.534 272.966C288.526 273.028 288.503 273.087 288.467 273.138C288.426 273.182 288.375 273.216 288.318 273.236C288.262 273.257 288.201 273.264 288.141 273.256ZM261.694 270.592L287.594 272.479L279.994 253.024L261.694 270.592Z" fill="#263238"/>
<path d="M132.312 255.94C129.241 255.94 127.324 255.022 126.673 252.403C126.14 250.109 126.094 247.729 126.539 245.417C126.984 243.104 127.909 240.911 129.256 238.979C129.318 238.908 129.405 238.864 129.498 238.855C129.592 238.845 129.686 238.872 129.76 238.93C129.835 238.987 129.885 239.071 129.9 239.164C129.914 239.257 129.893 239.352 129.84 239.43C129.803 239.482 125.63 245.091 127.391 252.225C128.412 256.332 132.956 255.607 143.131 253.572C146.409 252.913 147.489 252.351 148.437 251.848C150.301 250.871 151.53 250.22 166.485 250.005C182.861 249.776 199.785 249.376 208.843 249.161C212.254 249.087 214.319 249.036 214.681 249.036C214.78 249.036 214.874 249.075 214.943 249.144C215.012 249.213 215.051 249.308 215.051 249.406C215.051 249.504 215.012 249.598 214.943 249.667C214.874 249.737 214.78 249.776 214.681 249.776C214.326 249.776 212.151 249.827 208.858 249.901C199.778 250.116 182.876 250.516 166.5 250.745C151.7 250.96 150.546 251.574 148.777 252.506C147.058 253.407 145.199 254.013 143.279 254.297C138.743 255.2 135.065 255.94 132.312 255.94Z" fill="#263238"/>
<path d="M129.389 255.444H129.33C129.282 255.437 129.235 255.42 129.194 255.395C129.152 255.37 129.116 255.337 129.087 255.298C129.058 255.259 129.037 255.214 129.026 255.167C129.014 255.12 129.012 255.07 129.019 255.022C129.248 253.961 129.703 252.962 130.353 252.092C131.003 251.222 131.833 250.503 132.786 249.983C133.022 249.857 138.299 247.141 141.732 247.141C142.866 247.186 143.969 247.527 144.929 248.131C145.89 248.735 146.676 249.58 147.208 250.582C147.399 250.871 147.5 251.21 147.5 251.555C147.5 251.901 147.399 252.24 147.208 252.529C147.177 252.566 147.139 252.597 147.096 252.62C147.053 252.642 147.006 252.656 146.957 252.661C146.859 252.67 146.762 252.639 146.687 252.577C146.611 252.514 146.563 252.424 146.554 252.326C146.545 252.228 146.576 252.131 146.638 252.055C146.823 251.833 146.794 251.411 146.557 250.901C146.082 250.026 145.39 249.289 144.548 248.76C143.705 248.231 142.741 247.929 141.747 247.881C138.491 247.881 133.207 250.605 133.156 250.627C132.307 251.099 131.566 251.744 130.982 252.52C130.398 253.296 129.984 254.187 129.766 255.133C129.752 255.222 129.706 255.303 129.636 255.36C129.567 255.417 129.479 255.447 129.389 255.444Z" fill="#263238"/>
<path d="M158.464 249.865C158.365 249.865 158.271 249.826 158.202 249.756C158.133 249.687 158.094 249.593 158.094 249.495V245.513C158.094 245.415 158.133 245.321 158.202 245.252C158.271 245.182 158.365 245.143 158.464 245.143C158.562 245.143 158.656 245.182 158.725 245.252C158.795 245.321 158.834 245.415 158.834 245.513V249.495C158.834 249.593 158.795 249.687 158.725 249.756C158.656 249.826 158.562 249.865 158.464 249.865Z" fill="#263238"/>
<path d="M160.654 247.674H160.58C160.531 247.668 160.484 247.653 160.441 247.629C160.398 247.605 160.361 247.573 160.331 247.535C160.3 247.496 160.278 247.452 160.265 247.405C160.252 247.357 160.248 247.308 160.254 247.259C160.506 245.451 160.441 243.613 160.062 241.828C160.037 241.732 160.051 241.63 160.101 241.544C160.151 241.458 160.233 241.395 160.328 241.369C160.423 241.344 160.523 241.357 160.607 241.406C160.692 241.454 160.754 241.534 160.78 241.628C161.186 243.508 161.256 245.444 160.987 247.348C160.977 247.432 160.939 247.511 160.878 247.57C160.818 247.629 160.738 247.666 160.654 247.674Z" fill="#263238"/>
<path d="M281.859 212.124H312.028V294.465H281.859C280.977 294.465 280.132 294.115 279.509 293.492C278.886 292.868 278.536 292.023 278.536 291.142V215.446C278.536 214.565 278.886 213.72 279.509 213.097C280.132 212.474 280.977 212.124 281.859 212.124Z" fill="#3B5FE2"/>
<path d="M312.028 294.835H281.859C280.877 294.835 279.936 294.445 279.242 293.751C278.548 293.057 278.159 292.116 278.159 291.135V215.446C278.159 214.465 278.548 213.524 279.242 212.83C279.936 212.136 280.877 211.746 281.859 211.746H312.028C312.127 211.746 312.221 211.785 312.29 211.855C312.359 211.924 312.398 212.018 312.398 212.116V294.465C312.398 294.563 312.359 294.657 312.29 294.726C312.221 294.796 312.127 294.835 312.028 294.835ZM281.859 212.494C281.074 212.494 280.321 212.806 279.766 213.361C279.21 213.916 278.899 214.669 278.899 215.454V291.142C278.899 291.927 279.21 292.68 279.766 293.235C280.321 293.79 281.074 294.102 281.859 294.102H311.658V212.494H281.859Z" fill="#263238"/>
<path d="M312.28 207.891H365.701V300.896H312.28C311.611 300.896 310.969 300.63 310.496 300.157C310.022 299.683 309.757 299.041 309.757 298.372V210.422C309.756 210.09 309.82 209.761 309.947 209.454C310.073 209.147 310.259 208.868 310.493 208.633C310.727 208.398 311.006 208.211 311.313 208.084C311.619 207.957 311.948 207.891 312.28 207.891Z" fill="#3B5FE2"/>
<path d="M365.701 301.265H312.28C311.512 301.265 310.775 300.961 310.232 300.418C309.688 299.876 309.381 299.14 309.379 298.372V210.422C309.381 209.654 309.688 208.918 310.232 208.375C310.775 207.833 311.512 207.528 312.28 207.528H365.701C365.799 207.528 365.893 207.567 365.962 207.637C366.032 207.706 366.071 207.8 366.071 207.898V300.895C366.071 300.994 366.032 301.088 365.962 301.157C365.893 301.226 365.799 301.265 365.701 301.265ZM312.28 208.268C311.997 208.267 311.716 208.322 311.454 208.43C311.192 208.538 310.953 208.696 310.753 208.896C310.552 209.096 310.393 209.334 310.284 209.596C310.175 209.858 310.119 210.138 310.119 210.422V298.372C310.119 298.655 310.175 298.936 310.284 299.198C310.393 299.46 310.552 299.697 310.753 299.897C310.953 300.097 311.192 300.256 311.454 300.364C311.716 300.471 311.997 300.526 312.28 300.525H365.331V208.268H312.28Z" fill="#263238"/>
<path d="M308.077 220.034H283.176C283.078 220.034 282.984 219.995 282.914 219.926C282.845 219.857 282.806 219.763 282.806 219.664C282.808 219.567 282.847 219.474 282.916 219.405C282.985 219.336 283.078 219.296 283.176 219.294H308.077C308.175 219.294 308.269 219.333 308.338 219.403C308.408 219.472 308.447 219.566 308.447 219.664C308.447 219.763 308.408 219.857 308.338 219.926C308.269 219.995 308.175 220.034 308.077 220.034Z" fill="#263238"/>
<path d="M307.744 229.81H282.428C282.33 229.81 282.236 229.771 282.167 229.702C282.097 229.632 282.058 229.538 282.058 229.44C282.058 229.342 282.097 229.248 282.167 229.178C282.236 229.109 282.33 229.07 282.428 229.07H307.744C307.842 229.07 307.936 229.109 308.005 229.178C308.075 229.248 308.114 229.342 308.114 229.44C308.112 229.538 308.072 229.631 308.003 229.7C307.934 229.769 307.841 229.808 307.744 229.81Z" fill="#263238"/>
<path d="M298.856 247.57H281.54C281.442 247.57 281.348 247.531 281.279 247.462C281.209 247.393 281.17 247.298 281.17 247.2C281.17 247.102 281.209 247.008 281.279 246.939C281.348 246.869 281.442 246.83 281.54 246.83H298.856C298.955 246.83 299.049 246.869 299.118 246.939C299.187 247.008 299.226 247.102 299.226 247.2C299.226 247.298 299.187 247.393 299.118 247.462C299.049 247.531 298.955 247.57 298.856 247.57Z" fill="#263238"/>
<path d="M307.744 247.57H301.964C301.866 247.57 301.772 247.531 301.703 247.462C301.633 247.393 301.594 247.298 301.594 247.2C301.596 247.103 301.636 247.01 301.705 246.941C301.774 246.872 301.867 246.832 301.964 246.83H307.744C307.841 246.832 307.934 246.872 308.003 246.941C308.072 247.01 308.112 247.103 308.114 247.2C308.114 247.298 308.075 247.393 308.005 247.462C307.936 247.531 307.842 247.57 307.744 247.57Z" fill="#263238"/>
</svg>
