<svg width="25" height="24" viewBox="0 0 25 24" fill="none" xmlns="http://www.w3.org/2000/svg">
<g clip-path="url(#clip0_3_850)">
<path d="M14.9639 2.36612C14.4757 1.87796 13.6843 1.87796 13.1961 2.36612C12.708 2.85427 12.708 3.64573 13.1961 4.13389L19.8122 10.75H2.83001C2.13966 10.75 1.58002 11.3096 1.58002 12C1.58002 12.6904 2.13966 13.25 2.83001 13.25H19.8122L13.1961 19.8662C12.708 20.3543 12.708 21.1457 13.1961 21.6339C13.6843 22.122 14.4757 22.122 14.9639 21.6339L23.7139 12.8839C24.2021 12.3957 24.2021 11.6043 23.7139 11.1161L14.9639 2.36612Z" fill="white"/>
</g>
<defs>
<clipPath id="clip0_3_850">
<rect width="24" height="21" fill="white" transform="translate(0.830017 1.5)"/>
</clipPath>
</defs>
</svg>
